<?xml version="1.0" encoding="UTF-8" standalone="no"?>
<!DOCTYPE svg PUBLIC "-//W3C//DTD SVG 20010904//EN" "http://www.w3.org/TR/2001/REC-SVG-20010904/DTD/svg10.dtd">
<svg version="1.0" xmlns="http://www.w3.org/2000/svg" width="1024.000000pt" height="1024.000000pt" viewBox="0 0 1024.000000 1024.000000" preserveAspectRatio="xMidYMid meet">
<metadata>
Created by potrace 1.15, written by Peter Selinger 2001-2017
</metadata>
<g transform="translate(0.000000,1024.000000) scale(0.100000,-0.100000)" fill="#328E32" stroke="none">
<path d="M5480 7554 c-398 -56 -774 -216 -1063 -452 -86 -71 -235 -224 -298 -307 -152 -200 -295 -448 -355 -619 l-27 -78 -91 6 c-101 8 -287 -6 -405 -30 -180 -36 -374 -115 -524 -214 -231 -153 -464 -459 -537 -707 -21 -71 -23 -73 -48 -65 -15 4 -92 6 -172 6 -114 -1 -162 -6 -224 -23 -252 -68 -480 -259 -590 -496 -16 -33 -39 -103 -53 -155 -22 -87 -24 -109 -20 -255 5 -180 21 -251 86 -391 70 -149 177 -277 298 -359 l51 -34 369 257 c305 214 860 601 1486 1038 l117 82 293 -165 c160 -91 307 -174 324 -185 l33 -19 53 83 c30 46 148 227 262 403 114 176 291 449 394 607 102 158 189 287 193 285 4 -1 251 -427 548 -947 298 -520 544 -948 548 -952 4 -4 194 89 422 207 228 118 420 214 426 215 7 0 241 -137 520 -303 1240 -740 1135 -680 1161 -666 35 19 182 175 245 260 139 187 227 398 258 618 18 121 7 420 -19 532 -44 193 -127 380 -241 541 -82 117 -252 290 -350 355 -165 110 -403 207 -580 235 l-85 14 -22 85 c-98 373 -295 724 -563 1003 -277 288 -662 491 -1087 572 -121 23 -169 27 -383 30 -178 2 -274 -1 -350 -12z"/>
<path d="M2693 3516 c-90 -18 -103 -24 -103 -41 0 -15 10 -24 33 -30 l32 -10 3 -334 c1 -229 -1 -338 -9 -347 -6 -7 -20 -14 -32 -16 -16 -2 -23 -11 -25 -30 l-3 -28 155 0 156 0 0 25 c0 19 -7 26 -27 31 -55 13 -53 -2 -53 415 0 305 -3 389 -12 387 -7 0 -59 -10 -115 -22z"/>
<path d="M4603 3516 c-92 -18 -103 -22 -103 -42 0 -15 9 -24 33 -30 l32 -10 3 -99 2 -100 -64 -1 c-200 -4 -343 -204 -280 -391 31 -94 105 -157 197 -169 40 -6 52 -3 96 25 l51 31 0 -31 c0 -29 2 -31 28 -25 15 3 68 14 117 24 77 16 90 22 93 40 3 16 -3 23 -25 28 -55 13 -53 -1 -53 400 0 293 -3 374 -12 372 -7 0 -59 -10 -115 -22z m-73 -351 c16 -9 32 -25 35 -38 3 -12 4 -94 3 -182 l-3 -160 -28 -9 c-41 -15 -95 17 -127 74 -51 93 -24 276 48 315 34 18 37 18 72 0z"/>
<path d="M6277 3525 c-27 -7 -71 -16 -98 -20 -42 -6 -49 -10 -49 -29 0 -15 9 -25 29 -33 40 -15 43 -41 39 -384 -3 -303 -5 -314 -51 -321 -16 -2 -23 -11 -25 -30 l-3 -28 155 0 156 0 0 25 c0 20 -6 27 -30 32 -17 3 -35 14 -40 24 -6 10 -10 173 -10 398 0 299 -3 381 -12 380 -7 0 -35 -7 -61 -14z"/>
<path d="M6568 3516 c-89 -18 -98 -22 -98 -43 0 -16 6 -23 19 -23 11 0 27 -7 35 -16 14 -13 16 -58 16 -337 0 -177 -4 -328 -9 -335 -4 -7 -21 -16 -37 -21 -22 -5 -30 -14 -32 -34 l-3 -27 151 0 151 0 -3 27 c-2 18 -10 29 -23 31 -40 8 -45 21 -45 116 1 107 -5 111 105 -63 l70 -111 102 0 c103 0 103 0 103 25 0 18 -9 28 -34 40 -31 15 -101 100 -194 237 l-32 46 40 51 c48 61 74 79 137 95 37 9 49 17 51 34 3 21 0 22 -60 22 -35 0 -93 -3 -130 -7 -62 -5 -68 -8 -68 -28 0 -14 8 -25 20 -28 11 -3 20 -10 20 -15 0 -18 -84 -134 -107 -150 l-23 -14 0 276 c0 215 -3 276 -12 275 -7 -1 -57 -11 -110 -23z"/>
<path d="M2113 3475 c-211 -57 -341 -257 -304 -466 24 -139 103 -243 228 -301 54 -26 82 -32 160 -36 105 -5 256 13 273 33 6 7 24 53 40 101 28 83 29 90 13 101 -25 19 -30 17 -59 -29 -76 -124 -160 -165 -267 -134 -130 38 -207 167 -207 347 0 117 29 198 93 264 55 56 98 75 173 75 86 0 184 -79 201 -162 5 -24 9 -27 32 -21 14 3 27 6 28 7 4 3 -25 198 -31 203 -3 3 -31 12 -63 19 -74 18 -243 17 -310 -1z"/>
<path d="M4860 3450 c0 -27 3 -30 29 -30 67 0 74 -36 69 -388 -3 -253 -3 -254 -27 -273 -13 -10 -34 -19 -47 -19 -20 0 -24 -5 -24 -31 l0 -32 203 6 c163 4 214 9 263 24 119 39 176 108 176 214 0 95 -40 141 -155 178 l-37 13 52 26 c70 36 98 78 98 149 0 109 -53 165 -175 182 -39 6 -150 11 -247 11 l-178 0 0 -30z m378 -57 c31 -19 52 -71 52 -126 0 -81 -58 -135 -147 -136 l-33 -1 0 98 c0 131 8 172 34 182 25 10 62 3 94 -17z m-16 -333 c20 -6 50 -26 66 -44 84 -95 24 -266 -92 -266 -70 0 -77 15 -83 179 l-6 141 39 0 c21 0 56 -5 76 -10z"/>
<path d="M3142 3222 c-72 -26 -122 -69 -155 -133 -83 -164 -13 -358 147 -404 195 -57 358 68 359 274 0 117 -42 196 -132 244 -67 37 -149 44 -219 19z m123 -66 c40 -40 58 -122 53 -251 -3 -96 -6 -118 -24 -142 -70 -94 -165 23 -168 206 -1 98 9 143 40 181 31 37 66 39 99 6z"/>
<path d="M5789 3226 c-63 -24 -123 -58 -151 -84 -52 -48 -27 -112 45 -112 34 0 36 2 57 57 25 68 36 83 60 83 34 0 61 -49 58 -104 l-3 -50 -104 -43 c-135 -55 -151 -70 -151 -142 0 -67 30 -119 83 -145 49 -23 73 -20 134 14 l54 31 20 -25 c34 -43 76 -43 147 -1 63 36 67 41 56 69 -4 11 -14 13 -34 10 -17 -4 -31 -1 -36 7 -5 8 -11 89 -14 181 -5 180 -10 195 -71 240 -32 24 -105 31 -150 14z m71 -356 c0 -88 -1 -90 -26 -96 -55 -14 -99 78 -61 129 12 17 66 55 80 56 4 1 7 -39 7 -89z"/>
<path d="M7289 3225 c-61 -22 -123 -56 -151 -83 -52 -48 -27 -112 44 -112 31 0 37 4 47 33 40 108 71 131 110 81 17 -22 21 -39 19 -78 l-3 -50 -103 -41 c-130 -52 -153 -74 -154 -144 0 -64 33 -120 85 -144 50 -24 76 -21 131 14 l49 30 26 -25 c40 -38 71 -41 127 -13 75 39 87 50 80 75 -6 17 -12 20 -36 15 -25 -5 -31 -2 -40 21 -5 15 -10 90 -10 167 0 150 -8 187 -51 225 -27 24 -81 44 -113 43 -12 0 -37 -6 -57 -14z m71 -354 c0 -91 -4 -101 -45 -101 -43 0 -73 92 -42 133 12 17 66 55 80 56 4 1 7 -39 7 -88z"/>
<path d="M7818 3235 c-3 -3 -43 -14 -89 -23 -68 -15 -85 -22 -87 -38 -2 -14 6 -23 28 -31 l30 -11 0 -185 c0 -193 -2 -201 -45 -209 -13 -2 -21 -13 -23 -31 l-3 -27 140 0 141 0 0 25 c0 18 -7 28 -25 35 l-25 10 0 174 c0 169 1 175 22 190 12 9 36 16 53 16 67 0 75 -25 75 -220 l0 -160 -25 -10 c-18 -7 -25 -17 -25 -35 l0 -25 140 0 c140 0 140 0 140 23 0 17 -9 27 -32 38 l-33 14 -5 180 c-4 149 -8 187 -24 218 -23 46 -57 74 -102 83 -46 8 -72 0 -133 -40 l-51 -35 0 40 c0 31 -4 39 -18 39 -10 0 -21 -2 -24 -5z"/>
<path d="M3690 3223 c-135 -13 -140 -14 -140 -34 0 -13 10 -24 29 -30 16 -6 32 -20 35 -32 3 -12 6 -94 6 -182 0 -132 3 -166 18 -194 27 -55 64 -76 132 -76 50 0 65 5 104 32 l46 33 0 -30 c0 -16 4 -31 9 -34 5 -3 56 4 115 17 97 20 106 24 106 44 0 16 -6 23 -19 23 -48 0 -51 17 -51 252 l0 220 -47 -6 c-27 -3 -79 -8 -116 -11 -63 -6 -68 -9 -65 -28 2 -12 12 -23 23 -25 43 -8 45 -17 45 -192 0 -182 -1 -185 -57 -196 -23 -4 -36 0 -59 19 l-29 25 -3 206 c-4 232 6 208 -82 199z"/>
</g>
</svg>