<?xml version="1.0" encoding="UTF-8" standalone="no"?>
<svg
   xmlns:dc="http://purl.org/dc/elements/1.1/"
   xmlns:cc="http://creativecommons.org/ns#"
   xmlns:rdf="http://www.w3.org/1999/02/22-rdf-syntax-ns#"
   xmlns:svg="http://www.w3.org/2000/svg"
   xmlns="http://www.w3.org/2000/svg"
   xmlns:sodipodi="http://sodipodi.sourceforge.net/DTD/sodipodi-0.dtd"
   xmlns:inkscape="http://www.inkscape.org/namespaces/inkscape"
   version="1.1"
   id="svg2"
   xml:space="preserve"
   width="717.28003"
   height="190.17332"
   viewBox="0 0 717.28003 190.17332"
   sodipodi:docname="AZ TUES - Logo BG (color - cmyk).eps"><metadata
     id="metadata8"><rdf:RDF><cc:Work
         rdf:about=""><dc:format>image/svg+xml</dc:format><dc:type
           rdf:resource="http://purl.org/dc/dcmitype/StillImage" /></cc:Work></rdf:RDF></metadata><defs
     id="defs6" /><sodipodi:namedview
     pagecolor="#ffffff"
     bordercolor="#666666"
     borderopacity="1"
     objecttolerance="10"
     gridtolerance="10"
     guidetolerance="10"
     inkscape:pageopacity="0"
     inkscape:pageshadow="2"
     inkscape:window-width="640"
     inkscape:window-height="480"
     id="namedview4" /><g
     id="g10"
     inkscape:groupmode="layer"
     inkscape:label="ink_ext_XXXXXX"
     transform="matrix(1.3333333,0,0,-1.3333333,0,190.17333)"><g
       id="g12"
       transform="scale(0.1)"><path
         d="m 249.273,1189.39 c 65.411,0 118.516,52.97 118.516,118.38 0,65.47 -53.105,118.52 -118.516,118.52 -65.41,0 -118.457,-53.05 -118.457,-118.52 0,-65.41 53.047,-118.38 118.457,-118.38"
         style="fill:#00adef;fill-opacity:1;fill-rule:nonzero;stroke:none"
         id="path14" /><path
         d="m 137.32,619.41 89.688,381.29 h 44.531 l 89.727,-381.29 z m 200.274,427.23 c -0.176,0.96 -0.625,1.7 -0.84,2.66 -0.449,1.27 -0.82,2.67 -1.406,3.94 -0.528,1.17 -1.153,2.15 -1.797,3.26 -0.547,1.04 -1.074,2.07 -1.738,2.97 -0.782,1.12 -1.661,2.07 -2.52,3.11 -0.703,0.74 -1.367,1.64 -2.148,2.46 -0.938,0.8 -1.973,1.62 -2.93,2.36 -0.938,0.69 -1.797,1.41 -2.715,2.01 -1.035,0.75 -2.109,1.25 -3.184,1.78 -1.113,0.59 -2.128,1.11 -3.242,1.56 -1.133,0.51 -2.402,0.82 -3.554,1.2 -1.153,0.29 -2.227,0.66 -3.457,0.87 -1.29,0.24 -2.774,0.3 -4.141,0.45 -0.938,0 -1.817,0.22 -2.715,0.22 H 197.34 c -1.016,0 -2.012,-0.22 -3.047,-0.29 -1.23,-0.08 -2.52,-0.14 -3.789,-0.38 -1.328,-0.21 -2.598,-0.66 -3.887,-1.03 -1.035,-0.37 -2.051,-0.59 -3.008,-0.98 -1.347,-0.51 -2.597,-1.17 -3.867,-1.91 -0.801,-0.37 -1.699,-0.82 -2.558,-1.33 -1.153,-0.76 -2.188,-1.64 -3.262,-2.46 -0.82,-0.74 -1.621,-1.33 -2.402,-2.07 -0.977,-0.9 -1.778,-1.93 -2.598,-2.83 -0.703,-0.88 -1.484,-1.7 -2.149,-2.68 -0.722,-1.03 -1.347,-2.21 -1.972,-3.32 -0.547,-1.05 -1.153,-1.93 -1.563,-2.97 -0.625,-1.27 -1.035,-2.67 -1.484,-4.16 -0.215,-0.74 -0.625,-1.56 -0.781,-2.44 L 1.01172,366.77 c -4.7461,-20.09 7.71484,-40.211 27.85158,-44.961 2.9101,-0.661 5.8008,-1.028 8.5742,-1.028 16.9922,0 32.3633,11.641 36.4453,28.86 l 45.7622,194.906 h 259.199 l 45.859,-194.906 c 4.043,-17.219 19.414,-28.782 36.387,-28.782 2.832,0 5.723,0.289 8.574,1.032 20.156,4.668 32.617,24.789 27.871,44.879 l -159.941,679.87"
         style="fill:#00adef;fill-opacity:1;fill-rule:nonzero;stroke:none"
         id="path16" /><path
         d="m 840.094,772.637 169.746,244.103 c 0,0.06 0.08,0.14 0.16,0.21 0.99,1.57 1.81,3.19 2.67,4.83 0.22,0.66 0.59,1.11 0.88,1.64 0.45,1.09 0.68,2.28 1.05,3.4 0.38,1.19 0.88,2.38 1.14,3.71 0.11,0.45 0.11,1.03 0.19,1.56 0.3,1.93 0.55,3.87 0.55,5.78 0,0 0.04,0.16 0.04,0.29 0,0.77 -0.22,1.57 -0.26,2.39 -0.07,1.56 -0.17,3.04 -0.44,4.61 -0.22,1.17 -0.63,2.28 -0.96,3.39 -0.33,1.2 -0.63,2.47 -1.08,3.58 -0.52,1.11 -1.11,2.15 -1.64,3.18 -0.58,1.12 -1.07,2.23 -1.77,3.26 -0.63,0.96 -1.49,1.94 -2.23,2.84 -0.74,0.95 -1.45,1.91 -2.31,2.81 -1.03,1.11 -2.28,1.99 -3.43,2.97 -0.69,0.51 -1.23,1.19 -1.9,1.62 -0.11,0 -0.15,0.08 -0.27,0.15 -1.621,1.12 -3.359,2.02 -5.156,2.9 -0.429,0.15 -0.84,0.44 -1.289,0.66 -1.269,0.53 -2.637,0.9 -3.965,1.27 -1.015,0.29 -2.011,0.74 -3.125,0.96 -0.547,0.15 -1.191,0.07 -1.777,0.15 -1.855,0.37 -3.711,0.59 -5.566,0.59 -0.039,0 -0.157,0 -0.254,0 H 638.063 c -20.704,0 -37.442,-16.68 -37.442,-37.33 0,-20.68 16.738,-37.46 37.442,-37.46 H 907.535 L 738.551,757.793 c 0,-0.078 -0.078,-0.215 -0.117,-0.215 -1.036,-1.562 -1.856,-3.203 -2.657,-4.902 -0.273,-0.528 -0.683,-1.035 -0.898,-1.641 -0.449,-1.035 -0.703,-2.148 -1.035,-3.262 -0.41,-1.269 -0.938,-2.519 -1.192,-3.789 -0.117,-0.507 -0.117,-1.035 -0.175,-1.543 -0.313,-1.933 -0.567,-3.867 -0.567,-5.878 0,-0.079 0,-0.137 0,-0.215 0,-0.743 0.195,-1.563 0.254,-2.383 0.039,-1.543 0.156,-3.106 0.41,-4.59 0.235,-1.191 0.664,-2.305 0.977,-3.418 0.332,-1.191 0.625,-2.441 1.113,-3.633 0.43,-1.035 1.035,-2.07 1.621,-3.183 0.567,-1.055 1.055,-2.149 1.719,-3.203 0.703,-1.036 1.465,-1.915 2.285,-2.891 0.742,-0.957 1.426,-1.934 2.227,-2.734 1.074,-1.114 2.343,-2.09 3.496,-2.969 0.664,-0.528 1.191,-1.192 1.894,-1.641 0.117,-0.078 0.176,-0.078 0.254,-0.156 0.41,-0.293 0.899,-0.508 1.309,-0.723 1.484,-0.976 2.988,-1.797 4.551,-2.539 0.625,-0.215 1.269,-0.508 1.972,-0.82 1.524,-0.508 3.086,-0.957 4.59,-1.406 0.684,-0.137 1.231,-0.293 1.895,-0.43 2.304,-0.375 4.492,-0.609 6.757,-0.609 h 0.079 49.785 c 68.281,0 123.828,-55.567 123.828,-123.829 v -55.8 c 0,-68.262 -55.547,-123.75 -123.828,-123.75 h -19.844 c -68.301,0 -123.848,55.488 -123.848,123.75 v 8.457 c 0,20.625 -16.718,37.324 -37.343,37.324 -20.704,0 -37.442,-16.699 -37.442,-37.324 v -8.457 c 0,-109.43 89.063,-198.532 198.633,-198.532 h 19.844 c 109.55,0 198.612,89.102 198.612,198.532 v 55.8 c 0,102.383 -77.909,186.899 -177.616,197.446"
         style="fill:#00adef;fill-opacity:1;fill-rule:nonzero;stroke:none"
         id="path18" /><path
         d="m 1372.89,1189.39 c 65.41,0 118.53,52.97 118.53,118.38 0,65.47 -53.12,118.52 -118.53,118.52 -65.45,0 -118.5,-53.05 -118.5,-118.52 0,-65.41 53.05,-118.38 118.5,-118.38"
         style="fill:#2e3192;fill-opacity:1;fill-rule:nonzero;stroke:none"
         id="path20" /><path
         d="m 2621.26,1000.7 c 20.67,0 37.41,16.78 37.41,37.46 0,20.65 -16.74,37.33 -37.41,37.33 h -309.45 c -20.7,0 -37.44,-16.68 -37.44,-37.33 V 373.238 c 0,-20.699 16.74,-37.476 37.44,-37.476 h 309.45 c 20.67,0 37.41,16.777 37.41,37.476 0,20.621 -16.74,37.383 -37.41,37.383 h -272.07 v 272.598 h 242.19 c 20.65,0 37.38,16.781 37.38,37.406 0,20.625 -16.73,37.383 -37.38,37.383 H 2349.19 V 1000.7 h 272.07"
         style="fill:#2e3192;fill-opacity:1;fill-rule:nonzero;stroke:none"
         id="path22" /><path
         d="M 1577.59,1075.49 H 1168.1 c -20.66,0 -37.38,-16.68 -37.38,-37.33 0,-20.68 16.72,-37.46 37.38,-37.46 h 167.38 V 358.238 c 0,-20.629 16.7,-37.379 37.41,-37.379 20.62,0 37.44,16.75 37.44,37.379 V 1000.7 h 167.26 c 20.67,0 37.46,16.78 37.46,37.46 0,20.65 -16.79,37.33 -37.46,37.33"
         style="fill:#2e3192;fill-opacity:1;fill-rule:nonzero;stroke:none"
         id="path24" /><path
         d="m 3163.12,846.074 c 20.63,0 37.36,16.778 37.36,37.403 v 8.378 c 0,109.515 -89.04,198.635 -198.59,198.635 h -17.87 c -109.51,0 -198.63,-89.12 -198.63,-198.635 V 519.391 c 0,-109.43 89.12,-198.532 198.63,-198.532 h 17.87 c 109.55,0 198.59,89.102 198.59,198.532 v 8.457 c 0,20.625 -16.73,37.324 -37.36,37.324 -20.7,0 -37.42,-16.699 -37.42,-37.324 v -8.457 c 0,-68.262 -55.55,-123.75 -123.81,-123.75 h -17.87 c -68.26,0 -123.77,55.488 -123.77,123.75 v 372.464 c 0,68.262 55.51,123.775 123.77,123.775 h 17.87 c 68.26,0 123.81,-55.513 123.81,-123.775 v -8.378 c 0,-20.625 16.72,-37.403 37.42,-37.403"
         style="fill:#2e3192;fill-opacity:1;fill-rule:nonzero;stroke:none"
         id="path26" /><path
         d="m 4015,969.336 c -6.49,21.602 -13.93,44.644 -21.37,66.964 -1.92,5.52 -3.85,12 -5.53,17.52 h -0.23 c -1.68,-5.52 -3.84,-12.24 -5.77,-17.52 -7.19,-21.85 -14.39,-45.128 -20.87,-66.964 z m 16.07,-61.688 c -3.59,14.161 -7.44,29.766 -11.52,44.403 h -62.88 c -4.09,-14.637 -8.17,-30.242 -11.77,-44.403 h -22.32 c 16.09,59.52 34.09,114.972 54.01,167.542 h 24.48 c 21.6,-55.93 39.35,-112.338 54.24,-167.542 h -24.24"
         style="fill:#00adef;fill-opacity:1;fill-rule:nonzero;stroke:none"
         id="path28" /><path
         d="m 4149.8,911.965 c -11.04,-5.039 -21.6,-6.719 -30.96,-6.719 -35.05,0 -50.64,24.246 -50.64,61.445 0,42.249 21.35,65.529 52.79,65.529 9.84,0 19.69,-1.93 28.32,-6.49 l -4.79,-15.84 c -6.72,2.88 -14.41,5.04 -22.32,5.04 -22.32,0 -31.93,-18.719 -31.93,-46.082 0,-30.723 10.8,-45.84 32.17,-45.84 8.88,0 16.07,1.437 23.76,5.039 l 3.6,-16.082"
         style="fill:#00adef;fill-opacity:1;fill-rule:nonzero;stroke:none"
         id="path30" /><path
         d="m 4217.4,1015.66 c -21.36,0 -31.92,-18.969 -31.92,-45.609 0,-28.321 9.84,-48 32.64,-48 21.6,0 31.92,18.722 31.92,45.363 0,28.32 -9.83,48.246 -32.64,48.246 z m -0.48,-110.894 c -34.33,0 -53.53,24.004 -53.53,62.648 0,39.596 20.17,65.286 55.45,65.286 34.08,0 53.28,-24.01 53.28,-62.884 0,-39.367 -19.92,-65.05 -55.2,-65.05"
         style="fill:#00adef;fill-opacity:1;fill-rule:nonzero;stroke:none"
         id="path32" /><path
         d="m 4376.75,907.648 -2.39,17.762 c -11.77,-13.926 -22.57,-20.644 -38.41,-20.644 -28.08,0 -37.92,21.367 -37.92,46.808 v 78.486 h 20.89 v -74.169 c 0,-20.157 5.04,-33.606 21.11,-33.606 12.48,0 20.41,6.719 32.17,21.367 v 86.408 h 20.88 V 924.934 h 18.72 v -59.055 h -18.24 v 27.129 c 0,4.797 0,9.836 0.24,14.64 h -17.05"
         style="fill:#00adef;fill-opacity:1;fill-rule:nonzero;stroke:none"
         id="path34" /><path
         d="m 4509.33,907.648 -2.39,17.762 c -11.77,-13.926 -22.57,-20.644 -38.41,-20.644 -28.09,0 -37.92,21.367 -37.92,46.808 v 78.486 h 20.89 v -74.169 c 0,-20.157 5.04,-33.606 21.11,-33.606 12.48,0 20.41,6.719 32.17,21.367 v 86.408 h 20.88 V 907.648 h -16.33"
         style="fill:#00adef;fill-opacity:1;fill-rule:nonzero;stroke:none"
         id="path36" /><path
         d="m 4620.05,963.809 h -18.73 c -19.92,0 -29.52,-8.153 -29.52,-22.313 0,-12.492 6.73,-20.41 19.68,-20.41 11.52,0 19.92,6.484 28.57,15.359 z m 4.32,-56.161 -1.68,13.204 c -9.61,-9.602 -20.41,-16.086 -35.29,-16.086 -22.8,0 -37.2,12.961 -37.2,35.761 0,26.164 21.12,38.164 52.08,38.164 h 17.77 v 9.602 c 0,18.717 -6.25,27.837 -25.45,27.837 -10.32,0 -21.83,-2.63 -32.16,-7.19 l -4.08,16.08 c 11.52,4.8 25.92,7.68 39.6,7.68 31.93,0 42.73,-18 42.73,-40.325 v -84.727 h -16.32"
         style="fill:#00adef;fill-opacity:1;fill-rule:nonzero;stroke:none"
         id="path38" /><path
         d="m 4751.04,907.648 -2.39,17.762 c -11.77,-13.926 -22.57,-20.644 -38.41,-20.644 -28.09,0 -37.92,21.367 -37.92,46.808 v 78.486 h 20.88 v -74.169 c 0,-20.157 5.04,-33.606 21.11,-33.606 12.48,0 20.41,6.719 32.17,21.367 v 86.408 h 20.88 V 924.934 h 18.73 v -59.055 h -18.24 v 27.129 c 0,4.797 0,9.836 0.23,14.64 h -17.04"
         style="fill:#00adef;fill-opacity:1;fill-rule:nonzero;stroke:none"
         id="path40" /><path
         d="m 4883.61,907.648 -2.39,17.762 c -11.77,-13.926 -22.57,-20.644 -38.41,-20.644 -28.09,0 -37.92,21.367 -37.92,46.808 v 78.486 h 20.89 v -74.169 c 0,-20.157 5.04,-33.606 21.11,-33.606 12.48,0 20.41,6.719 32.17,21.367 v 86.408 h 20.88 V 907.648 h -16.33"
         style="fill:#00adef;fill-opacity:1;fill-rule:nonzero;stroke:none"
         id="path42" /><path
         d="m 4975.29,974.133 h 17.05 v 41.047 c -4.81,0.48 -11.29,1.2 -16.56,1.2 -20.89,0 -26.65,-10.57 -26.65,-21.368 0,-11.516 7.19,-20.879 26.16,-20.879 z m -54.48,-66.485 31.2,54.961 c -15.61,4.559 -24.96,15.606 -24.96,31.688 0,23.043 17.04,37.673 50.16,37.673 11.52,0 24,-0.95 36.24,-1.91 V 907.648 h -21.11 v 51.602 h -19.69 l -27.84,-51.602 h -24"
         style="fill:#00adef;fill-opacity:1;fill-rule:nonzero;stroke:none"
         id="path44" /><path
         d="m 5181.21,907.648 v 55.926 h -54.01 v -55.926 h -20.88 v 122.412 h 20.88 v -49.208 h 54.01 v 49.208 h 20.88 V 907.648 h -20.88"
         style="fill:#00adef;fill-opacity:1;fill-rule:nonzero;stroke:none"
         id="path46" /><path
         d="m 5296.97,963.809 h -18.73 c -19.92,0 -29.52,-8.153 -29.52,-22.313 0,-12.492 6.72,-20.41 19.67,-20.41 11.53,0 19.93,6.484 28.58,15.359 z m 4.31,-56.161 -1.68,13.204 c -9.6,-9.602 -20.41,-16.086 -35.29,-16.086 -22.79,0 -37.2,12.961 -37.2,35.761 0,26.164 21.13,38.164 52.08,38.164 h 17.78 v 9.602 c 0,18.717 -6.25,27.837 -25.45,27.837 -10.32,0 -21.84,-2.63 -32.17,-7.19 l -4.07,16.08 c 11.51,4.8 25.92,7.68 39.6,7.68 31.92,0 42.72,-18 42.72,-40.325 v -84.727 h -16.32"
         style="fill:#00adef;fill-opacity:1;fill-rule:nonzero;stroke:none"
         id="path48" /><path
         d="m 3958.82,619.488 c -8.88,0 -21.36,0.957 -32.88,3.36 v 16.328 c 10.56,-1.211 22.32,-1.68 32.65,-1.68 26.4,0 38.4,12.481 38.4,30.957 0,24.727 -20.65,31.442 -40.08,31.442 h -18.49 v 17.527 h 17.77 c 24.72,0 36.72,12.961 36.72,30.48 0,15.36 -8.64,26.161 -27.85,26.161 -10.07,0 -22.08,-2.637 -33.6,-7.918 l -2.4,17.039 c 12.24,5.039 25.68,8.644 40.33,8.644 30.23,0 46.56,-17.043 46.56,-41.289 0,-19.434 -12,-34.797 -30,-39.844 v -0.48 c 20.16,-2.391 34.55,-18.481 34.55,-40.805 0,-30.957 -22.56,-49.922 -61.68,-49.922"
         style="fill:#00adef;fill-opacity:1;fill-rule:nonzero;stroke:none"
         id="path50" /><path
         d="m 4110.62,677.809 h -18.71 c -19.92,0 -29.53,-8.145 -29.53,-22.305 0,-12.5 6.72,-20.41 19.69,-20.41 11.52,0 19.92,6.484 28.55,15.351 z m 4.33,-56.153 -1.69,13.203 c -9.59,-9.609 -20.39,-16.093 -35.28,-16.093 -22.8,0 -37.2,12.968 -37.2,35.761 0,26.172 21.12,38.164 52.09,38.164 h 17.75 v 9.606 c 0,18.719 -6.23,27.84 -25.44,27.84 -10.32,0 -21.85,-2.637 -32.16,-7.196 l -4.08,16.082 c 11.52,4.797 25.92,7.676 39.6,7.676 31.92,0 42.72,-17.996 42.72,-40.32 v -84.723 h -16.31"
         style="fill:#00adef;fill-opacity:1;fill-rule:nonzero;stroke:none"
         id="path52" /><path
         d="m 4181.23,704.941 c 0,-5.765 0,-14.398 0,-19.437 0,-35.762 9.84,-49.453 28.57,-49.453 17.75,0 30.47,14.648 30.47,41.054 0,21.348 -9.36,33.833 -29.03,33.833 -9.6,0 -20.41,-2.403 -30.01,-5.997 z m 0,16.321 c 10.08,3.601 22.81,6.961 36.97,6.238 11.03,10.324 16.07,21.848 16.07,34.805 0,14.394 -6.48,23.761 -21.6,23.761 -21.6,0 -31.2,-25.441 -31.44,-64.804 z m 54.97,2.402 c 12.23,-4.805 25.92,-17.766 25.92,-44.176 0,-38.867 -22.32,-60.468 -54,-60.468 -30.25,0 -48.01,19.433 -48.01,66.23 v 31.93 c 0,52.09 17.29,85.925 54.01,85.925 27.36,0 41.03,-15.359 41.03,-37.917 0,-18.008 -7.91,-31.204 -18.95,-41.524"
         style="fill:#00adef;fill-opacity:1;fill-rule:nonzero;stroke:none"
         id="path54" /><path
         d="m 4343.92,685.25 c -5.76,0 -11.76,-0.723 -17.27,-1.914 v -22.559 c 0,-18.007 7.44,-25.195 21.84,-25.195 13.67,0 23.75,8.633 23.75,25.195 0,15.84 -9.11,24.473 -28.32,24.473 z m -38.4,42.496 h -31.92 v 16.317 h 53.05 V 699.66 c 5.76,1.199 12.48,1.922 19.67,1.922 35.53,0 47.78,-17.289 47.78,-39.359 0,-27.618 -20.65,-42.969 -48.01,-42.969 -24.24,0 -40.57,12.246 -40.57,38.887 v 69.605"
         style="fill:#00adef;fill-opacity:1;fill-rule:nonzero;stroke:none"
         id="path56" /><path
         d="m 4468.94,729.426 c -11.03,0 -19.44,-5.285 -32.17,-21.848 v -66 c 6.97,-3.125 14.65,-5.039 24.25,-5.039 22.08,0 32.65,18.242 32.65,48.965 0,22.074 -5.04,43.922 -24.73,43.922 z m -8.4,-109.449 c -8.64,0 -16.56,1.191 -23.77,2.636 v -50.879 h -20.88 v 172.329 h 16.33 l 1.68,-18.485 c 11.52,14.16 22.79,21.121 39.12,21.121 30.48,0 42.96,-26.883 42.96,-59.515 0,-36.25 -16.81,-67.207 -55.44,-67.207"
         style="fill:#00adef;fill-opacity:1;fill-rule:nonzero;stroke:none"
         id="path58" /><path
         d="m 4562.91,744.063 v -74.165 c 0,-20.156 3.11,-33.613 18.23,-33.613 11.77,0 18.48,6.719 29.52,21.367 v 86.411 h 20.88 v -74.165 c 0,-19.921 3.12,-33.613 18.24,-33.613 11.77,0 18.49,6.719 29.77,21.367 v 86.411 h 20.87 V 621.656 h -16.31 l -2.4,17.989 c -10.56,-13.907 -20.88,-20.879 -36.01,-20.879 -16.31,0 -26.4,7.929 -31.19,22.558 -11.77,-15.84 -22.33,-22.558 -37.44,-22.558 -27.37,0 -35.05,21.367 -35.05,46.816 v 78.481 h 20.89"
         style="fill:#00adef;fill-opacity:1;fill-rule:nonzero;stroke:none"
         id="path60" /><path
         d="m 4812.07,621.656 -2.41,17.754 c -11.75,-13.926 -22.56,-20.644 -38.4,-20.644 -28.08,0 -37.93,21.367 -37.93,46.816 v 78.481 h 20.89 v -74.165 c 0,-20.156 5.04,-33.613 21.13,-33.613 12.48,0 20.4,6.719 32.15,21.367 v 86.411 h 20.89 V 621.656 h -16.32"
         style="fill:#00adef;fill-opacity:1;fill-rule:nonzero;stroke:none"
         id="path62" /><path
         d="m 4850.68,621.656 c 9.83,40.801 22.56,81.606 38.16,122.407 h 22.32 c 15.59,-41.29 28.33,-81.84 37.92,-122.407 h -21.84 c -6.96,28.789 -14.65,56.153 -23.28,82.797 -1.92,5.527 -3.6,11.77 -5.04,17.285 h -0.24 c -1.44,-5.515 -3.36,-12 -5.04,-17.285 -8.64,-27.113 -16.32,-54.711 -22.33,-82.797 h -20.63"
         style="fill:#00adef;fill-opacity:1;fill-rule:nonzero;stroke:none"
         id="path64" /><path
         d="m 5046.57,621.656 -2.4,17.754 c -11.76,-13.926 -22.56,-20.644 -38.4,-20.644 -28.09,0 -37.92,21.367 -37.92,46.816 v 78.481 h 20.88 v -74.165 c 0,-20.156 5.03,-33.613 21.11,-33.613 12.48,0 20.41,6.719 32.17,21.367 v 86.411 h 20.88 V 621.656 h -16.32"
         style="fill:#00adef;fill-opacity:1;fill-rule:nonzero;stroke:none"
         id="path66" /><path
         d="m 5234.35,621.656 v 74.16 c 0,19.926 -3.12,33.364 -18.73,33.364 -11.99,0 -18.48,-6.719 -29.51,-21.121 v -86.403 h -20.89 v 74.16 c 0,19.926 -3.12,33.364 -18.72,33.364 -12,0 -18.24,-6.719 -29.52,-21.121 v -86.403 h -20.89 v 122.407 h 16.33 l 2.16,-18.008 c 11.04,13.683 20.64,20.644 36,20.644 16.56,0 26.88,-7.676 31.92,-22.558 11.76,15.839 21.61,22.558 37.2,22.558 27.61,0 35.53,-21.121 35.53,-46.804 v -78.239 h -20.88"
         style="fill:#00adef;fill-opacity:1;fill-rule:nonzero;stroke:none"
         id="path68" /><path
         d="m 5358.45,694.859 c 0.72,22.086 -8.41,36 -25.45,36 -20.15,0 -28.56,-18.718 -29.27,-36 z m 20.88,-14.882 h -75.37 c 0,-27.364 8.16,-43.926 34.08,-43.926 13.93,0 24.48,2.168 35.53,5.527 l 2.64,-16.094 c -11.76,-4.082 -25.92,-6.718 -41.53,-6.718 -35.76,0 -52.8,21.367 -52.8,63.379 0,39.593 18.49,64.554 52.32,64.554 31.93,0 45.37,-22.558 45.37,-54.73 0,-2.383 -0.24,-8.145 -0.24,-11.992"
         style="fill:#00adef;fill-opacity:1;fill-rule:nonzero;stroke:none"
         id="path70" /><path
         d="M 3985.95,485.172 V 335.641 h -21.84 v 149.531 h -44.41 v 18.008 h 110.65 v -18.008 h -44.4"
         style="fill:#00adef;fill-opacity:1;fill-rule:nonzero;stroke:none"
         id="path72" /><path
         d="m 4167.32,503.18 c -12.73,-40.078 -27.13,-79.918 -43.69,-120.489 -16.8,-41.761 -24.96,-49.203 -47.52,-49.203 -5.28,0 -11.28,0.961 -16.08,1.922 v 17.031 h 12.95 c 12.74,0 17.53,3.848 26.18,24.981 -20.65,40.797 -39.61,83.277 -55.93,125.758 h 24 c 11.76,-31.914 25.68,-65.293 39.84,-94.809 l 3.12,-7.922 h 0.24 l 1.93,6.012 c 11.27,30.723 22.79,64.805 32.16,96.719 h 22.8"
         style="fill:#00adef;fill-opacity:1;fill-rule:nonzero;stroke:none"
         id="path74" /><path
         d="M 4188.06,335.641 V 503.18 h 83.29 v -17.754 h -61.44 v -53.77 h 53.52 v -17.777 h -53.52 v -60.231 h 62.41 v -18.007 h -84.26"
         style="fill:#00adef;fill-opacity:1;fill-rule:nonzero;stroke:none"
         id="path76" /><path
         d="m 4400.09,343.082 c -11.29,-5.762 -25.2,-9.594 -39.36,-9.594 -43.21,0 -69.6,29.512 -69.6,83.774 0,54.238 26.87,88.086 69.84,88.086 14.16,0 26.4,-2.891 38.4,-9.121 l -6.96,-17.051 c -9.84,4.804 -19.92,7.441 -31.44,7.441 -30.01,0 -46.33,-27.597 -46.33,-67.207 0,-43.93 18.48,-66.969 49.2,-66.969 11.29,0 22.09,3.379 30.49,7.688 l 5.76,-17.047"
         style="fill:#00adef;fill-opacity:1;fill-rule:nonzero;stroke:none"
         id="path78" /><path
         d="m 3570.46,0 h -21.54 v 1411.33 h 21.54 V 0"
         style="fill:#00adef;fill-opacity:1;fill-rule:nonzero;stroke:none"
         id="path80" /><path
         d="m 2137.67,1087.03 c -19.78,8.87 -43.03,-0.01 -51.87,-19.8 L 1929.68,718.332 1773.59,1067.23 c -8.87,19.79 -32.09,28.67 -51.9,19.8 -19.8,-8.85 -28.67,-32.09 -19.8,-51.88 L 1886.66,622.164 1776.62,376.191 c -8.87,-19.812 0,-43.031 19.8,-51.902 5.22,-2.32 10.66,-3.43 16.02,-3.43 15.02,0 29.35,8.672 35.88,23.262 l 309.18,691.029 c 8.84,19.79 -0.02,43.03 -19.83,51.88"
         style="fill:#2e3192;fill-opacity:1;fill-rule:nonzero;stroke:none"
         id="path82" /></g></g></svg>
