<?xml version="1.0" encoding="utf-8"?>
<!-- Generator: Adobe Illustrator 24.3.0, SVG Export Plug-In . SVG Version: 6.00 Build 0)  -->
<svg version="1.1" id="Layer_1" xmlns="http://www.w3.org/2000/svg" xmlns:xlink="http://www.w3.org/1999/xlink" x="0px" y="0px"
	 viewBox="0 0 389.87 227.31" style="enable-background:new 0 0 389.87 227.31;" xml:space="preserve">
<style type="text/css">
	.st0{opacity:0.87;}
</style>
<g>
	<g>
		<g class="st0">
			<path d="M77.04,188.57c0,6.34-1.64,11.64-4.85,15.75c-3.21,4.11-7.54,6.12-13.13,6.12c-3.28,0-6.2-0.9-8.66-2.76l-0.97,1.94
				h-7.61l7.31-52.02h10.08l-3.36,23.88c3.21-3.51,6.94-5.22,11.05-5.22C73.54,176.26,77.04,181.11,77.04,188.57z M66.6,190.89
				c0-4.33-1.42-6.49-4.18-6.49c-3.28,0-5.9,1.94-7.84,5.9l-1.57,11.19c1.72,0.97,3.43,1.42,5.22,1.42
				C63.69,202.9,66.6,197.98,66.6,190.89z"/>
			<path d="M80.18,196.41c0-5.9,1.79-10.67,5.45-14.48c3.66-3.81,8.51-5.67,14.4-5.67c9.18,0,14.63,5,14.63,13.66
				c0,5.9-1.79,10.82-5.45,14.7c-3.66,3.88-8.36,5.82-14.25,5.82C85.7,210.44,80.18,205.14,80.18,196.41z M101.9,199.4
				c1.49-2.31,2.24-5,2.24-8.21c0-4.7-2.01-7.24-5.37-7.24c-2.54,0-4.55,1.12-5.97,3.36c-1.42,2.24-2.09,4.93-2.09,7.99
				c0,4.78,2.09,7.46,5.45,7.46C98.54,202.75,100.48,201.63,101.9,199.4z"/>
			<path d="M117.95,196.41c0-5.9,1.79-10.67,5.45-14.48c3.66-3.81,8.51-5.67,14.4-5.67c9.18,0,14.63,5,14.63,13.66
				c0,5.9-1.79,10.82-5.45,14.7s-8.36,5.82-14.25,5.82C123.47,210.44,117.95,205.14,117.95,196.41z M139.67,199.4
				c1.49-2.31,2.24-5,2.24-8.21c0-4.7-2.01-7.24-5.37-7.24c-2.54,0-4.55,1.12-5.97,3.36c-1.42,2.24-2.09,4.93-2.09,7.99
				c0,4.78,2.09,7.46,5.45,7.46C136.31,202.75,138.25,201.63,139.67,199.4z"/>
			<path d="M155.71,196.41c0-5.9,1.79-10.67,5.45-14.48c3.66-3.81,8.51-5.67,14.4-5.67c9.18,0,14.63,5,14.63,13.66
				c0,5.9-1.79,10.82-5.45,14.7c-3.66,3.88-8.36,5.82-14.25,5.82C161.24,210.44,155.71,205.14,155.71,196.41z M177.43,199.4
				c1.49-2.31,2.24-5,2.24-8.21c0-4.7-2.01-7.24-5.37-7.24c-2.54,0-4.55,1.12-5.97,3.36c-1.42,2.24-2.09,4.93-2.09,7.99
				c0,4.78,2.09,7.46,5.45,7.46C174.07,202.75,176.01,201.63,177.43,199.4z"/>
			<path d="M192.29,205.81l3.88-6.79c2.31,2.39,6.49,4.48,10.45,4.48c2.99,0,4.78-1.12,4.78-2.61c0-0.67-0.45-1.19-1.42-1.72
				c-0.97-0.52-3.06-1.49-6.42-2.76c-5.37-2.02-8.06-5.22-8.06-9.55c0-3.28,1.27-5.9,3.88-7.76c2.61-1.87,5.9-2.84,9.85-2.84
				c3.73,0,6.79,0.82,9.25,2.46c2.46,1.57,3.66,3.88,3.58,6.79l-7.39,2.02c-0.08-3.28-2.76-4.55-5.67-4.55
				c-2.39,0-4.25,0.9-4.25,2.69c0,1.72,1.87,2.76,6.04,4.25c3.28,1.19,4.93,1.94,7.02,3.43c2.09,1.49,3.06,3.43,3.06,6.12
				c0,3.36-1.42,5.97-4.25,7.99c-2.76,2.02-6.34,2.99-10.67,2.99C199.15,210.44,194.38,208.13,192.29,205.81z"/>
			<path d="M239.23,184.84l-1.57,10.97c-0.07,1.12-0.15,1.87-0.15,2.31c0,2.99,1.19,4.4,4.25,4.4c2.31,0,4.55-0.6,6.64-1.79
				l-0.52,7.31c-2.54,1.57-5.97,2.39-10.37,2.39c-6.94,0-10.45-3.21-10.45-9.55c0-0.82,0.07-1.72,0.22-2.69l1.87-13.36h-4.55
				l1.04-7.69h4.63l1.12-8.13l10.3-0.9l-1.34,9.03h9.93l-0.97,7.69H239.23z"/>
			<path d="M254.53,205.44c0-1.87,0.67-3.43,2.09-4.78c1.42-1.42,2.99-2.09,4.78-2.09c2.99,0,5.15,2.16,5.15,5.08
				c0,3.66-3.21,6.79-6.87,6.79C256.7,210.44,254.53,208.43,254.53,205.44z"/>
			<path d="M309.98,188.57c0,6.34-1.64,11.64-4.85,15.75c-3.21,4.11-7.54,6.12-13.14,6.12c-3.28,0-6.19-0.9-8.66-2.76l-0.97,1.94
				h-7.61l7.31-52.02h10.08l-3.36,23.88c3.21-3.51,6.94-5.22,11.05-5.22C306.48,176.26,309.98,181.11,309.98,188.57z M299.54,190.89
				c0-4.33-1.42-6.49-4.18-6.49c-3.28,0-5.9,1.94-7.84,5.9l-1.57,11.19c1.72,0.97,3.43,1.42,5.22,1.42
				C296.62,202.9,299.54,197.98,299.54,190.89z"/>
			<path d="M339.76,177.16h8.21l-4.55,33.51c-1.49,10.97-9.11,16.64-20.52,16.64c-5.08,0-9.78-1.49-11.94-3.51l3.21-7.61
				c2.61,2.24,5.52,3.36,8.73,3.36c6.19,0,9.7-3.06,10.37-9.11l0.67-5c-3.21,3.36-6.87,5-10.9,5c-6.57,0-10.08-4.85-10.08-12.24
				c0-6.42,1.57-11.64,4.78-15.75c3.21-4.1,7.61-6.19,13.21-6.19c2.99,0,5.67,0.75,7.99,2.31L339.76,177.16z M335.06,197.01
				l1.64-11.94c-1.72-0.82-3.36-1.27-5-1.27c-5.37,0-8.36,5-8.36,12.09c0,4.33,1.42,6.49,4.25,6.49
				C330.66,202.38,333.12,200.59,335.06,197.01z"/>
		</g>
		<g class="st0">
			<path d="M0,71.41c0-20.9,6.35-37.82,19.31-51.31C32.27,6.61,49.46,0,70.36,0c32.53,0,51.84,17.72,51.84,48.4
				c0,20.9-6.35,38.35-19.31,52.11s-29.62,20.63-50.52,20.63C19.57,121.14,0,102.36,0,71.41z M76.97,81.99
				c5.29-8.2,7.94-17.72,7.94-29.09c0-16.66-7.14-25.66-19.04-25.66c-8.99,0-16.13,3.97-21.16,11.9s-7.41,17.46-7.41,28.3
				c0,16.93,7.41,26.45,19.31,26.45C65.07,93.9,71.94,89.93,76.97,81.99z"/>
			<path d="M133.83,71.41c0-20.9,6.35-37.82,19.31-51.31S183.29,0,204.19,0c32.53,0,51.84,17.72,51.84,48.4
				c0,20.9-6.35,38.35-19.31,52.11c-12.96,13.75-29.62,20.63-50.52,20.63C153.41,121.14,133.83,102.36,133.83,71.41z M210.8,81.99
				c5.29-8.2,7.93-17.72,7.93-29.09c0-16.66-7.14-25.66-19.04-25.66c-8.99,0-16.13,3.97-21.16,11.9s-7.41,17.46-7.41,28.3
				c0,16.93,7.41,26.45,19.31,26.45C198.9,93.9,205.78,89.93,210.8,81.99z"/>
			<path d="M267.67,71.41c0-20.9,6.35-37.82,19.31-51.31S317.13,0,338.02,0c32.53,0,51.84,17.72,51.84,48.4
				c0,20.9-6.35,38.35-19.31,52.11c-12.96,13.75-29.62,20.63-50.52,20.63C287.24,121.14,267.67,102.36,267.67,71.41z M344.64,81.99
				c5.29-8.2,7.93-17.72,7.93-29.09c0-16.66-7.14-25.66-19.04-25.66c-8.99,0-16.13,3.97-21.16,11.9s-7.41,17.46-7.41,28.3
				c0,16.93,7.41,26.45,19.31,26.45C332.73,93.9,339.61,89.93,344.64,81.99z"/>
		</g>
	</g>
</g>
</svg>
