<?xml version="1.0" encoding="UTF-8" standalone="no"?>
<svg
   xmlns:dc="http://purl.org/dc/elements/1.1/"
   xmlns:cc="http://creativecommons.org/ns#"
   xmlns:rdf="http://www.w3.org/1999/02/22-rdf-syntax-ns#"
   xmlns:svg="http://www.w3.org/2000/svg"
   xmlns="http://www.w3.org/2000/svg"
   xmlns:sodipodi="http://sodipodi.sourceforge.net/DTD/sodipodi-0.dtd"
   xmlns:inkscape="http://www.inkscape.org/namespaces/inkscape"
   version="1.1"
   id="svg2"
   xml:space="preserve"
   width="816.02667"
   height="66.666664"
   viewBox="0 0 816.02667 66.666664"
   sodipodi:docname="Chaos_Group_logo_b.eps"><metadata
     id="metadata8"><rdf:RDF><cc:Work
         rdf:about=""><dc:format>image/svg+xml</dc:format><dc:type
           rdf:resource="http://purl.org/dc/dcmitype/StillImage" /></cc:Work></rdf:RDF></metadata><defs
     id="defs6" /><sodipodi:namedview
     pagecolor="#ffffff"
     bordercolor="#666666"
     borderopacity="1"
     objecttolerance="10"
     gridtolerance="10"
     guidetolerance="10"
     inkscape:pageopacity="0"
     inkscape:pageshadow="2"
     inkscape:window-width="640"
     inkscape:window-height="480"
     id="namedview4" /><g
     id="g10"
     inkscape:groupmode="layer"
     inkscape:label="ink_ext_XXXXXX"
     transform="matrix(1.3333333,0,0,-1.3333333,0,66.666667)"><g
       id="g12"
       transform="scale(0.1)"><path
         d="m 5963.83,273.281 c -2.78,-8.051 -8.34,-14.336 -15.77,-18.304 -6.05,-3.211 -12.98,-4.801 -20.35,-5.7 -7.96,-0.449 -29.04,-1.211 -62.71,-1.211 H 5675.51 V 371.105 H 5865 c 45.38,-0.425 72.27,-2.109 78.48,-4.847 9.34,-3.434 15.44,-9.149 19.14,-17.383 3.48,-8.074 5.63,-20.527 5.63,-37.555 0,-17.222 -1.82,-29.894 -4.42,-38.039 M 4771.6,173.301 c -3.37,-12.852 -9.27,-22.633 -17.95,-29.297 -9.53,-7.246 -24.59,-11.934 -44.78,-14.176 -20.11,-2.18 -60.51,-3.277 -121.67,-3.277 -65.27,0 -109.02,1.437 -131.71,4.375 -30.16,3.547 -48.79,17.539 -54.72,42.039 -2.89,13.594 -4.73,34.949 -4.73,64.558 0,48.903 3.23,82.098 8.93,98.297 5.92,16.395 18.07,27.004 36.74,31.493 16.22,4.375 64.45,6.082 144.89,6.082 70.16,0 114.8,-1.032 133.11,-3.633 18.39,-2.449 31.61,-9.039 39.79,-19.492 6.42,-8.008 10.72,-20.372 13.26,-36.77 2.22,-16.531 3.59,-41.992 3.59,-76.895 0,-29.183 -1.72,-50.273 -4.75,-63.304 M 4280.85,152.82 c -9.91,21.289 -42.84,40.516 -85.51,42.891 42.91,3.453 83.67,24.699 92.15,45.539 -8.48,-31.477 -29.54,-38.387 -37.28,-44.152 18.64,-11.778 24.76,-22.989 30.64,-44.278 M 4131.4,277.926 c -2.71,-8.008 -7.33,-13.914 -13.97,-18.215 -5.05,-3.164 -11.06,-4.734 -18.06,-5.789 -7.18,-0.203 -29.11,-1.012 -66.22,-1.457 h -213.32 v 118.64 h 213.08 c 34.5,0 55.88,-0.335 63.07,-0.515 7.32,-0.828 13.7,-2.067 19.18,-4.461 7.37,-3.367 12.66,-9.289 15.31,-17.254 3.32,-7.875 4.77,-19.652 4.77,-35.375 0,-15.77 -1.35,-28.199 -3.84,-35.574 m -462.65,4.617 h -326.84 v -97.016 h 199.24 c 0,-7.023 0.14,-11.418 0.14,-13.773 0,-13.664 -1.39,-24.293 -4.62,-31.297 -2.89,-6.996 -7.85,-11.891 -15.21,-14.711 -9.04,-3.926 -20.82,-6.129 -35.67,-6.91 -14.87,-0.539 -56.64,-1.484 -125.44,-1.684 -70.36,1.012 -112.32,2.223 -125.32,3.278 -13.22,1.343 -24.01,5.316 -32.22,11.64 -8.36,6.571 -14.02,17.785 -16.82,34.164 -2.76,16.215 -4.51,44.887 -4.51,85.895 0,36.586 1.75,62.133 4.51,77.324 2.8,14.961 8.46,26.063 16.82,32.387 8.21,6.683 23.65,11.129 46.14,13.48 22.26,2.36 59.6,3.547 111.94,3.547 48.35,0 85.15,-1.008 110.7,-2.199 26.84,-1.348 44.48,-4.98 53.12,-11.414 4.64,-2.871 7.77,-7.274 9.07,-12.027 1.14,-5.071 2.3,-14.512 2.3,-28.309 h 132.67 z m 2425.46,160.078 c -17.03,24.317 -50.18,39.633 -99.67,46.301 -19.34,2.488 -62.94,3.699 -130.37,3.699 H 5399.15 V 270.004 c 0,-14.02 -0.89,-32.055 -2.2,-53.57 -1.25,-21.758 -2.71,-36.672 -5.14,-45.399 -2.46,-8.812 -6.38,-15.859 -11.88,-22.57 -8.84,-8.34 -23.13,-14.242 -43.25,-17.539 -20.43,-2.938 -56.35,-4.375 -109.34,-4.375 -64.24,0 -107.06,3.164 -128.33,8.926 -21.38,5.906 -34.28,18.554 -37.91,37.355 -3.08,13.5 -4.71,45.895 -5.6,97.172 v 222.617 h -140.28 c 4.89,-16.195 21.58,-75.73 16.58,-153.394 -2.06,41.863 -33.36,139.394 -124.43,153.191 -40.21,5.859 -113.91,7.582 -221.45,7.582 -107.17,0 -275.48,-21.621 -293.63,-36.477 5.66,-28.085 7.63,-67.363 4.28,-116.375 0,32.391 -9.08,68.825 -33.89,99.844 -25.73,31.293 -64.29,38.719 -93.42,41.793 -16.92,1.391 -48.58,3.633 -134.6,3.836 h -361.71 c 7.42,-18.891 20.74,-63.953 16.24,-130.238 -2.04,38.672 -23.85,80.078 -55.33,100.941 -32.46,21.965 -74.71,29.094 -111.24,31.696 -36.4,3.257 -85.86,4.98 -148.92,4.98 -105.16,0 -183.4,-4.172 -234.03,-13.281 -25.38,-4.301 -45.9,-12.989 -61.83,-26.489 4.51,-26.765 6.85,-63.82 0,-109.019 -1.97,34.746 -12.94,67.363 -20.3,85.711 -3.48,-5.652 -6.59,-11.688 -9.35,-18.348 -6.98,-17.656 -11.73,-38.25 -14.11,-60.594 -2.67,-22.585 -3.7,-55.609 -3.7,-100.292 0,-65.25 1.37,-108.836 4.51,-131.047 2.78,-23.532 8.21,-42.6879 15.47,-56.9301 2.43,-4.8945 5.86,-9.1992 9.32,-13.2382 4.3,7.4257 19.04,36.3867 21.8,79.0043 4.37,-46.2973 1.5,-77.9067 -2.76,-98.1606 l 4.26,-3.543 c 20.26,-12.9882 48.37,-22.207 84.05,-26.71871 35.2,-4.63672 95.72,-6.9960962 181.07,-6.9960962 67.4,0 117.3,1.2539062 150.33,2.8281262 79.9,3.5 123.55,19.60158 146.83,43.38278 30.68,31.2227 49.01,75.5505 50.27,99.6645 3.48,-76.3598 -20.86,-126.1801 -27.34,-138.62931 h 151.64 V 130.926 h 213.98 c 31.11,0 51.61,-0.871 61.72,-2.223 9.74,-1.746 17.21,-4.867 22.93,-10.879 5.61,-6.371 9.47,-14.984 11.66,-26.3982 1.51,-11.4219 2.72,-30.9141 2.72,-57.8516 V 7.30469 h 167.08 c -7.23,21.96091 -14.39,55.16011 -12.12,99.50831 2.52,-40.8482 34.59,-93.7427 96.28,-100.94581 42.42,-4.886721 110.37,-5.8085962 203.75,-5.8085962 105.74,0 180.29,-1.2812538 219.54,8.1640662 112.38,26.15624 122.37,135.35534 123.43,162.47234 8.27,-43.132 2.44,-82.6794 -1.42,-105.5387 15.55,-25.125 41.1,-41.9922 76.72,-50.3829 24.04,-5.31637 51.92,-9.06246 84.68,-11.35152 32.86,-2.39844 78.6,-3.3632862 138.72,-3.3632862 79.7,0 136.85,1.9257862 172.03,5.8085962 35.3,3.72656 59.2,11.39841 78.15,22.61331 38.02,22.6328 68.98,78.2425 69.93,135.0825 11.14,-60.723 -2.2,-123.5317 -11.49,-156.25831 h 137.39 V 126.551 h 189.96 c 59.15,0 99.35,1.097 120.86,3.504 30.6,3.273 54.38,9.129 71.9,17.742 17.29,8.769 30.96,21.332 40.58,37.617 14.24,23.688 21.42,65.945 21.42,125.906 0,62.996 -8.57,106.805 -26.02,131.301"
         style="fill:#100f0d;fill-opacity:1;fill-rule:nonzero;stroke:none"
         id="path14" /><path
         d="m 2599.67,303.008 c -71.83,-9.668 -108.35,-73.399 -108.35,-140.582 -8.81,81.179 16.98,134.547 24.63,148.14 -0.54,10.61 -0.99,20.727 -1.68,29.883 h 134.35 c 0.44,12.895 1.59,22.321 3.32,26.867 1.56,5.051 5.4,9.133 10.61,12.231 6.32,3.699 17.67,5.965 33.69,6.996 16.11,0.785 50.42,1.598 102.65,1.598 62.89,0 101.37,-2.18 115.07,-5.657 13.8,-3.793 20.71,-14.625 20.71,-32.211 0,-16.402 -6.91,-26.808 -20.71,-30.195 -11.37,-3.07 -63.82,-6.035 -157.02,-8.769 -78.45,-2.223 -130.98,-4.465 -157.27,-8.301 M 2364.06,177.387 c -2.78,-12.34 -8.7,-21.824 -17.49,-27.992 -9.04,-7.45 -23.71,-12.09 -43.43,-13.907 -19.65,-2.16 -59.22,-3.3 -118.48,-3.3 -63.31,0 -106.09,1.277 -128.03,4.441 -29.52,3.07 -47.59,16.871 -53.65,40.758 -3.12,13.125 -4.51,34.078 -4.51,62.769 0,47.555 2.83,79.582 8.64,95.649 5.56,16.195 17.67,26.019 35.89,30.82 15.63,4.059 62.6,6.211 140.91,6.211 68.58,0 112.05,-1.723 129.89,-3.832 18.05,-2.738 31.09,-8.75 38.51,-18.82 6.13,-8.168 10.61,-20.059 12.9,-36.141 2.33,-15.836 3.54,-40.758 3.54,-74.406 0,-28.602 -1.43,-49.461 -4.69,-62.25 M 603.695,198.32 H 471.969 c -0.785,-29.523 -5.293,-48.457 -14.153,-56.375 -6.687,-6.371 -19.562,-10.496 -38.066,-12.113 -18.957,-1.84 -56.73,-3.207 -113.508,-3.207 -45.961,0 -77.949,1.367 -95.738,3.434 -18.328,2.129 -31.387,6.57 -39.594,12.671 -9.019,6.665 -14.961,17.118 -17.812,31.715 -3.184,14.586 -4.801,39.977 -4.801,75.848 0,36.023 1.617,62.293 5.164,78.734 3.633,16.266 9.418,27.817 18.437,34.86 7.219,5.789 19.602,9.492 37.821,11.601 17.476,2.106 49.484,3.203 95.582,3.203 46.347,0 81.449,-1.097 104.422,-3.367 23.195,-2.375 37.461,-5.918 42.91,-10.629 4.238,-3.406 6.824,-7.851 8.121,-13.414 1.254,-5.383 2.309,-16.195 3.344,-31.543 H 603.695 Z M 2938.48,172.586 c 0,-23.191 -4.46,-38.359 -14.74,-45.285 -7.06,-4.645 -16.11,-6.867 -27.7,-7.922 -10.94,-0.676 -46.55,-1.211 -106.42,-2.016 -62.74,0 -100.29,0.918 -112.63,1.34 -12.94,0.676 -22.72,2.402 -29.97,5.477 -11.01,4.304 -16.53,16.195 -16.53,35.668 0,14.132 3.88,23.461 11.49,28.418 7.93,4.312 23.41,7.425 47.35,7.605 18.26,0 56.82,1.684 115.99,4.508 60.64,2.492 99.72,4.176 118.04,4.758 35.78,1.011 63.24,4.531 81.97,9.871 19.58,5.312 34.07,14.332 44.98,26.308 18.43,20.551 27.45,54.403 27.45,102.567 0,53.269 -10.77,90.89 -31.42,112.851 -15.98,17.25 -40.32,28.559 -73.2,32.727 -33.18,5.094 -100.34,7.473 -201.19,7.473 -71.47,0 -121.65,-2.11 -150.61,-5.743 -44.6,-5.898 -75.08,-18.461 -91.7,-36.855 -11.6,-12.766 -19.21,-32.461 -22.57,-57.922 -0.88,4.715 -1.91,9.152 -3.19,13.234 -12.69,45.536 -47.46,71.332 -104.26,79.008 -39.32,4.887 -111.42,7.266 -216.02,7.266 -105.03,0 -176.9,-2.379 -215.98,-7.266 -56.57,-7.676 -91.34,-33.472 -104.17,-79.008 -8.59,-30.777 -13.03,-82.324 -13.03,-154.511 0,-28.285 0.45,-53.614 1.46,-76.176 l -166.16,310.5 H 1456.29 L 1248.82,106.816 V 489.461 H 1093.47 V 319.738 H 758.449 V 489.461 H 603.695 v -0.449 c 4.754,-15.028 15.297,-56.84 12.332,-126.625 -1.433,22.004 -14.199,83.691 -64.062,112.695 -15.973,9.113 -39.438,14.848 -67.856,17.453 -28.648,2.488 -74.211,4.399 -136.273,4.399 -125.578,0 -208.688,-4.508 -249.918,-13.664 C 56.3047,474.164 29.457,455.234 15.7695,425.172 9.57813,411.445 5.51953,392.645 3.48047,368.398 1.125,344.082 0.00390625,304.578 0.00390625,249.281 0.00390625,193.34 1.125,154.281 3.48047,132.66 5.96875,106.148 11.2617,84.9688 20.3008,69.7148 29.2305,54.5234 42.1055,42.6406 60.3008,33.3555 80.0625,23.2344 109.605,16.3281 148.883,13.0742 188.297,9.57422 254.156,8.22656 346.531,8.22656 c 88.067,0 149.801,3.96874 185.332,12.56254 40.739,8.3711 64.985,34.7461 71.832,44.0351 6.477,9.2656 25.996,43.7188 27.813,82.2148 C 635.77,58.1641 603.695,15.2305 603.695,15.2305 H 758.449 V 187.598 H 1093.47 V 15.2305 h 274.32 l 41.61,80.3711 52.5,103.5464 93.47,179.879 h 29.68 l 93.56,-179.879 51.8,-103.5464 41.52,-80.3711 h 130.93 c -20.21,17.2929 -39.75,52.1953 -42.97,107.5545 9.08,-71.8006 82.79,-103.0506 107.73,-106.5506 39.24,-5.4688 111.89,-7.84768 217.28,-7.84768 104.02,0 175.4,3.09768 214.72,7.84768 50.58,6.5976 83.51,28.4219 99.28,64.8984 1.98,-5.8984 4.29,-11.5547 7.29,-16.3086 8.89,-16.1953 21.85,-28.1328 38.28,-35.8906 16.39,-7.918 39.7,-13.0313 69.74,-16.0625 32.03,-2.625 91.4,-4.48438 178.71,-4.48438 73.04,0 126.9,2.19918 161.6,5.83208 34.79,3.6992 61,10.2968 78.4,19.5585 18.35,10.4532 31.05,24.1172 38.2,40.5821 6.73,16.5976 10.37,41.9926 10.37,76.1756 l 0.28,22.051 h -143.29"
         style="fill:#100f0d;fill-opacity:1;fill-rule:nonzero;stroke:none"
         id="path16" /></g></g></svg>
