<?xml version="1.0" encoding="UTF-8" standalone="no"?>
<svg
   xmlns:dc="http://purl.org/dc/elements/1.1/"
   xmlns:cc="http://creativecommons.org/ns#"
   xmlns:rdf="http://www.w3.org/1999/02/22-rdf-syntax-ns#"
   xmlns:svg="http://www.w3.org/2000/svg"
   xmlns="http://www.w3.org/2000/svg"
   viewBox="0 0 256.12 90.293335"
   height="90.293335"
   width="256.12"
   xml:space="preserve"
   id="svg2"
   version="1.1"><metadata
     id="metadata8"><rdf:RDF><cc:Work
         rdf:about=""><dc:format>image/svg+xml</dc:format><dc:type
           rdf:resource="http://purl.org/dc/dcmitype/StillImage" /></cc:Work></rdf:RDF></metadata><defs
     id="defs6" /><g
     transform="matrix(1.3333333,0,0,-1.3333333,0,90.293333)"
     id="g10"><g
       transform="scale(0.1)"
       id="g12"><path
         id="path14"
         style="fill:#5fc3f0;fill-opacity:1;fill-rule:nonzero;stroke:none"
         d="M 505.852,402.535 H 361.23 c -68.941,0 -103.41,-34.351 -103.41,-103.043 0,-68.996 34.469,-103.496 103.41,-103.496 H 505.859 V 145.398 H 361.602 c -48.34,0 -84.524,12.563 -108.559,37.715 -24.063,25.141 -36.074,63.782 -36.074,115.918 0,103.34 47.84,155.024 143.519,155.024 h 145.371 l -0.007,-51.52" /><path
         id="path16"
         style="fill:#5fc3f0;fill-opacity:1;fill-rule:nonzero;stroke:none"
         d="m 674.609,402.535 c -68.949,0 -103.398,-34.351 -103.398,-103.043 0,-68.996 34.449,-103.496 103.398,-103.496 68.692,0 103.051,34.5 103.051,103.496 0,68.692 -34.359,103.043 -103.051,103.043 M 819.238,299.492 c 0,-103.351 -48.199,-155.176 -144.629,-155.476 -96.171,0 -144.261,51.668 -144.261,155.015 0,103.043 47.851,154.715 143.531,155.024 96.902,0 145.359,-51.52 145.359,-154.563" /><path
         id="path18"
         style="fill:#5fc3f0;fill-opacity:1;fill-rule:nonzero;stroke:none"
         d="m 979.824,357.914 h 40.856 V 144.48 H 979.824 Z M 896.289,144.48 h -40.84 V 454.059 H 1000.8 c 95.68,0 143.53,-51.68 143.53,-155.028 V 144.016 h -41.6 v 155.488 c 0,68.68 -34.33,103.031 -103.023,103.031 H 896.289 V 144.48" /><path
         id="path20"
         style="fill:#5fc3f0;fill-opacity:1;fill-rule:nonzero;stroke:none"
         d="m 1471.68,144.016 h -288.87 v 51.519 h 288.87 z m -288.87,180.32 h 288.87 V 272.82 h -288.87 z m 0,129.258 h 288.87 v -51.52 h -288.87 v 51.52" /><path
         id="path22"
         style="fill:#5fc3f0;fill-opacity:1;fill-rule:nonzero;stroke:none"
         d="m 1501.15,453.594 h 288.89 v -51.52 H 1666.39 V 144.473 h -40.84 v 257.601 h -124.4 v 51.52" /><path
         id="path24"
         style="fill:#5fc3f0;fill-opacity:1;fill-rule:nonzero;stroke:none"
         d="M 268.902,1.5625 V 83.9063 H 381.246 V 70 H 299.527 V 51.7188 h 76.094 V 37.8125 H 299.527 V 15.4688 h 84.688 V 1.5625 H 268.902" /><path
         id="path26"
         style="fill:#5fc3f0;fill-opacity:1;fill-rule:nonzero;stroke:none"
         d="m 410.063,1.5625 v 81.7188 h 30.625 V 15.4688 h 76.093 V 1.5625 H 410.063" /><path
         id="path28"
         style="fill:#5fc3f0;fill-opacity:1;fill-rule:nonzero;stroke:none"
         d="M 536.078,1.5625 V 83.9063 H 648.422 V 70 H 566.703 V 51.7188 h 76.094 V 37.8125 H 566.703 V 15.4688 h 84.688 V 1.5625 H 536.078" /><path
         id="path30"
         style="fill:#5fc3f0;fill-opacity:1;fill-rule:nonzero;stroke:none"
         d="m 770.742,31.875 29.688,-5 C 795.875,17.8438 788.301,11.125 777.703,6.73828 767.113,2.35156 753.672,0.15625 737.395,0.15625 c -20.161,0 -36.719,3.73828 -49.692,11.22265 -12.976,7.4883 -19.461,17.7227 -19.461,30.6992 0,13.7305 6.52,24.3985 19.555,31.9922 13.039,7.6016 30.183,11.3985 51.426,11.3985 18.554,0 33.629,-2.9805 45.218,-8.9141 6.899,-3.5195 12.075,-8.5664 15.52,-15.1484 L 769.648,57.5 c -1.796,4.25 -5.539,7.5977 -11.23,10.0586 -5.688,2.4609 -12.602,3.6914 -20.742,3.6914 -11.246,0 -20.367,-2.1953 -27.367,-6.5937 -7.004,-4.3907 -10.504,-11.504 -10.504,-21.336 0,-10.4375 3.453,-17.8711 10.355,-22.3047 6.906,-4.4218 15.879,-6.6406 26.926,-6.6406 8.148,0 15.148,1.4063 21.019,4.2188 5.872,2.8125 10.083,7.2343 12.637,13.2812" /><path
         id="path32"
         style="fill:#5fc3f0;fill-opacity:1;fill-rule:nonzero;stroke:none"
         d="M 858.727,1.5625 V 70 h -45 V 83.9063 H 934.039 V 70 H 889.352 V 1.5625 h -30.625" /><path
         id="path34"
         style="fill:#5fc3f0;fill-opacity:1;fill-rule:nonzero;stroke:none"
         d="m 982.988,49.0625 h 22.652 c 14.7,0 23.87,0.3398 27.53,1.0156 3.66,0.6758 6.52,1.836 8.59,3.4844 2.07,1.6523 3.1,3.7109 3.1,6.1953 0,2.7695 -1.36,5.0156 -4.08,6.7266 -2.73,1.707 -6.58,2.7812 -11.54,3.2344 -2.48,0.1835 -9.93,0.2812 -22.35,0.2812 h -23.902 z m -30.625,-47.5 v 82.3438 h 64.467 c 16.21,0 27.98,-0.7422 35.33,-2.2188 7.35,-1.4844 13.23,-4.1094 17.64,-7.8867 4.42,-3.7891 6.63,-8.1172 6.63,-12.9805 0,-6.1797 -3.34,-11.2773 -10.03,-15.3125 -6.68,-4.0234 -16.67,-6.5625 -29.97,-7.6094 6.61,-2.0976 12.08,-4.3906 16.38,-6.914 4.31,-2.5 10.12,-6.961 17.43,-13.3555 l 18.53,-16.0664 h -36.62 l -22.14,17.9492 c -7.87,6.3946 -13.25,10.4219 -16.16,12.0821 -2.89,1.6601 -5.97,2.8007 -9.22,3.4179 -3.24,0.6133 -8.38,0.9258 -15.431,0.9258 h -6.211 V 1.5625 h -30.625" /><path
         id="path36"
         style="fill:#5fc3f0;fill-opacity:1;fill-rule:nonzero;stroke:none"
         d="m 1126.35,42.793 c 0,-9.375 3.96,-16.4844 11.89,-21.3164 7.93,-4.8438 18.01,-7.2578 30.22,-7.2578 12.2,0 22.22,2.4023 30.06,7.1992 7.82,4.8047 11.73,12 11.73,21.5976 0,9.4844 -3.8,16.5625 -11.43,21.2344 -7.62,4.668 -17.75,7 -30.36,7 -12.62,0 -22.8,-2.3633 -30.53,-7.0898 -7.72,-4.7188 -11.58,-11.8477 -11.58,-21.3672 z m -31.56,-0.5664 c 0,8.4179 2.3,15.4882 6.93,21.2031 3.44,4.207 8.14,7.9883 14.1,11.3281 5.97,3.3399 12.5,5.8281 19.6,7.4375 9.44,2.1797 20.33,3.2735 32.68,3.2735 22.33,0 40.2,-3.7813 53.6,-11.336 13.42,-7.5508 20.12,-18.0586 20.12,-31.5039 0,-13.3516 -6.65,-23.7891 -19.96,-31.3281 C 1208.55,3.76953 1190.77,0 1168.51,0 c -22.54,0 -40.46,3.75 -53.76,11.25 -13.31,7.4883 -19.96,17.8203 -19.96,30.9766" /><path
         id="path38"
         style="fill:#5fc3f0;fill-opacity:1;fill-rule:nonzero;stroke:none"
         d="m 1266.04,1.5625 v 82.3438 h 29.63 l 62.25,-55.1954 v 55.1954 h 28.28 V 1.5625 h -30.57 l -61.3,53.9453 V 1.5625 h -28.29" /><path
         id="path40"
         style="fill:#5fc3f0;fill-opacity:1;fill-rule:nonzero;stroke:none"
         d="m 1417.29,1.5625 v 82.3438 h 30.62 V 1.5625 h -30.62" /><path
         id="path42"
         style="fill:#5fc3f0;fill-opacity:1;fill-rule:nonzero;stroke:none"
         d="m 1574.3,31.875 29.68,-5 c -4.55,-9.0312 -12.12,-15.75 -22.72,-20.13672 -10.6,-4.38672 -24.03,-6.58203 -40.31,-6.58203 -20.16,0 -36.72,3.73828 -49.69,11.22265 -12.98,7.4883 -19.46,17.7227 -19.46,30.6992 0,13.7305 6.52,24.3985 19.55,31.9922 13.04,7.6016 30.18,11.3985 51.42,11.3985 18.56,0 33.64,-2.9805 45.23,-8.9141 6.89,-3.5195 12.07,-8.5664 15.52,-15.1484 L 1573.2,57.5 c -1.79,4.25 -5.53,7.5977 -11.23,10.0586 -5.68,2.4609 -12.59,3.6914 -20.74,3.6914 -11.25,0 -20.37,-2.1953 -27.36,-6.5937 -7.01,-4.3907 -10.51,-11.504 -10.51,-21.336 0,-10.4375 3.46,-17.8711 10.35,-22.3047 6.92,-4.4218 15.88,-6.6406 26.93,-6.6406 8.15,0 15.15,1.4063 21.02,4.2188 5.87,2.8125 10.08,7.2343 12.64,13.2812" /><path
         id="path44"
         style="fill:#5fc3f0;fill-opacity:1;fill-rule:nonzero;stroke:none"
         d="M 1621.15,28.4375 1651,30 c 1.78,-5.4297 5.42,-9.4258 10.89,-11.9648 5.47,-2.5469 12.87,-3.8164 22.16,-3.8164 9.86,0 17.28,1.1328 22.27,3.3984 4.99,2.2656 7.49,4.9219 7.49,7.957 0,1.9453 -1.06,3.6055 -3.15,4.9727 -2.11,1.3672 -5.77,2.5586 -10.99,3.5742 -3.59,0.6758 -11.74,1.875 -24.47,3.6055 -16.38,2.2226 -27.88,4.9414 -34.49,8.164 -9.28,4.5391 -13.93,10.0664 -13.93,16.5821 0,4.1992 2.18,8.125 6.56,11.7773 4.37,3.6484 10.66,6.4414 18.89,8.3477 8.23,1.914 18.16,2.8711 29.79,2.8711 19.01,0 33.3,-2.2774 42.91,-6.8165 9.6,-4.5429 14.64,-10.5937 15.13,-18.1835 l -30.63,-0.625 c -1.3,4.2187 -4.11,7.2578 -8.4,9.1015 -4.3,1.8477 -10.76,2.7735 -19.35,2.7735 -8.87,0 -15.82,-0.9883 -20.84,-2.9805 -3.22,-1.2656 -4.84,-2.9688 -4.84,-5.0977 0,-1.9531 1.51,-3.6133 4.55,-5 3.84,-1.7539 13.22,-3.5898 28.09,-5.5039 14.88,-1.9258 25.88,-3.9101 33.01,-5.957 7.13,-2.0508 12.71,-4.8672 16.74,-8.418 4.03,-3.5586 6.04,-7.9531 6.04,-13.1875 0,-4.7461 -2.41,-9.1797 -7.24,-13.3164 -4.83,-4.14452 -11.65,-7.23046 -20.47,-9.24217 C 1707.89,1.00781 1696.89,0 1683.72,0 c -19.17,0 -33.89,2.42188 -44.16,7.26563 -10.27,4.84377 -16.41,11.90627 -18.41,21.17187" /><path
         id="path46"
         style="fill:#f14b1c;fill-opacity:1;fill-rule:nonzero;stroke:none"
         d="m 115,267.246 c 0,230.602 432.051,355 965,355 360.86,0 675.4,-72.883 840.95,-180.801 C 1755.76,581.148 1411.05,677.246 1012.5,677.246 453.32,677.246 0,507.438 0,254.746 0,164.211 68.2891,80.3203 184.504,11.5547 L 234.59,95.9844 C 158.398,146.766 115,205.137 115,267.246" /></g></g></svg>