<?xml version="1.0" encoding="UTF-8" standalone="no"?>
<svg
   xmlns:dc="http://purl.org/dc/elements/1.1/"
   xmlns:cc="http://creativecommons.org/ns#"
   xmlns:rdf="http://www.w3.org/1999/02/22-rdf-syntax-ns#"
   xmlns:svg="http://www.w3.org/2000/svg"
   xmlns="http://www.w3.org/2000/svg"
   xmlns:sodipodi="http://sodipodi.sourceforge.net/DTD/sodipodi-0.dtd"
   xmlns:inkscape="http://www.inkscape.org/namespaces/inkscape"
   version="1.1"
   id="svg2"
   xml:space="preserve"
   width="478.66666"
   height="190.66667"
   viewBox="0 0 478.66666 190.66667"
   sodipodi:docname="DevriX_Logo.eps"><metadata
     id="metadata8"><rdf:RDF><cc:Work
         rdf:about=""><dc:format>image/svg+xml</dc:format><dc:type
           rdf:resource="http://purl.org/dc/dcmitype/StillImage" /></cc:Work></rdf:RDF></metadata><defs
     id="defs6" /><sodipodi:namedview
     pagecolor="#ffffff"
     bordercolor="#666666"
     borderopacity="1"
     objecttolerance="10"
     gridtolerance="10"
     guidetolerance="10"
     inkscape:pageopacity="0"
     inkscape:pageshadow="2"
     inkscape:window-width="640"
     inkscape:window-height="480"
     id="namedview4" /><g
     id="g10"
     inkscape:groupmode="layer"
     inkscape:label="ink_ext_XXXXXX"
     transform="matrix(1.3333333,0,0,-1.3333333,0,190.66667)"><g
       id="g12"
       transform="scale(0.1)"><path
         d="M 601.129,812.191 C 585.82,855.43 560.82,894.609 528.012,926.68 494.34,958.551 453.91,982.422 409.77,996.602 362.969,1012.34 305.98,1020.2 238.828,1020.2 H 45.4297 c -11.8008,0.35 -23.3203,-3.72 -32.3399,-11.37 C 4.37891,1001.25 0,988.91 0,971.84 V 314.531 c 0,-17.07 4.37891,-29.41 13.0898,-36.992 9.0196,-7.66 20.5391,-11.719 32.3399,-11.367 H 225.43 c 58.32,-1.094 116.48,6.25 172.691,21.879 45.75,13.078 87.899,36.519 123.207,68.429 35.192,33.29 61.871,74.571 77.731,120.36 18.05,49.14 27.113,108.281 27.113,177.422 0.976,53.707 -7.5,107.148 -25.043,157.929 z M 453.48,534.801 C 445.27,504.691 430.551,476.719 410.352,452.93 390.859,430.781 366.129,413.871 338.398,403.711 304.34,391.949 268.441,386.449 232.422,387.379 H 152.621 V 900.16 h 77.457 c 46.992,0 84.961,-6.332 113.871,-18.949 27.571,-11.602 51.949,-29.691 71.051,-52.731 18.91,-23.441 32.621,-50.671 40.199,-79.808 8.59,-32.543 12.813,-66.012 12.531,-99.652 0.629,-38.551 -4.179,-76.989 -14.25,-114.219 z m 769.72,49.5 c 0.32,34.289 -4.41,68.469 -13.98,101.398 -8.6,29.731 -23.48,57.27 -43.67,80.711 -20.86,23.43 -46.88,41.711 -76.02,53.32 -35.58,13.629 -73.48,20.192 -111.561,19.219 C 940,839.531 902.301,832.621 867.031,818.551 835,805.512 806.41,785.27 783.441,759.41 759.609,731.91 741.762,699.77 731.02,665 718.48,624.57 712.379,582.379 712.969,540 c -0.821,-42.969 5,-85.781 17.152,-126.988 10,-33.633 27.891,-64.422 52.149,-89.774 24.371,-24.328 54.25,-42.539 87.07,-53.008 39.289,-12.339 80.308,-18.242 121.441,-17.5 24.179,-0.07 48.319,1.571 72.229,4.969 20.19,2.852 40.23,6.75 60,11.68 14.69,3.551 29.06,8.121 43.12,13.672 7.46,2.5 14.46,6.25 20.67,11.09 2.38,2.539 4.45,5.347 6.13,8.437 1.68,3.402 2.89,7.031 3.48,10.781 0.86,5.121 1.44,10.27 1.75,15.43 0.39,6.012 0.55,13.281 0.59,21.832 0,9.731 -0.31,17.777 -0.9,24.18 -0.27,5.121 -1.37,10.121 -3.2,14.89 -1.1,2.969 -3.17,5.508 -5.82,7.258 -2.66,1.449 -5.71,2.153 -8.71,2.071 -7.85,-0.469 -15.55,-2.34 -22.74,-5.54 -9.33,-3.71 -21.05,-7.781 -35.23,-12.23 -16.56,-5.078 -33.4,-9.141 -50.39,-12.27 -22.31,-3.902 -44.92,-5.781 -67.58,-5.5 -22.071,-0.511 -44.02,2.809 -64.918,9.879 -16.922,5.86 -32.114,15.743 -44.262,28.871 -11.801,13.2 -20.352,28.942 -25.039,46.008 -5.473,19.653 -8.121,39.922 -7.891,60.313 h 316.29 c 12.3,-0.66 24.3,3.988 32.93,12.82 7.93,8.551 11.91,21.75 11.91,39.609 z m -361.13,18.668 c 0.629,17.461 3.481,34.761 8.442,51.562 4.367,15.16 11.476,29.379 21.008,41.949 9.179,11.879 20.902,21.571 34.339,28.25 15.161,7.301 31.84,10.891 48.672,10.5 36.879,0 64.139,-11.75 81.839,-35.23 17.65,-23.52 25.9,-55.859 24.72,-97.031 z m 951.17,213.551 c -2.65,3.441 -6.33,6.019 -10.47,7.308 -6.87,2.301 -14.02,3.672 -21.29,4.063 -9.1,0.781 -20.86,1.168 -35.23,1.168 -11.95,0.121 -23.91,-0.348 -35.82,-1.438 -7.42,-0.633 -14.73,-2 -21.84,-4.101 -4.68,-1.219 -8.82,-3.872 -11.95,-7.54 -2.66,-3.601 -4.53,-7.66 -5.55,-11.96 l -116.48,-381.68 -3.52,-14.57 -3.47,14.57 -118.24,381.68 c -1.37,4.218 -3.33,8.25 -5.83,11.96 -3.04,3.75 -7.22,6.399 -11.95,7.54 -7.5,2.101 -15.23,3.468 -23.01,4.101 -9.68,0.969 -22.54,1.438 -38.43,1.438 -14.38,0 -26.33,-0.387 -35.82,-1.168 -7.62,-0.391 -15.16,-1.762 -22.43,-4.063 -4.41,-1.25 -8.36,-3.789 -11.36,-7.308 -2.15,-2.93 -3.28,-6.52 -3.21,-10.192 0,-2.308 0.08,-4.848 0.32,-7.578 0.46,-4.488 1.25,-8.98 2.3,-13.398 1.37,-6.211 3.2,-13.204 5.55,-20.973 L 1441.6,294.102 c 1.64,-5.582 4.3,-10.821 7.85,-15.43 4.3,-4.692 9.89,-8.051 16.02,-9.613 10,-2.77 20.27,-4.45 30.58,-4.957 13.01,-0.981 29.81,-1.442 50.4,-1.442 20.97,0 37.96,0.391 50.97,1.168 10.43,0.352 20.78,1.91 30.86,4.652 6.29,1.52 11.95,4.879 16.33,9.61 3.63,4.762 6.29,10.23 7.85,16.012 l 156.09,470.277 c 1.57,5.422 2.82,10.269 3.79,14.57 0.98,4.25 1.76,8.039 2.35,11.321 0.54,3.011 0.93,6.019 1.17,9.031 0.19,2.687 0.27,5.039 0.27,6.988 0.12,3.633 -0.9,7.191 -2.89,10.231 z m 422.31,-25.899 c -0.2,6.141 -0.75,12.27 -1.72,18.359 -0.59,3.29 -1.45,6.489 -2.66,9.61 -1.05,2.461 -2.62,4.648 -4.65,6.41 -3.04,2.422 -6.48,4.301 -10.19,5.512 -5.35,1.91 -10.78,3.468 -16.33,4.648 -5.98,1.32 -11.99,2.301 -18.05,2.93 -5.82,0.582 -11.29,0.859 -16.33,0.859 -11.01,0 -21.99,-1.488 -32.61,-4.379 -11.64,-3.281 -22.7,-8.48 -32.62,-15.429 -12.46,-8.789 -23.98,-18.832 -34.37,-30 -13.99,-15.039 -26.84,-31.129 -38.44,-48.09 v 64.687 c 0.08,3.641 -0.94,7.192 -2.89,10.203 -2.46,3.321 -5.78,5.821 -9.61,7.297 -6.1,2.313 -12.46,3.793 -18.95,4.383 -10.27,1.051 -20.54,1.559 -30.86,1.438 -10.04,0.121 -20.04,-0.387 -30,-1.438 -6.68,-0.711 -13.2,-2.152 -19.53,-4.383 -4.14,-1.289 -7.81,-3.859 -10.47,-7.297 -1.99,-3.011 -3,-6.562 -2.93,-10.203 V 286.02 c -0.07,-3.719 1.18,-7.348 3.52,-10.239 3.2,-3.48 7.34,-5.98 11.91,-7.261 7.31,-2.27 14.81,-3.75 22.43,-4.379 23.67,-1.95 47.42,-1.95 71.05,0 7.62,0.629 15.16,2.109 22.46,4.379 4.57,1.281 8.67,3.781 11.91,7.261 2.35,2.891 3.56,6.52 3.52,10.239 V 610 c 9.34,14.961 19.53,29.34 30.55,43.121 8.16,10.238 17.34,19.609 27.38,27.969 7.66,6.332 16.21,11.531 25.35,15.43 7.78,3.21 16.06,4.929 24.46,4.96 6.48,0.04 12.92,-0.621 19.21,-2.031 5.86,-1.359 11.18,-2.847 16.06,-4.371 4.84,-1.558 9.18,-3.008 13.08,-4.379 3.36,-1.289 6.92,-1.949 10.51,-2.027 3.44,-0.152 6.8,0.859 9.61,2.887 3.05,2.82 5.2,6.492 6.1,10.511 1.87,6.879 3.04,13.91 3.51,21.02 0.78,8.898 1.13,20.39 1.17,34.371 0,13.988 -0.19,25.039 -0.58,33.16 z m 237.65,13.988 c 0.08,3.711 -1.17,7.301 -3.47,10.192 -3.25,3.519 -7.39,6.14 -11.96,7.578 -7.26,2.5 -14.76,4.141 -22.42,4.961 -23.63,2.308 -47.42,2.308 -71.05,0 -7.66,-0.82 -15.2,-2.461 -22.42,-4.961 -4.58,-1.438 -8.72,-4.059 -11.96,-7.578 -2.3,-2.891 -3.55,-6.481 -3.51,-10.192 V 286.02 c -0.04,-3.719 1.21,-7.348 3.51,-10.239 3.24,-3.48 7.35,-5.98 11.96,-7.261 7.26,-2.27 14.8,-3.75 22.42,-4.379 23.63,-1.95 47.42,-1.95 71.05,0 7.62,0.629 15.16,2.109 22.42,4.379 4.57,1.281 8.71,3.781 11.96,7.261 2.3,2.891 3.55,6.52 3.47,10.239 z m -6.4,236.251 c -11.64,11.05 -33.79,16.6 -66.41,16.6 -32.97,0 -55.43,-5.74 -67.27,-17.19 -11.87,-11.48 -17.77,-31.95 -17.77,-61.52 0,-28.359 5.74,-47.969 17.19,-58.828 11.44,-10.902 33.67,-16.332 66.68,-16.332 32.62,0 54.96,5.629 66.99,16.922 12.07,11.25 18.09,31.636 18.09,61.168 0,28.4 -5.86,48.12 -17.5,59.22 z"
         style="fill:#262626;fill-opacity:1;fill-rule:evenodd;stroke:none"
         id="path14" /><path
         d="m 2232.07,1300 300,127.5 427.5,-427.5 255,285 217.5,-225 -217.5,-315 375,-375 -157.5,-285 -517.5,247.5 -240,-322.5 -435,255 -142.5,157.5 262.5,-97.5 397.5,442.5 z"
         style="fill:#64c040;fill-opacity:1;fill-rule:evenodd;stroke:none"
         id="path16" /></g></g></svg>
