<?xml version="1.0" encoding="UTF-8" standalone="no"?>
<svg
   xmlns:dc="http://purl.org/dc/elements/1.1/"
   xmlns:cc="http://creativecommons.org/ns#"
   xmlns:rdf="http://www.w3.org/1999/02/22-rdf-syntax-ns#"
   xmlns:svg="http://www.w3.org/2000/svg"
   xmlns="http://www.w3.org/2000/svg"
   viewBox="0 0 442.66666 120"
   height="120"
   width="442.66666"
   xml:space="preserve"
   id="svg2"
   version="1.1"><metadata
     id="metadata8"><rdf:RDF><cc:Work
         rdf:about=""><dc:format>image/svg+xml</dc:format><dc:type
           rdf:resource="http://purl.org/dc/dcmitype/StillImage" /></cc:Work></rdf:RDF></metadata><defs
     id="defs6" /><g
     transform="matrix(1.3333333,0,0,-1.3333333,0,120)"
     id="g10"><g
       transform="scale(0.1)"
       id="g12"><path
         id="path14"
         style="fill:#054b61;fill-opacity:1;fill-rule:nonzero;stroke:none"
         d="m 3032.58,675.512 c 0,-14.492 -3.83,-26.492 -11.72,-36.602 -2.46,-3.25 -4.92,-5.98 -8.2,-8.711 -2.74,-2.469 -6.02,-4.648 -9.03,-6.84 -12.26,-7.621 -26.99,-11.168 -44.45,-11.168 h -57.85 v 133.43 h 57.85 c 21.84,0 39.3,-6.562 53.2,-19.641 13.64,-13.089 20.2,-29.73 20.2,-50.468" /><path
         id="path16"
         style="fill:#054b61;fill-opacity:1;fill-rule:nonzero;stroke:none"
         d="m 3119.41,376.68 c -7.73,-7.578 -17.5,-11.481 -29.8,-11.481 -15.31,0 -27.5,7.071 -36.02,20.192 L 2961.91,532.5 h -60.62 V 407.27 c 0,-11.489 -3.79,-21.571 -11.68,-29.5 -7.93,-8.2 -18.32,-12.571 -30.31,-12.571 -11.49,0 -21.8,4.371 -29.69,12.301 -8.01,7.891 -12.31,18.281 -12.31,29.77 v 376.011 c 0,11.989 4.3,22.418 12.31,30.309 8.09,7.582 18.2,11.68 29.69,11.68 h 99.88 c 29.41,0 56.21,-6.29 79.73,-18.79 23.67,-12.609 42.5,-30.582 55.89,-53.199 6.29,-11.211 11.18,-23.203 14.5,-36.011 3.51,-13.09 5.11,-27.071 5.11,-41.801 0,-28.59 -7.3,-54.77 -22.11,-77.188 -11.99,-18.281 -27.5,-33.011 -46.6,-43.98 l 77.5,-124.422 c 4.89,-7.891 7.31,-16.598 7.31,-25.391 0,-10.617 -3.83,-20.386 -11.1,-27.808 m -247.5,519.8 -230.93,-203.511 v -388.59 h 443.43 l 229.3,203 V 896.48 Z" /><path
         id="path18"
         style="fill:#054b61;fill-opacity:1;fill-rule:nonzero;stroke:none"
         d="m 153.359,462.809 h -37.461 v 313.953 h 37.461 c 16.289,0 30.469,-1.762 42.11,-5.203 9.801,-2.887 17.582,-8.981 23.711,-18.59 6.949,-10.821 12.269,-26.489 15.781,-46.68 3.711,-21.25 5.59,-50 5.59,-85.469 0,-35.511 -1.879,-64.41 -5.59,-85.898 -3.512,-20.313 -8.91,-36.051 -16.012,-46.801 -6.488,-9.84 -14.539,-16.242 -24.57,-19.57 -11.488,-3.781 -25.277,-5.742 -41.02,-5.742 m 151.09,357.113 c -15.929,19.027 -36.91,32.269 -62.301,39.297 -23.91,6.64 -52.808,10 -85.937,10 H 7.14844 V 370.352 H 152.852 c 32.847,0 61.796,3.867 86.019,11.488 25.469,8 46.75,22.262 63.32,42.34 16.129,19.609 28.239,46.129 35.93,78.871 7.43,31.597 11.18,72.148 11.18,120.469 0,48.71 -3.52,89.101 -10.473,120.031 -7.226,32.109 -18.789,57.777 -34.379,76.371" /><path
         id="path20"
         style="fill:#054b61;fill-opacity:1;fill-rule:nonzero;stroke:none"
         d="m 571.641,660.738 c 9.449,0 17.847,-1.047 24.918,-3.16 6.14,-1.84 11.171,-4.879 15.429,-9.258 4.223,-4.371 7.543,-11.129 9.891,-20.082 1.832,-7.109 3,-15.699 3.59,-25.66 H 510.82 c 0.899,9.223 2.461,17.192 4.61,23.832 2.89,8.86 6.871,15.781 11.761,20.5 5.039,4.852 10.86,8.211 17.848,10.32 7.731,2.34 16.68,3.508 26.602,3.508 M 687.5,714.262 c -13.16,13.16 -29.691,22.578 -49.102,27.929 -18.316,5.079 -40.078,7.61 -64.726,7.61 -24.223,0 -47.07,-3 -67.891,-8.981 C 483.98,734.531 465,723.551 449.41,708.238 c -15.5,-15.269 -27.609,-35.699 -35.93,-60.699 -8.128,-24.34 -12.23,-55.039 -12.23,-91.168 0,-37.461 3.871,-68.441 11.52,-92.07 7.929,-24.571 19.691,-44.141 34.96,-58.129 15.282,-14.024 34.258,-23.672 56.45,-28.711 20.781,-4.731 44.648,-7.109 70.859,-7.109 24.492,0 47.34,1.41 67.973,4.179 20.699,2.809 40.617,6.801 59.136,11.918 l 11.293,3.082 -9.89,86.758 -15.031,-3.668 c -16.411,-3.992 -32.579,-7.23 -48.09,-9.609 -15.231,-2.391 -32.231,-3.602 -50.469,-3.602 -14.922,0 -27.973,1.102 -38.789,3.168 -9.371,1.801 -16.953,5.121 -22.582,9.883 -5.469,4.648 -9.801,11.719 -12.809,20.98 -2.5,7.579 -4.179,17.258 -5.082,28.86 h 211.602 l 1.328,12.187 c 0.941,8.481 1.57,16.723 1.801,24.492 0.23,7.622 0.351,15.321 0.351,23.168 0,31.372 -3.051,57.973 -9.019,79.024 -6.293,22.109 -16.141,39.957 -29.262,53.09" /><path
         id="path22"
         style="fill:#054b61;fill-opacity:1;fill-rule:nonzero;stroke:none"
         d="m 968.199,554.922 c -3.629,-10 -6.91,-19.844 -9.719,-29.262 -2.742,-9.019 -5.429,-17.89 -8.128,-26.68 -1.09,-3.628 -2.192,-7.261 -3.204,-10.929 -0.937,3.32 -1.878,6.64 -2.808,9.918 -2.539,9.019 -5.32,18.082 -8.289,27.34 -2.93,8.953 -5.973,18.601 -9.211,29.3 L 866.719,733.551 H 754.301 L 879.02,370.352 h 132.82 l 125.46,363.199 h -107.65 z" /><path
         id="path24"
         style="fill:#054b61;fill-opacity:1;fill-rule:nonzero;stroke:none"
         d="m 1406.21,621.762 c -23.51,14.687 -47.03,28.75 -70.55,42.148 -23.51,13.391 -43.47,27.692 -59.96,42.852 -16.48,15.148 -24.72,31.867 -24.72,50.078 0,18.238 8.79,33.859 26.36,46.832 17.58,12.93 35.94,19.418 55.04,19.418 19.1,0 34.38,-1.879 45.78,-5.59 11.45,-3.75 19.93,-7.93 25.39,-12.539 5.51,-4.609 11.57,-8.789 18.13,-12.5 6.6,-3.75 13.2,-5.621 19.77,-5.621 6.6,0 11.99,1.988 16.17,5.93 4.18,3.949 6.25,9.46 6.25,16.492 0,15.386 -12.74,29.218 -38.25,41.519 -25.46,12.309 -56.24,18.438 -92.26,18.438 -36.02,0 -67.54,-11.41 -94.57,-34.258 -27.03,-22.852 -40.55,-49.883 -40.55,-81.051 0,-23.75 8.24,-45.512 24.73,-65.281 16.48,-19.758 36.44,-36.68 60,-50.738 23.48,-14.063 46.99,-27.813 70.51,-41.211 23.47,-13.399 43.47,-28.559 59.96,-45.469 16.48,-16.91 24.72,-35.039 24.72,-54.371 0,-28.988 -10.19,-52.192 -30.66,-69.539 -20.43,-17.34 -46.02,-26.012 -76.76,-26.012 -18.04,0 -34.37,2.852 -49.1,8.551 -14.73,5.711 -25.7,11.961 -32.97,18.789 -7.26,6.801 -14.92,13.051 -23.08,18.793 -8.13,5.699 -15.47,8.558 -22.07,8.558 -6.61,0 -11.96,-2.191 -16.14,-6.601 -4.18,-4.379 -6.25,-9.891 -6.25,-16.449 0,-17.149 15.78,-34.41 47.42,-51.758 31.65,-17.34 65.71,-26.012 102.19,-26.012 46.99,0 85.43,13.59 115.31,40.86 29.89,27.218 44.85,60.859 44.85,100.82 0,25.461 -8.24,48.98 -24.73,70.539 -16.48,21.492 -36.48,39.652 -59.96,54.383" /><path
         id="path26"
         style="fill:#054b61;fill-opacity:1;fill-rule:nonzero;stroke:none"
         d="m 1684.02,653.051 c 21.96,0 32.93,7.027 32.93,21.09 0,14.918 -10.97,22.418 -32.93,22.418 l -53.4,-2.649 1.96,74.488 c 0,21.954 -8.32,32.973 -25.04,32.973 -16.68,0 -25.04,-11.019 -25.04,-32.973 l 1.33,-73.828 c -17.58,0.899 -27.27,1.328 -29.03,1.328 -21.95,0 -32.92,-7.269 -32.92,-21.757 0,-14.493 10.97,-21.762 32.92,-21.762 5.71,0 15.82,0.672 30.36,2 l 0.66,-211.57 c 0,-56.25 19.1,-84.368 57.3,-84.368 15.83,0 31.88,4.918 48.13,14.84 16.25,9.879 24.37,19.34 24.37,28.321 0,9.019 -4.6,13.519 -13.82,13.519 -3.09,0 -9.34,-2.312 -18.79,-6.922 -9.46,-4.609 -17.46,-6.91 -24.06,-6.91 -14.07,0 -22.74,6.133 -26.02,18.441 -3.28,12.301 -4.96,38.43 -4.96,78.43 l 1.33,156.219 c 32.5,-0.899 50.74,-1.328 54.72,-1.328" /><path
         id="path28"
         style="fill:#054b61;fill-opacity:1;fill-rule:nonzero;stroke:none"
         d="m 2030.04,701.172 c -16.72,0 -25.08,-11.211 -25.08,-33.633 l 1.99,-143.008 c -8.36,-31.64 -23.08,-60.082 -44.14,-85.351 -21.09,-25.27 -42.97,-37.891 -65.58,-37.891 -22.66,0 -40.32,9.332 -53.09,28.012 -12.73,18.668 -19.1,42.929 -19.1,72.808 l 5.27,145 c 0,36.012 -10.11,54.063 -30.31,54.063 -8.36,0 -15.16,-2.774 -20.43,-8.242 -5.27,-5.508 -7.89,-11.52 -7.89,-18.129 0,-6.602 1.72,-17.461 5.23,-32.61 3.52,-15.203 5.28,-31.531 5.28,-49.101 l -3.95,-99.539 c 0,-37.813 9.69,-69.762 29.03,-95.891 19.33,-26.14 46.56,-39.219 81.71,-39.219 49.18,0 90.08,28.118 122.58,84.368 1.33,-14.528 1.99,-29.45 1.99,-44.84 0,-41.719 -10.78,-75.778 -32.3,-102.149 -21.52,-26.371 -50.74,-39.531 -87.66,-39.531 -21.09,0 -41.64,4.063 -61.64,12.191 -20,8.122 -32.18,12.18 -36.56,12.18 -10.12,0 -15.16,-5.621 -15.16,-16.789 0,-11.211 12.07,-22.422 36.25,-33.641 24.14,-11.21 49.85,-16.789 77.11,-16.789 50.98,0 90.51,17.457 118.64,52.379 28.12,34.961 42.18,81.211 42.18,138.75 0,26.371 -2.65,66.328 -7.93,119.961 9.26,58.867 13.87,101.25 13.87,127.188 0,32.972 -10.12,49.453 -30.31,49.453" /><path
         id="path30"
         style="fill:#054b61;fill-opacity:1;fill-rule:nonzero;stroke:none"
         d="m 2178.98,865.941 c -16.71,0 -25.07,-10.98 -25.07,-32.972 l 3.32,-220.778 -3.32,-220.82 c 0,-21.961 8.36,-32.93 25.07,-32.93 16.68,0 25.04,10.969 25.04,32.93 l -3.28,220.82 3.28,220.778 c 0,21.992 -8.36,32.972 -25.04,32.972" /><path
         id="path32"
         style="fill:#054b61;fill-opacity:1;fill-rule:nonzero;stroke:none"
         d="m 2388.55,628.98 c 19.77,21.758 44.18,32.622 73.17,32.622 21.52,0 38.12,-6.25 49.76,-18.75 11.64,-12.543 17.47,-27.383 17.47,-44.493 0,-17.148 -8.87,-30.781 -26.68,-40.859 -17.82,-10.121 -41.53,-15.16 -71.18,-15.16 -29.68,0 -56.6,3.48 -80.74,10.512 5.7,29.027 18.44,54.378 38.2,76.128 m 169.07,-190.781 c -5.51,0 -17.03,-6.828 -34.61,-20.429 -6.56,-4.84 -16.25,-9.372 -28.99,-13.551 -12.73,-4.141 -26.6,-6.25 -41.52,-6.25 -25.04,0 -47.77,11.09 -68.2,33.32 -20.43,22.152 -32,48.633 -34.61,79.41 32.97,-6.597 60.86,-9.879 83.71,-9.879 39.96,0 73.67,8.2 101.17,24.692 27.42,16.476 41.17,40.539 41.17,72.187 0,31.641 -11.09,57.34 -33.28,77.102 -22.19,19.769 -50.98,29.648 -86.33,29.648 -35.39,0 -66.56,-12.73 -93.59,-38.199 -27.03,-25.512 -45.39,-58.012 -55.04,-97.578 -7.93,3.988 -14.49,5.937 -19.77,5.937 -5.27,0 -9.8,-1.879 -13.51,-5.589 -3.75,-3.75 -5.63,-8.899 -5.63,-15.5 0,-15.79 11.64,-27.231 34.96,-34.258 2.19,-45.282 16.68,-83.953 43.48,-116.024 26.8,-32.066 63.05,-48.078 108.75,-48.078 29.45,0 56.8,7.891 82.07,23.711 25.27,15.82 37.89,29.879 37.89,42.18 0,4.808 -1.64,8.91 -4.92,12.187 -3.32,3.282 -7.7,4.961 -13.2,4.961" /><g
         transform="scale(10)"
         id="g34"><text
           id="text38"
           style="font-variant:normal;font-weight:bold;font-size:16.65920067px;font-family:'DejaVu Sans';-inkscape-font-specification:DejaVuSans-Bold;writing-mode:lr-tb;fill:#054b61;fill-opacity:1;fill-rule:nonzero;stroke:none"
           transform="matrix(1,0,0,-1,0.714844,0.936719)"><tspan
             id="tspan36"
             y="0"
             x="0 11.344799 22.656319 27.987112 40.148243 51.14336 63.737827 77.115036 82.912437 89.625908 102.98671 113.76503 124.26041 137.00475 147.98306 161.34387 173.93834 184.93346 197.46126 209.55574 215.35313 227.96419 241.12508 257.38446 273.64383 286.37137 299.73218 306.19586 318.4902">#1 TECH INFLUENCERS COMMUNITY</tspan></text>
</g></g></g></svg>