<?xml version="1.0" encoding="UTF-8" standalone="no"?>
<svg
   xmlns:dc="http://purl.org/dc/elements/1.1/"
   xmlns:cc="http://creativecommons.org/ns#"
   xmlns:rdf="http://www.w3.org/1999/02/22-rdf-syntax-ns#"
   xmlns:svg="http://www.w3.org/2000/svg"
   xmlns="http://www.w3.org/2000/svg"
   viewBox="0 0 666.15997 147.33333"
   height="147.33333"
   width="666.15997"
   xml:space="preserve"
   id="svg2"
   version="1.1"><metadata
     id="metadata8"><rdf:RDF><cc:Work
         rdf:about=""><dc:format>image/svg+xml</dc:format><dc:type
           rdf:resource="http://purl.org/dc/dcmitype/StillImage" /></cc:Work></rdf:RDF></metadata><defs
     id="defs6" /><g
     transform="matrix(1.3333333,0,0,-1.3333333,0,147.33333)"
     id="g10"><g
       transform="scale(0.1)"
       id="g12"><path
         id="path14"
         style="fill:#0573ac;fill-opacity:1;fill-rule:nonzero;stroke:none"
         d="m 1498.41,192.035 h -87.83 v 287.969 h 88.65 c 91.55,0 146.25,-53.613 146.25,-143.484 0,-71.77 -50.51,-144.485 -147.07,-144.485 m 0,448.824 H 1241.3 c -8.54,0 -15.4,-6.859 -15.4,-15.445 V 46.5898 c 0,-8.4296 6.86,-15.3085 15.4,-15.3085 h 257.93 c 202.65,0 333.65,119.7697 333.65,305.2387 0,184.89 -131.33,304.339 -334.47,304.339" /><path
         id="path16"
         style="fill:#0573ac;fill-opacity:1;fill-rule:nonzero;stroke:none"
         d="m 2972.64,483.637 c -70.97,0 -128.65,-38.992 -154.41,-77.676 -18.89,51.543 -61.68,77.676 -127.03,77.676 -72.35,0 -127.13,-36.602 -146.25,-61.192 v 34.864 c 0,8.527 -6.9,15.351 -15.37,15.351 h -133.77 c -8.48,0 -15.34,-6.824 -15.34,-15.351 V 46.5898 c 0,-8.4179 6.86,-15.3085 15.34,-15.3085 h 133.77 c 8.47,0 15.37,6.8906 15.37,15.3085 V 303.637 l 0.02,0.117 c 9.68,11.172 29.78,34.59 66.69,34.59 32.43,0 50.3,-17.567 50.3,-49.364 V 46.5898 c 0,-8.4179 6.9,-15.3085 15.35,-15.3085 h 133.77 c 8.49,0 15.41,6.8906 15.41,15.3085 V 303.637 c 9.64,11.269 29.76,34.707 67.54,34.707 32.01,0 50.33,-17.989 50.33,-49.364 V 46.5898 c 0,-8.4179 6.84,-15.3085 15.36,-15.3085 h 133.78 c 8.46,0 15.36,6.8906 15.36,15.3085 V 351.109 c 0,85.457 -48.35,132.528 -136.22,132.528" /><path
         id="path18"
         style="fill:#0573ac;fill-opacity:1;fill-rule:nonzero;stroke:none"
         d="m 3325.02,472.66 h -133.77 c -8.51,0 -15.41,-6.875 -15.41,-15.351 V 46.5898 c 0,-8.4179 6.9,-15.3085 15.41,-15.3085 h 133.77 c 8.46,0 15.4,6.8906 15.4,15.3085 V 457.309 c 0,8.476 -6.94,15.351 -15.4,15.351" /><path
         id="path20"
         style="fill:#0573ac;fill-opacity:1;fill-rule:nonzero;stroke:none"
         d="m 3262.15,689.281 c -50.87,0 -92.35,-41.41 -92.35,-92.273 0,-50.969 41.48,-92.336 92.35,-92.336 50.85,0 92.33,41.367 92.33,92.336 0,50.863 -41.48,92.273 -92.33,92.273" /><path
         id="path22"
         style="fill:#0573ac;fill-opacity:1;fill-rule:nonzero;stroke:none"
         d="m 3726.28,483.637 c -85.26,0 -131.64,-38.34 -151.65,-61.192 v 34.864 c 0,8.527 -6.93,15.351 -15.39,15.351 h -133.77 c -8.43,0 -15.36,-6.824 -15.36,-15.351 V 46.5898 c 0,-8.4179 6.93,-15.3085 15.36,-15.3085 h 133.77 c 8.46,0 15.39,6.8906 15.39,15.3085 V 303.637 c 10.64,12.09 30.59,34.707 70.33,34.707 42.51,0 64.03,-21.231 64.03,-62.969 V 46.5898 c 0,-8.4179 6.85,-15.3085 15.39,-15.3085 h 133.71 c 8.52,0 15.37,6.8906 15.37,15.3085 V 344.672 c 0,87.043 -54.99,138.965 -147.18,138.965" /><path
         id="path24"
         style="fill:#0573ac;fill-opacity:1;fill-rule:nonzero;stroke:none"
         d="m 2098.08,176.441 c -43.93,0 -79.45,35.575 -79.45,79.641 0,43.863 35.52,79.375 79.45,79.375 43.92,0 79.52,-35.512 79.52,-79.375 0,-44.066 -35.6,-79.641 -79.52,-79.641 m 0,309.227 c -128.7,0 -233.03,-104.355 -233.03,-232.871 0,-128.848 104.33,-233.1251 233.03,-233.1251 128.72,0 233.01,104.2771 233.01,233.1251 0,128.516 -104.29,232.871 -233.01,232.871" /><path
         id="path26"
         style="fill:#0573ac;fill-opacity:1;fill-rule:nonzero;stroke:none"
         d="m 4155.24,175.738 c -43.89,0 -79.45,35.672 -79.45,79.637 0,43.809 35.56,79.375 79.45,79.375 43.98,0 79.51,-35.566 79.51,-79.375 0,-43.965 -35.53,-79.637 -79.51,-79.637 m 0,309.219 c -128.63,0 -232.95,-104.309 -232.95,-232.941 0,-128.778 104.32,-233.0863 232.95,-233.0863 128.71,0 233.12,104.3083 233.12,233.0863 0,128.632 -104.41,232.941 -233.12,232.941" /><path
         id="path28"
         style="fill:#0573ac;fill-opacity:1;fill-rule:nonzero;stroke:none"
         d="m 4516.86,615.172 c -0.02,0.082 -0.02,0.164 -0.04,0.25 -0.02,0.109 -0.07,0.219 -0.09,0.336 -0.07,0.297 -0.12,0.648 -0.2,0.941 l -0.04,-0.027 c -10.31,45.93 -60.26,79.121 -109.53,68.933 -49.75,-10.3 -82.42,-56.601 -72.78,-103.218 7.98,-38.457 42.24,-65.203 81.92,-67.645 -2.55,-15.742 -16.45,-29.816 -28.02,-36.32 -7.74,-4.363 -3.09,-12.695 -3.09,-12.695 l 10.23,-15.157 c 2.95,-5.113 7.44,-7.722 12.73,-5.535 101.91,41.746 119.42,128.578 108.91,170.137" /><path
         id="path30"
         style="fill:#0573ac;fill-opacity:1;fill-rule:nonzero;stroke:none"
         d="m 4635.43,341.352 c -0.4,16.464 20.96,23.75 47.72,23.75 53.24,0 83.57,-15.184 117.52,-37.567 3.51,-2.394 7.87,-3.156 12.02,-2.16 4.13,0.996 7.69,3.652 9.76,7.383 l 45.16,78.535 c 4.11,7.246 1.67,16.445 -5.47,20.734 -37.11,22.149 -91.48,50.75 -185.87,50.75 -136.13,0 -209,-64.082 -196.81,-156.191 21.4,-161.895 273.15,-106.414 269.22,-161.66 -0.9,-12.781 -23.18,-22.305 -61.72,-22.305 -49.82,0 -106.43,24.961 -142.16,47.07 -3.52,2.207 -7.88,2.852 -11.87,1.797 -4.06,-1.054 -7.48,-3.633 -9.53,-7.304 l -52.18,-86.9652 c -3.95,-7.0274 -1.94,-15.8907 4.75,-20.379 50.11,-33.8085 130.97,-56.539 201.2,-56.539 136.27,0 214.83,58.5508 214.87,154.7342 0.03,177.508 -255.49,122.461 -256.61,166.317" /><path
         id="path32"
         style="fill:#ffffff;fill-opacity:1;fill-rule:nonzero;stroke:none"
         d="M 1085.3,785.227 785.148,1085.38 c -12.668,12.67 -29.507,19.64 -47.429,19.64 -17.914,0 -34.758,-6.97 -47.43,-19.64 L 438.57,833.664 19.6133,414.691 c -26.15236,-26.152 -26.15236,-68.711 0,-94.843 L 319.762,19.6484 C 332.438,7 349.277,0 367.191,0 c 17.918,0 34.762,7 47.434,19.6484 L 790.156,395.219 1085.3,690.371 c 26.15,26.145 26.15,68.692 0,94.856" /><path
         id="path34"
         style="fill:#e51635;fill-opacity:1;fill-rule:nonzero;stroke:none"
         d="m 800.102,677.109 c -16.993,-16.972 -39.305,-25.449 -61.485,-25.449 -22.207,0.012 -44.476,8.477 -61.484,25.449 -16.945,16.954 -25.492,39.258 -25.496,61.465 0.004,22.246 8.551,44.563 25.492,61.485 17.008,16.953 39.242,25.507 61.496,25.5 22.172,0 44.484,-8.477 61.477,-25.508 16.929,-16.914 25.496,-39.231 25.488,-61.477 0.008,-22.176 -8.559,-44.5 -25.488,-61.465 z m 263.968,86.778 -300.148,300.153 c -14.473,14.47 -37.934,14.47 -52.402,0 L 386.988,739.504 739.535,386.957 1064.07,711.484 c 14.47,14.473 14.47,37.93 0,52.403" /><path
         id="path36"
         style="fill:#0573ac;fill-opacity:1;fill-rule:nonzero;stroke:none"
         d="m 432.961,426.469 c 16.965,17.011 39.246,25.488 61.465,25.488 22.242,0 44.519,-8.477 61.465,-25.488 17.043,-16.973 25.535,-39.18 25.535,-61.485 0,-22.207 -8.492,-44.492 -25.535,-61.425 -16.946,-16.895 -39.223,-25.43 -61.465,-25.45 -22.235,0 -44.5,8.536 -61.461,25.45 -16.988,16.992 -25.485,39.257 -25.485,61.425 0,22.246 8.497,44.512 25.481,61.485 z M 300.773,307.016 c -17.019,-16.875 -39.293,-25.371 -61.503,-25.371 -22.266,0.019 -44.524,8.476 -61.5,25.371 -16.997,16.953 -25.426,39.238 -25.426,61.445 0,22.246 8.472,44.531 25.429,61.562 16.973,16.934 39.231,25.411 61.497,25.411 22.21,0 44.519,-8.477 61.503,-25.43 16.961,-17.012 25.415,-39.297 25.395,-61.504 0,-22.227 -8.438,-44.551 -25.395,-61.484 z M 40.8398,393.48 c -14.4726,-14.492 -14.4726,-37.949 0,-52.421 L 340.992,40.8789 c 7.235,-7.2187 16.719,-10.8398 26.199,-10.8398 9.485,0 18.973,3.6211 26.207,10.8398 L 717.77,365.277 365.211,717.844 40.8398,393.48" /><path
         id="path38"
         style="fill:#0573ac;fill-opacity:1;fill-rule:nonzero;stroke:none"
         d="m 4939.89,462.762 h 5.47 c 3.64,0 6.21,0.593 7.7,1.785 1.49,1.191 2.23,2.726 2.23,4.605 0,1.883 -0.71,3.418 -2.14,4.61 -1.43,1.187 -3.86,1.785 -7.29,1.785 h -5.97 z m -12.6,21.683 h 22.66 c 6.42,0 11.07,-1.304 13.94,-3.918 2.88,-2.609 4.32,-6.109 4.32,-10.496 0,-3.426 -1.1,-6.394 -3.29,-8.898 -2.2,-2.508 -5.65,-4.328 -10.37,-5.453 1.94,-0.754 3.37,-1.547 4.28,-2.383 1.29,-1.168 2.63,-2.902 4.04,-5.203 0.08,-0.168 2.81,-5.098 8.19,-14.789 h -14.9 c -4.84,9.734 -8.09,15.55 -9.75,17.453 -1.65,1.902 -3.31,2.851 -4.96,2.851 -0.38,0 -0.89,-0.062 -1.56,-0.187 v -20.117 h -12.6 z m 59.73,-25.57 c 0,10.656 -3.73,19.754 -11.21,27.293 -7.47,7.543 -16.48,11.312 -27.04,11.312 -10.55,0 -19.57,-3.769 -27.04,-11.312 -7.47,-7.539 -11.2,-16.637 -11.2,-27.293 0,-10.656 3.73,-19.754 11.2,-27.297 7.47,-7.539 16.49,-11.308 27.04,-11.308 10.56,0 19.57,3.769 27.04,11.308 7.48,7.543 11.21,16.641 11.21,27.297 z m 9.19,0 c 0,-8.566 -2.12,-16.547 -6.36,-23.941 -4.25,-7.395 -10.03,-13.223 -17.36,-17.489 -7.32,-4.261 -15.23,-6.39 -23.72,-6.39 -8.44,0 -16.33,2.129 -23.65,6.39 -7.33,4.266 -13.12,10.094 -17.36,17.489 -4.24,7.394 -6.36,15.375 -6.36,23.941 0,8.523 2.12,16.492 6.36,23.91 4.24,7.418 10.03,13.258 17.36,17.516 7.32,4.262 15.21,6.394 23.65,6.394 8.49,0 16.4,-2.132 23.72,-6.394 7.33,-4.258 13.11,-10.098 17.36,-17.516 4.24,-7.418 6.36,-15.387 6.36,-23.91" /><path
         id="path40"
         style="fill:#0573ac;fill-opacity:1;fill-rule:nonzero;stroke:none"
         d="m 581.98,99.0898 h 5.461 c 3.645,0 6.211,0.5899 7.704,1.7812 1.488,1.188 2.234,2.731 2.234,4.609 0,1.879 -0.715,3.415 -2.145,4.606 -1.425,1.191 -3.859,1.789 -7.293,1.789 h -5.961 z m -12.605,21.6832 h 22.664 c 6.414,0 11.063,-1.304 13.938,-3.918 2.878,-2.613 4.316,-6.109 4.316,-10.5 0,-3.425 -1.098,-6.3941 -3.289,-8.8941 -2.195,-2.5117 -5.652,-4.332 -10.371,-5.4492 1.945,-0.7617 3.371,-1.5508 4.285,-2.3906 1.281,-1.1719 2.629,-2.9023 4.035,-5.1992 0.082,-0.1719 2.817,-5.1016 8.195,-14.793 h -14.902 c -4.844,9.7422 -8.09,15.5508 -9.75,17.4609 -1.652,1.8985 -3.308,2.8516 -4.965,2.8516 -0.375,0 -0.89,-0.0703 -1.551,-0.1914 V 69.6289 h -12.605 z m 59.73,-25.5738 c 0,10.6558 -3.734,19.7538 -11.207,27.2968 -7.472,7.543 -16.484,11.313 -27.039,11.313 -10.554,0 -19.57,-3.77 -27.043,-11.313 -7.472,-7.543 -11.207,-16.641 -11.207,-27.2968 0,-10.6484 3.735,-19.75 11.207,-27.289 7.473,-7.5391 16.489,-11.3086 27.043,-11.3086 10.555,0 19.567,3.7695 27.039,11.3086 7.473,7.539 11.207,16.6406 11.207,27.289 z m 9.192,0 c 0,-8.5586 -2.121,-16.539 -6.367,-23.9375 -4.242,-7.4023 -10.028,-13.2226 -17.356,-17.4922 -7.324,-4.2578 -15.23,-6.3906 -23.715,-6.3906 -8.445,0 -16.332,2.1328 -23.66,6.3906 -7.324,4.2696 -13.109,10.0899 -17.351,17.4922 -4.243,7.3985 -6.364,15.3789 -6.364,23.9375 0,8.5198 2.121,16.4958 6.364,23.9138 4.242,7.414 10.027,13.254 17.351,17.516 7.328,4.262 15.215,6.394 23.66,6.394 8.485,0 16.391,-2.132 23.715,-6.394 7.328,-4.262 13.114,-10.102 17.356,-17.516 4.246,-7.418 6.367,-15.394 6.367,-23.9138" /></g></g></svg>