<?xml version="1.0" encoding="UTF-8" standalone="no"?>
<svg
   xmlns:dc="http://purl.org/dc/elements/1.1/"
   xmlns:cc="http://creativecommons.org/ns#"
   xmlns:rdf="http://www.w3.org/1999/02/22-rdf-syntax-ns#"
   xmlns:svg="http://www.w3.org/2000/svg"
   xmlns="http://www.w3.org/2000/svg"
   xmlns:sodipodi="http://sodipodi.sourceforge.net/DTD/sodipodi-0.dtd"
   xmlns:inkscape="http://www.inkscape.org/namespaces/inkscape"
   version="1.1"
   id="svg2"
   xml:space="preserve"
   width="476.22668"
   height="226.77333"
   viewBox="0 0 476.22668 226.77333"
   sodipodi:docname="Experian BM TM CMYK N.eps"><metadata
     id="metadata8"><rdf:RDF><cc:Work
         rdf:about=""><dc:format>image/svg+xml</dc:format><dc:type
           rdf:resource="http://purl.org/dc/dcmitype/StillImage" /></cc:Work></rdf:RDF></metadata><defs
     id="defs6" /><sodipodi:namedview
     pagecolor="#ffffff"
     bordercolor="#666666"
     borderopacity="1"
     objecttolerance="10"
     gridtolerance="10"
     guidetolerance="10"
     inkscape:pageopacity="0"
     inkscape:pageshadow="2"
     inkscape:window-width="640"
     inkscape:window-height="480"
     id="namedview4" /><g
     id="g10"
     inkscape:groupmode="layer"
     inkscape:label="ink_ext_XXXXXX"
     transform="matrix(1.3333333,0,0,-1.3333333,0,226.77333)"><g
       id="g12"
       transform="scale(0.1)"><path
         d="M 840.043,1105.52 H 730.824 c -32.504,0 -58.789,26.33 -58.789,58.78 v 109.24 c 0,32.42 26.285,58.75 58.789,58.75 h 109.219 c 32.461,0 58.766,-26.33 58.766,-58.75 V 1164.3 c 0,-32.45 -26.305,-58.78 -58.766,-58.78"
         style="fill:#2174c4;fill-opacity:1;fill-rule:nonzero;stroke:none"
         id="path14" /><path
         d="M 557.496,860.688 H 434.625 c -36.504,0 -66.117,29.531 -66.117,66.097 v 122.905 c 0,36.49 29.613,66.11 66.117,66.11 h 122.871 c 36.524,0 66.125,-29.62 66.125,-66.11 V 926.785 c 0,-36.566 -29.601,-66.097 -66.125,-66.097"
         style="fill:#682085;fill-opacity:1;fill-rule:nonzero;stroke:none"
         id="path16" /><path
         d="m 545.797,605.648 h -75.043 c -22.313,0 -40.441,18.063 -40.441,40.411 v 75.019 c 0,22.383 18.128,40.473 40.441,40.473 h 75.043 c 22.316,0 40.418,-18.09 40.418,-40.473 v -75.019 c 0,-22.348 -18.102,-40.411 -40.418,-40.411"
         style="fill:#ab1992;fill-opacity:1;fill-rule:nonzero;stroke:none"
         id="path18" /><path
         d="m 747.297,368.512 h -88.738 c -26.375,0 -47.758,21.328 -47.758,47.75 V 505 c 0,26.422 21.383,47.762 47.758,47.762 h 88.738 c 26.375,0 47.758,-21.34 47.758,-47.762 v -88.738 c 0,-26.422 -21.383,-47.75 -47.758,-47.75"
         style="fill:#ee1495;fill-opacity:1;fill-rule:nonzero;stroke:none"
         id="path20" /><path
         d="m 1072.49,1060.84 h -61.48 c -18.272,0 -33.065,14.83 -33.065,33.04 v 61.41 c 0,18.26 14.793,33.1 33.065,33.1 h 61.48 c 18.25,0 33.01,-14.84 33.01,-33.1 v -61.41 c 0,-18.21 -14.76,-33.04 -33.01,-33.04"
         style="fill:#ee1495;fill-opacity:1;fill-rule:nonzero;stroke:none"
         id="path22" /><path
         d="m 2417.88,1019.8 c 19.54,0 35.36,15.82 35.36,35.41 0,19.56 -15.82,35.46 -35.36,35.46 -19.55,0 -35.51,-15.9 -35.51,-35.46 0,-19.59 15.96,-35.41 35.51,-35.41"
         style="fill:#1e4b9b;fill-opacity:1;fill-rule:nonzero;stroke:none"
         id="path24" /><path
         d="m 1124.6,641.871 c -5.47,-8.223 -14.38,-12.32 -23.97,-12.32 -5.47,0 -11.64,1.359 -16.44,4.097 -7.52,4.801 -13.01,15.071 -13.01,25.34 0,4.801 1.37,9.602 4.11,13.703 l 82.2,129.434 -82.2,129.438 c -2.74,4.109 -4.11,9.589 -4.11,14.394 0,9.578 4.8,19.852 13.71,24.656 4.78,2.735 9.59,4.102 15.06,4.102 9.59,0 19.18,-4.102 24.65,-12.332 l 67.12,-106.149 67.8,106.149 c 5.48,8.23 15.07,12.332 24.66,12.332 5.48,0 10.28,-1.367 15.06,-4.102 8.91,-4.804 13.69,-15.078 13.69,-24.656 0,-4.805 -1.36,-10.285 -4.1,-14.394 l -82.18,-129.438 82.18,-129.434 c 2.74,-4.101 4.1,-8.902 4.1,-13.703 0,-10.269 -5.46,-20.539 -13,-25.34 -4.79,-2.738 -10.96,-4.097 -16.44,-4.097 -9.58,0 -18.49,4.097 -23.97,12.32 l -67.8,105.469 -67.12,-105.469"
         style="fill:#1e4b9b;fill-opacity:1;fill-rule:nonzero;stroke:none"
         id="path26" /><path
         d="m 1535.42,920.59 c -65.76,0 -117.81,-52.031 -117.81,-118.465 0,-65.754 52.05,-117.797 117.81,-117.797 66.44,0 118.47,52.043 118.47,117.797 0,66.434 -52.03,118.465 -118.47,118.465 z m -117.81,13.715 c 30.82,28.078 72.6,45.195 117.81,45.195 98.63,0 177.39,-78.762 177.39,-177.375 0,-97.266 -78.76,-176.016 -177.39,-176.016 -45.21,0 -86.99,17.129 -117.81,45.2 V 519.961 c 0,-15.07 -13.69,-28.082 -29.43,-28.082 -14.4,0 -28.77,13.012 -28.77,28.082 v 428.73 c 0,15.059 14.37,28.075 28.77,28.075 15.74,0 29.43,-13.016 29.43,-28.075 v -14.386"
         style="fill:#1e4b9b;fill-opacity:1;fill-rule:nonzero;stroke:none"
         id="path28" /><path
         d="M 2214.22,834.313 V 656.941 c 0,-15.07 -14.39,-28.082 -28.77,-28.082 -15.76,0 -29.45,13.012 -29.45,28.082 v 291.75 c 0,15.067 13.69,28.075 29.45,28.075 13.72,0 28.07,-12.325 28.77,-26.707 23.97,18.484 54.79,28.769 88.34,29.441 18.5,0 32.18,-14.375 32.18,-28.758 0,-15.742 -14.36,-30.133 -32.18,-30.133 -45.88,-1.367 -88.34,-17.812 -88.34,-86.296"
         style="fill:#1e4b9b;fill-opacity:1;fill-rule:nonzero;stroke:none"
         id="path30" /><path
         d="m 2418.29,976.766 c -15.75,0 -29.44,-13.008 -29.44,-28.075 v -291.75 c 0,-15.07 13.69,-28.082 29.44,-28.082 14.39,0 28.77,13.012 28.77,28.082 v 291.75 c 0,15.067 -14.38,28.075 -28.77,28.075"
         style="fill:#1e4b9b;fill-opacity:1;fill-rule:nonzero;stroke:none"
         id="path32" /><path
         d="m 2672.37,685.012 c 65.75,0 117.83,52.054 117.83,118.476 0,65.754 -52.08,117.793 -117.83,117.793 -66.43,0 -118.46,-52.039 -118.46,-117.793 0,-66.422 52.03,-118.476 118.46,-118.476 z m 117.83,263.679 c 0,15.067 13.67,28.075 29.43,28.075 14.39,0 28.77,-13.008 28.77,-28.075 v -291.75 c 0,-15.07 -14.38,-28.082 -28.77,-28.082 -15.76,0 -29.43,13.012 -29.43,28.082 v 14.379 c -31.5,-28.07 -72.62,-45.191 -117.83,-45.191 -98.62,0 -177.37,78.738 -177.37,177.359 0,97.25 78.75,176.012 177.37,176.012 45.21,0 86.33,-17.117 117.83,-45.203 v 14.394"
         style="fill:#1e4b9b;fill-opacity:1;fill-rule:nonzero;stroke:none"
         id="path34" /><path
         d="m 3144.95,830.895 c 0,48.613 -42.46,91.082 -91.1,91.082 -47.25,0 -91.09,-19.18 -91.09,-87.664 V 656.941 c 0,-15.07 -14.38,-28.082 -28.77,-28.082 -15.76,0 -29.43,13.012 -29.43,28.082 v 291.75 c 0,15.067 13.67,28.075 29.43,28.075 13.7,0 28.09,-12.325 28.77,-26.707 24.67,19.187 56.17,29.441 90.39,29.441 79.45,0 150,-62.328 150,-140.387 V 656.941 c 0,-15.07 -14.36,-28.082 -28.75,-28.082 -15.76,0 -29.45,13.012 -29.45,28.082 v 173.954"
         style="fill:#1e4b9b;fill-opacity:1;fill-rule:nonzero;stroke:none"
         id="path36" /><path
         d="m 878.984,921.281 c 53.11,0 97.231,-34.082 112.289,-81.57 H 765.996 c 15.059,47.488 59.238,81.57 112.988,81.57 z M 1054.99,813.07 c -1.37,89.727 -81.49,166.43 -176.006,166.43 -98.632,0 -177.382,-78.762 -177.382,-176.012 0,-98.621 78.75,-177.359 177.382,-177.359 47.25,0 91.098,18.48 122.596,49.98 6.16,5.481 10.27,13.7 10.27,21.922 0,15.742 -13.702,29.446 -29.452,29.446 -8.898,0 -17.121,-5.481 -23.281,-11.653 -19.875,-21.222 -49.312,-30.812 -80.133,-30.812 -58.886,0 -106.796,40.363 -117.109,96.5 h 264.365 c 0.19,0 0.37,0.07 0.56,0.07 h 0.8 c 0.49,0.047 0.98,0.215 1.48,0.293 1.01,0.145 2.02,0.293 3,0.586 12.48,3.359 22.91,15.297 22.91,30.609"
         style="fill:#1e4b9b;fill-opacity:1;fill-rule:nonzero;stroke:none"
         id="path38" /><path
         d="m 1930.71,921.281 c 53.09,0 97.23,-34.082 112.3,-81.57 H 1817.7 c 15.06,47.488 59.24,81.57 113.01,81.57 z M 2106.72,813.07 c -1.38,89.727 -81.51,166.43 -176.01,166.43 -98.63,0 -177.42,-78.762 -177.42,-176.012 0,-98.621 78.79,-177.359 177.42,-177.359 47.24,0 91.08,18.48 122.58,49.98 6.17,5.481 10.27,13.7 10.27,21.922 0,15.742 -13.69,29.446 -29.43,29.446 -8.92,0 -17.15,-5.481 -23.3,-11.653 -19.87,-21.222 -49.32,-30.812 -80.12,-30.812 -58.89,0 -106.82,40.363 -117.12,96.5 h 263.91 c 0.18,0 0.38,0.07 0.55,0.07 h 1.26 c 0.79,0.066 1.56,0.313 2.35,0.469 0.4,0.086 0.81,0.117 1.2,0.234 12.89,2.977 23.86,15.102 23.86,30.785"
         style="fill:#1e4b9b;fill-opacity:1;fill-rule:nonzero;stroke:none"
         id="path40" /><path
         d="m 3264.86,628.672 c -2.67,0 -4.84,2.098 -4.84,4.68 v 49.418 h -11.05 c -2.58,0 -4.67,2.179 -4.67,4.851 0,2.758 2,4.84 4.67,4.84 h 31.94 c 2.67,0 4.68,-2.082 4.68,-4.84 0,-2.672 -2.1,-4.851 -4.68,-4.851 h -11.21 v -49.418 c 0,-2.672 -2.08,-4.68 -4.84,-4.68"
         style="fill:#1e4b9b;fill-opacity:1;fill-rule:nonzero;stroke:none"
         id="path42" /><path
         d="m 3321.99,628.59 c -2.66,0 -4.21,1.941 -4.79,3.75 l -13.76,40.43 v -39.418 c 0,-2.672 -2.08,-4.68 -4.83,-4.68 -2.68,0 -4.85,2.098 -4.85,4.68 V 685.5 c 0,3.879 3.4,7.281 7.29,7.281 3.09,0 5.96,-2.211 6.98,-5.371 l 13.96,-40.781 13.8,40.793 c 1.02,3.148 3.92,5.359 7.06,5.359 3.88,0 7.28,-3.402 7.28,-7.281 v -52.148 c 0,-2.672 -2.08,-4.68 -4.83,-4.68 -2.68,0 -4.85,2.098 -4.85,4.68 v 39.308 c -2.14,-6.289 -5.43,-16.012 -8.08,-23.89 -5.48,-16.239 -5.51,-16.29 -5.59,-16.45 -1.06,-2.449 -2.68,-3.73 -4.79,-3.73"
         style="fill:#1e4b9b;fill-opacity:1;fill-rule:nonzero;stroke:none"
         id="path44" /></g></g></svg>
