<?xml version="1.0" encoding="UTF-8" standalone="no"?>
<svg
   xmlns:dc="http://purl.org/dc/elements/1.1/"
   xmlns:cc="http://creativecommons.org/ns#"
   xmlns:rdf="http://www.w3.org/1999/02/22-rdf-syntax-ns#"
   xmlns:svg="http://www.w3.org/2000/svg"
   xmlns="http://www.w3.org/2000/svg"
   xmlns:sodipodi="http://sodipodi.sourceforge.net/DTD/sodipodi-0.dtd"
   xmlns:inkscape="http://www.inkscape.org/namespaces/inkscape"
   version="1.1"
   id="svg2"
   xml:space="preserve"
   width="727.53333"
   height="174.97333"
   viewBox="0 0 727.53333 174.97333"
   sodipodi:docname="Logo Paysafe_1.eps"><metadata
     id="metadata8"><rdf:RDF><cc:Work
         rdf:about=""><dc:format>image/svg+xml</dc:format><dc:type
           rdf:resource="http://purl.org/dc/dcmitype/StillImage" /></cc:Work></rdf:RDF></metadata><defs
     id="defs6" /><sodipodi:namedview
     pagecolor="#ffffff"
     bordercolor="#666666"
     borderopacity="1"
     objecttolerance="10"
     gridtolerance="10"
     guidetolerance="10"
     inkscape:pageopacity="0"
     inkscape:pageshadow="2"
     inkscape:window-width="640"
     inkscape:window-height="480"
     id="namedview4" /><g
     id="g10"
     inkscape:groupmode="layer"
     inkscape:label="ink_ext_XXXXXX"
     transform="matrix(1.3333333,0,0,-1.3333333,0,174.97333)"><g
       id="g12"
       transform="scale(0.1)"><path
         d="m 5300.19,685.938 c 86.31,0 156.29,69.976 156.29,156.292 0,86.317 -69.98,156.293 -156.29,156.293 -86.32,0 -156.3,-69.976 -156.3,-156.293 0,-86.316 69.98,-156.292 156.3,-156.292"
         style="fill:#787cc6;fill-opacity:1;fill-rule:nonzero;stroke:none"
         id="path14" /><path
         d="m 5300.19,509.383 c -86.32,0 -156.3,-69.973 -156.3,-156.289 0,-86.324 69.98,-156.293 156.3,-156.293 86.31,0 156.29,69.969 156.29,156.293 0,86.316 -69.98,156.289 -156.29,156.289"
         style="fill:#ef3170;fill-opacity:1;fill-rule:nonzero;stroke:none"
         id="path16" /><path
         d="m 4490.08,675.727 c 9,102.093 61.55,154.64 127.61,154.64 66.06,0 118.61,-52.547 127.62,-154.64 z m 127.61,322.789 c -213.2,0 -378.34,-169.649 -378.34,-405.364 0,-241.714 156.14,-396.351 405.36,-396.351 v 0 c 69.48,0 206.91,12.539 312.88,85.898 l -66.98,148.852 c -71.82,-40.746 -144.63,-59.094 -209.86,-59.094 v 0 c -5.68,0 -11.25,0.219 -16.76,0.539 -1.24,0.074 -2.49,0.141 -3.73,0.231 -5.23,0.375 -10.38,0.882 -15.45,1.562 -1.16,0.156 -2.27,0.352 -3.42,0.524 -4.11,0.609 -8.15,1.339 -12.13,2.156 -1.41,0.289 -2.84,0.543 -4.22,0.855 -4.11,0.93 -8.12,2.031 -12.08,3.188 -2.16,0.633 -4.3,1.281 -6.38,1.976 -2.86,0.942 -5.65,1.977 -8.42,3.047 -3.16,1.223 -6.24,2.512 -9.24,3.883 -0.89,0.402 -1.77,0.836 -2.65,1.258 -4.88,2.332 -9.57,4.82 -14.03,7.515 -0.13,0.075 -0.26,0.153 -0.39,0.231 -9.94,6.051 -18.88,12.98 -26.86,20.652 -0.11,0.114 -0.23,0.227 -0.23,0.227 -3.41,3.293 -6.49,6.621 -9.44,10.035 -1.15,1.332 -2.29,2.66 -3.39,4.039 -1.71,2.105 -3.36,4.254 -4.96,6.441 -2.68,3.727 -5.31,7.512 -7.74,11.567 -0.07,0.113 -0.15,0.222 -0.15,0.222 -15.21,25.583 -25.26,57.633 -29,97 v 0.008 0.004 h 497.81 v 59.809 c 0,224.531 -157.01,389.09 -370.2,389.09 z M 2042.36,980.508 1877.18,522.98 1687.51,980.508 H 1441.62 L 1765.48,250.852 1664.45,0 h 228.59 l 387.99,980.508 z M 370.781,773.375 H 246.207 v 297.185 h 124.574 c 88.629,0 138.141,-61.49 138.141,-150.119 0,-94.621 -55.567,-147.066 -138.141,-147.066 z m 27.078,477.385 H 0 V 214.82 h 246.207 v 378.36 h 151.652 c 199.633,0 349.809,124.574 349.809,336.304 0,183.126 -112.652,321.276 -349.809,321.276 z M 1195.64,382.969 c -22.52,-16.516 -57.06,-30.031 -94.59,-30.031 -60.05,0 -100.59,34.531 -100.59,90.082 0,63.058 49.69,124.742 195.18,100.589 z m -55.51,615.547 c -148.634,0 -265.732,-46.539 -337.802,-91.582 l 66.059,-136.621 c 43.543,19.519 135.123,54.05 213.193,54.05 55.55,0 105.09,-19.519 105.09,-78.07 V 695.242 C 855.563,718.805 760.391,573.137 760.391,438.613 c 0,-131.465 111.281,-241.812 257.779,-241.812 57.8,0 120.51,21.84 168.5,51.961 V 214.82 h 240.22 v 532.973 c 0,172.652 -109.6,250.723 -286.76,250.723 z M 3380.09,382.969 c -22.51,-16.516 -57.05,-30.031 -94.58,-30.031 -60.05,0 -100.59,34.531 -100.59,90.082 0,63.058 49.69,124.742 195.17,100.589 z m -46.54,615.547 c -148.63,0 -265.73,-46.539 -337.8,-91.582 l 66.06,-136.621 c 43.54,19.519 135.12,54.05 213.19,54.05 55.55,0 105.09,-19.519 105.09,-78.07 v -51.051 c -331.11,23.563 -426.28,-122.105 -426.28,-256.629 0,-131.465 111.29,-241.812 257.78,-241.812 57.8,0 120.52,21.84 168.5,51.961 V 214.82 h 240.22 v 532.973 c 0,172.652 -109.6,250.723 -286.76,250.723 z M 2528.17,764.309 c 0,36.031 36.03,58.554 96.08,58.554 63.05,0 129.11,-22.523 177.16,-43.539 l 67.56,157.637 c -63.06,31.531 -159.15,61.555 -256.73,61.555 -178.67,0 -322.79,-81.075 -322.79,-243.215 0,-255.231 360.32,-208.688 360.32,-321.289 0,-42.035 -42.04,-63.055 -112.6,-63.055 -72.06,0 -141.13,24.023 -195.17,51.047 l -76.57,-154.633 c 90.08,-48.051 195.17,-70.57 292.76,-70.57 174.15,0 324.28,90.078 324.28,255.226 0,252.223 -354.3,210.192 -354.3,312.282 z M 3816.72,1012.04 V 980.512 H 3689.11 V 816.863 h 127.61 V 214.82 h 238.71 v 602.043 h 165.15 v 163.649 h -165.15 v 40.538 c 0,67.56 27.03,115.6 100.6,115.6 22.52,0 51.05,-4.5 70.56,-10.51 v 171.16 c -33.04,9.01 -70.56,15.01 -114.1,15.01 -193.67,0 -295.77,-118.61 -295.77,-300.27"
         style="fill:#31284f;fill-opacity:1;fill-rule:nonzero;stroke:none"
         id="path18" /></g></g></svg>
