<?xml version="1.0" encoding="UTF-8" standalone="no"?>
<svg
   xmlns:dc="http://purl.org/dc/elements/1.1/"
   xmlns:cc="http://creativecommons.org/ns#"
   xmlns:rdf="http://www.w3.org/1999/02/22-rdf-syntax-ns#"
   xmlns:svg="http://www.w3.org/2000/svg"
   xmlns="http://www.w3.org/2000/svg"
   xmlns:sodipodi="http://sodipodi.sourceforge.net/DTD/sodipodi-0.dtd"
   xmlns:inkscape="http://www.inkscape.org/namespaces/inkscape"
   version="1.1"
   id="svg2"
   xml:space="preserve"
   width="96"
   height="47.493332"
   viewBox="0 0 96 47.493332"
   sodipodi:docname="SAP_grad_R_pref.eps"><metadata
     id="metadata8"><rdf:RDF><cc:Work
         rdf:about=""><dc:format>image/svg+xml</dc:format><dc:type
           rdf:resource="http://purl.org/dc/dcmitype/StillImage" /></cc:Work></rdf:RDF></metadata><defs
     id="defs6"><clipPath
       clipPathUnits="userSpaceOnUse"
       id="clipPath16"><path
         d="M -100,-100 V 100 H 100 V -100 Z"
         id="path14" /></clipPath><pattern
       patternTransform="matrix(-1.56e-5,-356.187,-356.187,1.56e-5,359.871,355.871)"
       patternUnits="userSpaceOnUse"
       x="0"
       y="0"
       width="20"
       height="20"
       id="pattern128"><g
         transform="scale(0.1)"
         id="g126"><g
           id="g124"><g
             clip-path="url(#clipPath16)"
             id="g122"><path
               d="m -100,-100 100,0 0,200 -100,0 0,-200 z"
               style="fill:#56bdee;fill-opacity:1;fill-rule:nonzero;stroke:none"
               id="path18" /><path
               d="m 0,-100 0.199219,0 0,200 L 0,100 0,-100 Z"
               style="fill:#56bdee;fill-opacity:1;fill-rule:nonzero;stroke:none"
               id="path20" /><path
               d="m 0.199219,-100 0.199219,0 0,200 -0.199219,0 0,-200 z"
               style="fill:#53b9eb;fill-opacity:1;fill-rule:nonzero;stroke:none"
               id="path22" /><path
               d="m 0.398438,-100 0.199219,0 0,200 -0.199219,0 0,-200 z"
               style="fill:#52b5e9;fill-opacity:1;fill-rule:nonzero;stroke:none"
               id="path24" /><path
               d="m 0.597656,-100 0.199219,0 0,200 -0.199219,0 0,-200 z"
               style="fill:#51b2e8;fill-opacity:1;fill-rule:nonzero;stroke:none"
               id="path26" /><path
               d="m 0.796875,-100 0.199219,0 0,200 -0.199219,0 0,-200 z"
               style="fill:#50b0e7;fill-opacity:1;fill-rule:nonzero;stroke:none"
               id="path28" /><path
               d="m 0.996094,-100 0.203125,0 0,200 -0.203125,0 0,-200 z"
               style="fill:#4eabe4;fill-opacity:1;fill-rule:nonzero;stroke:none"
               id="path30" /><path
               d="m 1.19922,-100 0.199219,0 0,200 -0.199219,0 0,-200 z"
               style="fill:#4ea9e2;fill-opacity:1;fill-rule:nonzero;stroke:none"
               id="path32" /><path
               d="m 1.39844,-100 0.199219,0 0,200 -0.199219,0 0,-200 z"
               style="fill:#4ca6e1;fill-opacity:1;fill-rule:nonzero;stroke:none"
               id="path34" /><path
               d="m 1.59766,-100 0.199219,0 0,200 -0.199219,0 0,-200 z"
               style="fill:#4ba3df;fill-opacity:1;fill-rule:nonzero;stroke:none"
               id="path36" /><path
               d="m 1.79688,-100 0.199219,0 0,200 -0.199219,0 0,-200 z"
               style="fill:#4ba0de;fill-opacity:1;fill-rule:nonzero;stroke:none"
               id="path38" /><path
               d="m 1.99609,-100 0.203125,0 0,200 -0.203125,0 0,-200 z"
               style="fill:#4a9ddc;fill-opacity:1;fill-rule:nonzero;stroke:none"
               id="path40" /><path
               d="m 2.19922,-100 0.199219,0 0,200 -0.199219,0 0,-200 z"
               style="fill:#4a9bda;fill-opacity:1;fill-rule:nonzero;stroke:none"
               id="path42" /><path
               d="m 2.39844,-100 0.199219,0 0,200 -0.199219,0 0,-200 z"
               style="fill:#4897d8;fill-opacity:1;fill-rule:nonzero;stroke:none"
               id="path44" /><path
               d="m 2.59766,-100 0.199219,0 0,200 -0.199219,0 0,-200 z"
               style="fill:#4795d7;fill-opacity:1;fill-rule:nonzero;stroke:none"
               id="path46" /><path
               d="m 2.79688,-100 0.199219,0 0,200 -0.199219,0 0,-200 z"
               style="fill:#4792d6;fill-opacity:1;fill-rule:nonzero;stroke:none"
               id="path48" /><path
               d="m 2.99609,-100 0.203125,0 0,200 -0.203125,0 0,-200 z"
               style="fill:#4590d4;fill-opacity:1;fill-rule:nonzero;stroke:none"
               id="path50" /><path
               d="m 3.19922,-100 0.199219,0 0,200 -0.199219,0 0,-200 z"
               style="fill:#448cd2;fill-opacity:1;fill-rule:nonzero;stroke:none"
               id="path52" /><path
               d="m 3.39844,-100 0.199219,0 0,200 -0.199219,0 0,-200 z"
               style="fill:#448ad0;fill-opacity:1;fill-rule:nonzero;stroke:none"
               id="path54" /><path
               d="m 3.59766,-100 0.199219,0 0,200 -0.199219,0 0,-200 z"
               style="fill:#4388cf;fill-opacity:1;fill-rule:nonzero;stroke:none"
               id="path56" /><path
               d="m 3.79688,-100 0.203125,0 0,200 -0.203125,0 0,-200 z"
               style="fill:#4385ce;fill-opacity:1;fill-rule:nonzero;stroke:none"
               id="path58" /><path
               d="m 4,-100 0.199219,0 0,200 L 4,100 4,-100 Z"
               style="fill:#4283cc;fill-opacity:1;fill-rule:nonzero;stroke:none"
               id="path60" /><path
               d="m 4.19922,-100 0.199219,0 0,200 -0.199219,0 0,-200 z"
               style="fill:#4181cb;fill-opacity:1;fill-rule:nonzero;stroke:none"
               id="path62" /><path
               d="m 4.39844,-100 0.199219,0 0,200 -0.199219,0 0,-200 z"
               style="fill:#407ec9;fill-opacity:1;fill-rule:nonzero;stroke:none"
               id="path64" /><path
               d="m 4.59766,-100 0.199219,0 0,200 -0.199219,0 0,-200 z"
               style="fill:#3f7cc8;fill-opacity:1;fill-rule:nonzero;stroke:none"
               id="path66" /><path
               d="m 4.79688,-100 0.203125,0 0,200 -0.203125,0 0,-200 z"
               style="fill:#3f7ac7;fill-opacity:1;fill-rule:nonzero;stroke:none"
               id="path68" /><path
               d="m 5,-100 0.199219,0 0,200 L 5,100 5,-100 Z"
               style="fill:#3e79c6;fill-opacity:1;fill-rule:nonzero;stroke:none"
               id="path70" /><path
               d="m 5.19922,-100 0.199219,0 0,200 -0.199219,0 0,-200 z"
               style="fill:#3f76c4;fill-opacity:1;fill-rule:nonzero;stroke:none"
               id="path72" /><path
               d="m 5.39844,-100 0.199219,0 0,200 -0.199219,0 0,-200 z"
               style="fill:#3e75c3;fill-opacity:1;fill-rule:nonzero;stroke:none"
               id="path74" /><path
               d="m 5.59766,-100 0.199219,0 0,200 -0.199219,0 0,-200 z"
               style="fill:#3d72c2;fill-opacity:1;fill-rule:nonzero;stroke:none"
               id="path76" /><path
               d="m 5.79688,-100 0.199219,0 0,200 -0.199219,0 0,-200 z"
               style="fill:#3e70c0;fill-opacity:1;fill-rule:nonzero;stroke:none"
               id="path78" /><path
               d="m 5.99609,-100 0.203125,0 0,200 -0.203125,0 0,-200 z"
               style="fill:#3d6fbf;fill-opacity:1;fill-rule:nonzero;stroke:none"
               id="path80" /><path
               d="m 6.19922,-100 0.199219,0 0,200 -0.199219,0 0,-200 z"
               style="fill:#3d6dbe;fill-opacity:1;fill-rule:nonzero;stroke:none"
               id="path82" /><path
               d="m 6.39844,-100 0.199219,0 0,200 -0.199219,0 0,-200 z"
               style="fill:#3c6bbd;fill-opacity:1;fill-rule:nonzero;stroke:none"
               id="path84" /><path
               d="m 6.59766,-100 0.199219,0 0,200 -0.199219,0 0,-200 z"
               style="fill:#3c6abc;fill-opacity:1;fill-rule:nonzero;stroke:none"
               id="path86" /><path
               d="m 6.79688,-100 0.199219,0 0,200 -0.199219,0 0,-200 z"
               style="fill:#3c68bb;fill-opacity:1;fill-rule:nonzero;stroke:none"
               id="path88" /><path
               d="m 6.99609,-100 0.203125,0 0,200 -0.203125,0 0,-200 z"
               style="fill:#3b67ba;fill-opacity:1;fill-rule:nonzero;stroke:none"
               id="path90" /><path
               d="m 7.19922,-100 0.199219,0 0,200 -0.199219,0 0,-200 z"
               style="fill:#3b65b9;fill-opacity:1;fill-rule:nonzero;stroke:none"
               id="path92" /><path
               d="m 7.39844,-100 0.199219,0 0,200 -0.199219,0 0,-200 z"
               style="fill:#3b64b8;fill-opacity:1;fill-rule:nonzero;stroke:none"
               id="path94" /><path
               d="m 7.59766,-100 0.199219,0 0,200 -0.199219,0 0,-200 z"
               style="fill:#3b63b8;fill-opacity:1;fill-rule:nonzero;stroke:none"
               id="path96" /><path
               d="m 7.79688,-100 0.199219,0 0,200 -0.199219,0 0,-200 z"
               style="fill:#3a62b7;fill-opacity:1;fill-rule:nonzero;stroke:none"
               id="path98" /><path
               d="m 7.99609,-100 0.203125,0 0,200 -0.203125,0 0,-200 z"
               style="fill:#3b61b6;fill-opacity:1;fill-rule:nonzero;stroke:none"
               id="path100" /><path
               d="m 8.19922,-100 0.199219,0 0,200 -0.199219,0 0,-200 z"
               style="fill:#3a60b5;fill-opacity:1;fill-rule:nonzero;stroke:none"
               id="path102" /><path
               d="m 8.39844,-100 0.199219,0 0,200 -0.199219,0 0,-200 z"
               style="fill:#3a5fb5;fill-opacity:1;fill-rule:nonzero;stroke:none"
               id="path104" /><path
               d="m 8.59766,-100 0.199219,0 0,200 -0.199219,0 0,-200 z"
               style="fill:#3a5eb4;fill-opacity:1;fill-rule:nonzero;stroke:none"
               id="path106" /><path
               d="m 8.79688,-100 0.199219,0 0,200 -0.199219,0 0,-200 z"
               style="fill:#3a5db3;fill-opacity:1;fill-rule:nonzero;stroke:none"
               id="path108" /><path
               d="m 8.99609,-100 0.203125,0 0,200 -0.203125,0 0,-200 z"
               style="fill:#3a5cb3;fill-opacity:1;fill-rule:nonzero;stroke:none"
               id="path110" /><path
               d="m 9.19922,-100 0.199219,0 0,200 -0.199219,0 0,-200 z"
               style="fill:#3a5cb3;fill-opacity:1;fill-rule:nonzero;stroke:none"
               id="path112" /><path
               d="m 9.39844,-100 0.199219,0 0,200 -0.199219,0 0,-200 z"
               style="fill:#3a5bb2;fill-opacity:1;fill-rule:nonzero;stroke:none"
               id="path114" /><path
               d="m 9.59766,-100 0.199219,0 0,200 -0.199219,0 0,-200 z"
               style="fill:#3a5bb2;fill-opacity:1;fill-rule:nonzero;stroke:none"
               id="path116" /><path
               d="m 9.79688,-100 0.199219,0 0,200 -0.199219,0 0,-200 z"
               style="fill:#3a5bb2;fill-opacity:1;fill-rule:nonzero;stroke:none"
               id="path118" /><path
               d="m 10,-100 90,0 0,200 -90,0 0,-200 z"
               style="fill:#3a5bb2;fill-opacity:1;fill-rule:nonzero;stroke:none"
               id="path120" /></g></g></g></pattern></defs><sodipodi:namedview
     pagecolor="#ffffff"
     bordercolor="#666666"
     borderopacity="1"
     objecttolerance="10"
     gridtolerance="10"
     guidetolerance="10"
     inkscape:pageopacity="0"
     inkscape:pageshadow="2"
     inkscape:window-width="640"
     inkscape:window-height="480"
     id="namedview4" /><g
     id="g10"
     inkscape:groupmode="layer"
     inkscape:label="ink_ext_XXXXXX"
     transform="matrix(1.3333333,0,0,-1.3333333,0,47.493333)"><g
       id="g12"
       transform="scale(0.1)"><path
         d="M 0,0 H 363.883 L 720,356.184 H 0 V 0"
         style="fill:url(#pattern128);fill-opacity:1;fill-rule:evenodd;stroke:none"
         id="path130" /><path
         d="m 431.445,185.738 h -15.617 v 57.114 h 15.617 c 20.821,0 37.434,-6.918 37.434,-28.18 0,-22.008 -16.613,-28.934 -37.434,-28.934 M 263.48,145.02 c -8.265,0 -16.019,1.445 -22.703,3.964 l 22.461,70.879 h 0.422 l 22.078,-71.074 c -6.636,-2.363 -14.211,-3.769 -22.258,-3.769 z m 163.805,144.191 -70.875,0.043 V 120.742 L 294.496,289.254 H 233.109 L 180.25,148.32 c -5.633,35.539 -42.391,47.813 -71.309,57.008 -19.0933,6.133 -39.3551,15.152 -39.1637,25.121 0.1524,8.184 10.8633,15.781 32.0817,14.641 14.262,-0.758 26.84,-1.906 51.871,-13.981 l 24.625,42.875 c -22.851,11.625 -54.417,18.977 -80.2886,19.004 h -0.1523 c -30.1641,0 -55.3086,-9.773 -70.8868,-25.883 -10.8593,-11.25 -16.7148,-25.539 -16.957,-41.343 -0.39842,-21.742 7.5781,-37.172 24.336,-49.477 14.1484,-10.375 32.246,-17.105 48.1914,-22.047 19.6753,-6.093 35.7383,-11.386 35.5503,-22.695 -0.144,-4.109 -1.707,-7.949 -4.668,-11.063 -4.894,-5.058 -12.433,-6.964 -22.8394,-7.16 -20.0742,-0.418 -34.9687,2.727 -58.6836,16.739 L 10.0703,86.582 C 33.7188,73.125 61.7266,65.2344 90.2969,65.2344 l 3.6836,0.039 c 24.8715,0.4493 44.9455,7.5391 60.9805,20.4493 0.922,0.7304 1.75,1.4843 2.602,2.2382 l -7.114,-18.9843 h 64.387 l 10.805,32.8594 c 11.308,-3.8672 24.172,-5.9962 37.839,-5.9962 13.305,0 25.836,2.0313 36.942,5.6762 l 10.414,-32.5394 h 104.992 v 68.0354 h 22.895 c 55.371,0 88.101,28.191 88.101,75.429 0,52.618 -31.812,76.77 -99.539,76.77"
         style="fill:#ffffff;fill-opacity:1;fill-rule:evenodd;stroke:none"
         id="path132" /><path
         d="m 464.07,25.0391 v 8.2226 h 5.493 c 2.773,0 5.742,-0.5859 5.742,-3.8867 0,-4.1406 -3.032,-4.3359 -6.399,-4.3359 z m 0,-3.4258 h 4.629 l 6.977,-11.4961 h 4.551 l -7.622,11.6914 c 3.95,0.4375 6.946,2.5469 6.946,7.332 0,5.1953 -3.113,7.5313 -9.363,7.5313 H 460.066 V 10.1172 h 4.004 z m 4.883,-21.281269 c 12.539,0 23.254,9.785169 23.254,23.105469 0,13.2344 -10.715,22.9883 -23.254,22.9883 -12.676,0 -23.418,-9.7539 -23.418,-22.9883 0,-13.3203 10.742,-23.105469 23.418,-23.105469 z M 450.188,23.4375 c 0,10.8984 8.218,19.1992 18.765,19.1992 10.422,0 18.637,-8.3008 18.637,-19.1992 0,-11.0937 -8.215,-19.27734 -18.637,-19.27734 -10.547,0 -18.765,8.18364 -18.765,19.27734"
         style="fill:#395ab1;fill-opacity:1;fill-rule:nonzero;stroke:none"
         id="path134" /></g></g></svg>
