<svg xmlns="http://www.w3.org/2000/svg" viewBox="0 0 269.75 107.79"><defs><style>.cls-1{fill:#e96225;}.cls-2{fill:#155b6f;}</style></defs><g id="Layer_2" data-name="Layer 2"><g id="Layer_1-2" data-name="Layer 1"><path class="cls-1" d="M0,46.67c.41-.24.31-.7.42-1.05a6.7,6.7,0,0,1,6.37-4.88q12.39,0,24.79,0a6.76,6.76,0,0,1,6.73,6.95q.07,12.09,0,24.16a6.82,6.82,0,0,1-13.5,1.44,7.22,7.22,0,0,1-.11-1.54c0-5.46,0-10.92,0-16.39,0-.83-.2-1-1.05-1-5.31,0-10.62-.06-15.93,0-4.14.09-7-2.54-7.51-5.77,0-.09-.14-.16-.22-.24Z"/><path class="cls-2" d="M140.89,107.6c-.95-.14-1.83-.36-1.67-1.52,0-.32.1-.64.15-1,.32-1.77.62-3.53.86-5.31.1-.74.14-1.16,1.13-.8a6.13,6.13,0,0,0,3.55,0A3.07,3.07,0,0,0,147,94.88q-5.4-13.77-10.81-27.53c-.68-1.73-.68-1.72,1.24-1.72,2.36,0,4.71,0,7.07,0a1.33,1.33,0,0,1,1.52,1.06C148,72.21,150,77.74,152,83.28c.11.32.23.63.44,1.16,1-2.82,2-5.43,2.91-8,1.19-3.28,2.39-6.57,3.54-9.87.23-.67.51-.94,1.25-.92q4.08.08,8.15,0c.94,0,1.06.2.73,1Q162.7,82.5,156.43,98.37a21.55,21.55,0,0,1-2.28,4.71C151.24,107.19,145.63,108.28,140.89,107.6Z"/><path class="cls-2" d="M71.25,96.32C64.43,96.27,58.82,95,54,91.21c-1.76-1.37-1.78-1.35-.5-3.15s2.57-3.55,3.78-5.38c.51-.75.77-.91,1.56-.22a18.08,18.08,0,0,0,13.41,4.66,6.67,6.67,0,0,0,3.28-1c2.07-1.3,2-3.69-.08-4.9a22.5,22.5,0,0,0-6.73-2A39,39,0,0,1,60.89,77c-4-1.73-6.79-4.44-7.2-9a11.71,11.71,0,0,1,6-11.76c3.74-2.31,7.92-2.83,12.21-2.58a25,25,0,0,1,14.31,5.08c.62.49.77.77.21,1.45-1.65,2-3.24,4.15-4.8,6.26-.39.52-.61.53-1.11.15A19.22,19.22,0,0,0,70,62.78a7.64,7.64,0,0,0-3.62.58A2.75,2.75,0,0,0,64.55,66a2.48,2.48,0,0,0,1.68,2.27c2.34,1.1,4.91,1.32,7.38,1.9a29.39,29.39,0,0,1,9.49,3.44c5.3,3.37,5.82,9.4,3.76,14.4-1.88,4.54-5.71,6.67-10.25,7.75A25.17,25.17,0,0,1,71.25,96.32Z"/><path class="cls-2" d="M182.41,92.26c0,4.73,0,9.19,0,13.65,0,.93-.26,1.13-1.14,1.11-2.51-.06-5,0-7.55,0-.73,0-.93-.18-.93-.92q0-19.74,0-39.47c0-.76.17-1,1-1,2.51,0,5,0,7.54,0,.82,0,1.17.19,1.08,1a19,19,0,0,0,0,2c.2,0,.28,0,.33-.08,7.9-6.86,18.36-3.74,20.93,6.37,1.37,5.4,1.1,10.76-1.86,15.71C197.9,97.2,188,98.32,183,92.82,182.89,92.68,182.74,92.56,182.41,92.26Zm0-11.7c0,1.32,0,2.64,0,4a1.5,1.5,0,0,0,.55,1.25,7.73,7.73,0,0,0,4.72,2.07c3.93.23,6.72-2.51,6.91-6.88.13-2.83-.73-5.31-3.38-6.77s-5.15-.9-7.54.68a2.36,2.36,0,0,0-1.27,2.36C182.49,78.32,182.4,79.45,182.4,80.56Z"/><path class="cls-2" d="M59.12,38.06H47a6.71,6.71,0,0,1-7-6.71Q40,19,40.06,6.7A6.8,6.8,0,1,1,53.66,7c0,5.47,0,10.93,0,16.4,0,.87.19,1.14,1.11,1.13q8.2-.07,16.42,0a6.8,6.8,0,1,1,.29,13.59C67.35,38.07,63.23,38.06,59.12,38.06Z"/><path class="cls-2" d="M228.6,83.65h-9.35c-1.39,0-1.45.1-.83,1.38a7.7,7.7,0,0,0,7.41,3.88,11.89,11.89,0,0,0,6.48-2.15c.53-.39.7-.22,1,.22,1,1.56,2.06,3.13,3.16,4.63.46.62.34.91-.22,1.32a18.34,18.34,0,0,1-8.66,3.18,18.9,18.9,0,0,1-11.52-1.68c-5.75-3.05-8.23-8-8.05-14.37.17-5.76,2.71-10.33,7.82-13.09a15.67,15.67,0,0,1,16.29.19c4.15,2.47,6.16,6.43,6.91,11.09a34.23,34.23,0,0,1,.26,4.41c0,.78-.19,1-1,1C235.07,83.62,231.83,83.65,228.6,83.65Zm-4.67-6.29c1.71,0,3.43-.06,5.14,0,1,0,1-.32.8-1.09-.81-2.55-3.13-4-6.25-4a5.87,5.87,0,0,0-5.6,4.23c-.18.66,0,.83.65.82C220.42,77.33,222.17,77.36,223.93,77.36Z"/><path class="cls-2" d="M264.87,75.2A13.52,13.52,0,0,0,255,72h-.11c-1.51.16-2.58.89-2.67,1.81s.75,1.63,2.36,2c2.37.54,4.77.92,7.13,1.51a10.5,10.5,0,0,1,6.55,4.07,9,9,0,0,1-3,12.68,16.63,16.63,0,0,1-8.7,2.22A23.33,23.33,0,0,1,243.66,93c-1.77-1.11-1.77-1.12-.73-2.85.87-1.43,1.76-2.84,2.59-4.29.35-.62.59-.58,1.15-.2A17.32,17.32,0,0,0,257.41,89c1.83-.09,3-.89,3.14-2,.08-1-.86-1.81-2.73-2.22-2.14-.47-4.31-.82-6.45-1.27a16.58,16.58,0,0,1-2.4-.72c-3.3-1.2-5.49-3.37-5.82-7a8.82,8.82,0,0,1,4.13-8.58,15.4,15.4,0,0,1,9.47-2.32,21.17,21.17,0,0,1,11,3.43c.56.37.75.62.33,1.29C267,71.44,266,73.32,264.87,75.2Z"/><path class="cls-2" d="M109.5,87.23c.56,2.11,1.11,4.23,1.7,6.33.2.73-.11,1.1-.7,1.43A12.86,12.86,0,0,1,104,96.31a14,14,0,0,1-2.5-.24c-4.29-.86-6.56-3.58-6.6-7.95s0-8.69,0-13c0-.86-.16-1.22-1.1-1.14s-2.08,0-3.11,0c-.6,0-.84-.11-.83-.77q.06-3.36,0-6.7c0-.67.17-.92.86-.89,1.12,0,2.24,0,3.36,0,.63,0,.82-.2.81-.82,0-2.16,0-4.31,0-6.46,0-.74.19-1,.93-.93,2.56,0,5.12,0,7.67,0,.76,0,.94.23.93.94,0,2.08,0,4.15,0,6.23,0,.86.26,1.08,1.08,1,1.4-.06,2.8,0,4.2,0,.61,0,.84.16.83.8,0,2.27,0,4.55,0,6.82,0,.6-.22.74-.77.73-1.47,0-3,0-4.43,0-.77,0-.92.22-.91.94.05,3,0,6,0,9C104.4,87.6,106,88.66,109.5,87.23Z"/><path class="cls-2" d="M125.42,69.26A14.28,14.28,0,0,1,133.56,65c.91-.13,1.26,0,1.23,1-.07,2.71,0,5.41,0,8.15a11.23,11.23,0,0,0-7.84,1.21A2.72,2.72,0,0,0,125.38,78c.08,5.46,0,10.93.06,16.39,0,1-.29,1.18-1.2,1.16-2.47-.06-4.95,0-7.43,0-.71,0-1-.08-1-.94q.06-14,0-28c0-.78.2-1,1-1q3.84.08,7.67,0c.8,0,1.06.23,1,1S125.42,68.19,125.42,69.26Z"/></g></g></svg>