<?xml version="1.0" encoding="utf-8"?>
<!-- Generator: Adobe Illustrator 20.1.0, SVG Export Plug-In . SVG Version: 6.00 Build 0)  -->
<svg version="1.1" id="Layer_1" xmlns="http://www.w3.org/2000/svg" xmlns:xlink="http://www.w3.org/1999/xlink" x="0px" y="0px"
	 viewBox="0 0 3195.9 808" style="enable-background:new 0 0 3195.9 808;" xml:space="preserve">
<title>logo-Asset 1</title>
<g id="Layer_2">
	<g id="Layer_1-2">
		<path d="M208.9,808c0-2.3,0.1-4.7,0.1-7c0-151.3,0-302.6,0-453.9v-7h5.8c66.8,0,133.6,0,200.4,0c64.3,0,114.5,55.8,107.8,119.8
			c-2.6,25.2-13.2,46.5-30.9,64.4c-1.1,1.1-2.8,1.7-4.3,2.6l1.1,1.6l4.5,1.6c54.4,20.1,87.7,58.5,96,116
			c11.3,77.9-43.5,149.3-121.7,160.5c-2.9,0.4-5.9,0.9-8.8,1.4L208.9,808z M286.9,731.1h4.5c46.1,0,92.3,0,138.4,0
			c3.7,0,7.3-0.3,10.9-0.9c30.2-4.2,64.7-32.5,61.3-77.5c-2.6-34.7-35.2-64.7-71.4-64.8c-46.3-0.1-92.6,0-138.9,0h-4.9L286.9,731.1z
			 M287.4,485.9c1.4,0.1,2.2,0.3,3,0.3c36.1,0,72.3,0,108.4-0.1c3.7,0,7.3-0.6,10.8-1.7c17.3-5.3,28.6-23.6,25.9-41.3
			c-3-19.3-17.9-33-36.7-33c-35.6-0.1-71.3,0-106.9,0c-1.4,0-2.9,0.2-4.5,0.4L287.4,485.9z"/>
		<path d="M2454.9,808c-8.4-1-16.9-1.7-25.2-3.1c-49.9-8.5-92.6-29.8-124-70.7c-15-19.6-24-42.1-28.8-67l76.7-14.6
			c0.9,3.6,1.6,6.6,2.4,9.6c6.3,23.4,21.7,39.2,42.3,50.7c17,9.5,35.4,14.3,54.7,15.5c21.1,1.4,42,1.1,62.5-4.5
			c19.6-5.3,37-14.8,51.3-29.5c9.9-10.2,15.7-22.5,19.1-36.2c2.4-9.9-0.9-17.3-8.6-23.2c-10.3-7.9-22.1-13-34.6-16.2
			c-22.3-5.6-45-7-67.9-7c-24.2-0.1-48.3-0.9-72.2-5c-27.1-4.7-53.2-12.2-76.8-26.8c-42.3-26-59.2-70-45.3-117.7
			c13.4-46.1,43.8-77.5,85.5-99.2c38-19.8,78.6-24.7,120.7-22.7c35.8,1.7,69.2,11.3,99.9,29.7c40.9,24.5,67,59.6,76.7,106.6
			c0.2,0.8,0.2,1.6,0.4,2.8l-76.5,15.2c-0.5-2.1-1-4.1-1.5-6.1c-4.4-19.4-15-34.6-31.2-46.1c-18.7-13.3-40.7-21.2-63.6-22.8
			c-23.2-1.8-46.4-1.7-68.8,5.2c-20.6,6.3-38.7,16.8-52.6,33.7c-7.6,9.2-12.1,19.7-14.9,31.2c-1.3,5.3-0.1,9.8,2.9,14.1
			c5,7.3,12.4,11.5,20.2,14.9c16.2,6.8,33.3,10.8,50.8,11.9c24.2,1.7,48.6,1.8,72.9,3.3c34.4,2,68.1,7.8,99.5,23
			c15.3,7.4,29,17,40.2,30c24.6,28.5,29.1,61.2,19.1,96.5c-13.2,46.6-43.6,78.8-85.7,100.9c-25.9,13.6-53.6,20.7-82.7,22.5
			c-2,0.2-3.9,0.6-5.9,1L2454.9,808z"/>
		<path d="M653.9,808c0.4-1.4,1-2.8,1.6-4.2c76.7-153.1,153.4-306.2,230.2-459.3c0.5-1,1.1-2,2-3.9c1,1.9,1.8,3.2,2.5,4.5
			c76.4,152.9,152.8,305.8,229.2,458.6c0.6,1.4,1.1,2.7,1.5,4.2L653.9,808z M887.7,498.6L769.5,735.7h236.4L887.7,498.6z"/>
		<path d="M2728.9,808c0.4-1.4,1-2.8,1.6-4.2c76.7-153.1,153.4-306.2,230.2-459.3c0.5-1,1.1-2,2-3.9c1,1.9,1.8,3.2,2.5,4.5
			c76.4,152.9,152.8,305.8,229.2,458.7c0.6,1.4,1.1,2.7,1.5,4.2L2728.9,808z M2962.7,498.6l-118.3,237.3H3081L2962.7,498.6z"/>
		<path d="M1186.9,808c0-2.2-0.1-4.3-0.1-6.5c0-151.1,0-302.3,0-453.4v-7c1.7,1.5,2.8,2.4,3.8,3.3c83,86,165.9,172,248.8,258
			c1.4,1.5,2.3,3.5,2.4,5.6c0.2,33.3,0.1,66.7,0.1,100c0,0.6-0.2,1.2-0.3,2.9l-183.1-189.3l-1.2,0.3c0,2.1,0,4.1,0,6.2
			c0,91,0,182,0,273c0,2.3-0.2,4.6-0.3,7L1186.9,808z"/>
		<path d="M1599.9,808c0-2.2-0.1-4.3-0.1-6.5c0-151.3,0-302.5,0-453.8v-7.2h78.9v6.7c0,151.3,0,302.5,0,453.8c0,2.3,0.1,4.7,0.2,7
			L1599.9,808z"/>
		<path d="M1937.9,808c0-121.6,0-243.2,0-364.8c0-2.1,0-4.3,0-6.8l78.9,15.3v6.6c0,114.5,0,228.9,0,343.4c0,2.2,0.1,4.3,0.1,6.5
			H1937.9z"/>
		<path d="M891.9,0v48.9h22.5v27.9H892v165.8h-27.8V77.2h-22.8v-28h22.5V0H891.9z"/>
		<path d="M422.9,0v242.6H395c0-2,0-4.1,0-6.2c0-76.6,0-153.2,0-229.8c0-2.2-0.1-4.3-0.1-6.5L422.9,0z"/>
		<path d="M2211.5,340.5v78h-468.2v-78H2211.5z"/>
		<path d="M1464.8,340.3h69.8v466.4c-1.6-1.5-2.8-2.5-3.9-3.6c-21-21.7-42-43.3-62.8-65.2c-1.9-2.1-3.1-4.9-3.2-7.8
			c-0.2-128.3-0.2-256.6-0.1-384.9C1464.6,343.8,1464.8,342.3,1464.8,340.3z"/>
		<path d="M128.4,91.6c12.6-9.5,22.3-13.3,34.4-13.3v26.6l-14.5,5.5c26.1,37.2,19.1,81.4-6.6,107.5c-15,15.2-33,23.4-54.1,24.8
			s-40-5.1-56.9-17.7c-6.1,14.6,2.5,28,17.7,28.1c22.8,0.1,45.7,0,68.5,0c8.7-0.1,17.3,2.1,24.9,6.3c15.9,8.8,24.4,27,21.1,45.3
			c-2.9,16.2-17.9,30.4-35.4,33c-4.6,0.7-9.3,1-13.9,1c-22.8,0.1-45.7,0.3-68.5,0c-26.5-0.3-43.5-20.1-44.2-46.3
			c0-0.5,0.1-1.1,0.3-1.6h27.2c0.3,2.4,0.5,4.3,0.8,6c2,9.6,7.2,14.1,17,14.2c24.2,0.1,48.3,0.1,72.5,0c10.4,0,17.2-6,17.4-14.7
			c0.1-8.5-7.4-15.3-17.6-15.4c-17.3-0.2-34.7,0-52-0.1c-9-0.1-18.1,0.4-26.9-0.8c-21.6-2.9-37.1-20.3-38.5-42.1
			c-0.8-12,1.5-23.3,8.7-33.1c2.1-2.9,0.4-4.6-0.7-6.7c-20.7-40.6-4.5-90.3,36.1-111c5.4-2.7,11.1-4.9,16.9-6.4
			C82,75.5,105,77.3,128.4,91.6z M82.5,215.1c29.9,0.2,54.3-23.8,54.5-53.7c0-0.3,0-0.6,0-0.9c-0.1-29.5-25.1-54.4-54.6-54.4
			c-30.1-0.5-54.9,23.4-55.5,53.5s23.4,54.9,53.5,55.5C81.1,215.1,81.8,215.1,82.5,215.1L82.5,215.1z"/>
		<path d="M334.2,98.1V78.4h27.5v164h-27.4v-19.8c-23.9,18.6-49.5,24.8-77.7,16.9c-17.7-4.8-33.2-15.6-43.8-30.6
			c-22.7-31-20.9-73.6,4.4-102.5c14.8-17,33.7-26.3,56.1-28.1S315.5,83.5,334.2,98.1z M225.4,160.7c-0.1,30,24.2,54.3,54.1,54.4
			c0.2,0,0.4,0,0.6,0c30.2-0.1,54.2-24.6,54-55.1c0-29.9-24.3-54.2-54.2-54.2c-0.3,0-0.5,0-0.8,0C249.3,106,225.2,130.6,225.4,160.7
			z"/>
		<path d="M618.8,242.6h-27.7v-19.8c-22.2,17.5-46.2,23.9-72.9,18c-19-4.2-34.7-14.2-46.7-29.6c-24.5-31.2-23-75.5,3.2-105.3
			c25-28.5,74.4-40.7,116.2-8.5V78.5h28L618.8,242.6z M482.4,160.3c-0.1,30.1,24,54.7,53.8,54.8c29.9,0.4,54.5-23.5,54.9-53.4
			c0-0.2,0-0.5,0-0.7c0.2-30.3-23.7-54.9-53.5-55.1C506.8,105.7,482.5,129.7,482.4,160.3z"/>
		<path d="M808.6,124.8c-8.3,2.6-16.5,5.3-24.8,7.5c-1.2,0.3-3.6-1.5-4.7-3c-17.9-24.8-50.8-30.9-75.7-13.8
			c-17.9,12.3-27.2,34.6-22.4,56c5,22.3,18.9,37.1,41.2,42.2c22.8,5.2,41.8-2.4,55.8-21.1c2.9-3.9,5.2-5,9.7-3.3
			c6.8,2.6,13.8,4.4,20.8,6.6c-11.4,26.3-44.7,53.8-89.5,45.6c-39-7-67.3-40.9-67.3-80.4c-0.1-40.3,27.5-73.8,67.2-81.6
			C755.3,72.3,796,92.8,808.6,124.8z"/>
		<path d="M1163.7,124.8c-8.5,2.6-16.5,5.3-24.7,7.4c-1.2,0.3-3.5-1.1-4.4-2.4c-11.8-15.9-27.3-24.4-47.4-24
			c-27.2,0.6-49.8,22.6-52.2,51c-2.3,26.5,17.4,52.5,43.5,57.1c23.3,4.1,41.9-3.8,55.7-22.9c2.1-2.9,3.8-3.3,6.9-2.3
			c7.4,2.5,14.9,4.6,22.3,6.9c-9.3,28.5-49.6,50.6-82.7,46.8c-40.3-4.6-70.9-36.9-73.7-75.3c-3.2-43.7,25.8-78,63-86.9
			C1108.1,71.2,1148.8,90.5,1163.7,124.8z"/>
		<path d="M947.4,78.3h27.2v164.2h-27.2V78.3z"/>
		<path d="M947.3,51.6c0.3-7.6,6.7-13.4,14.2-13.1c7.6,0.3,13.4,6.7,13.1,14.2c-0.3,7.4-6.4,13.2-13.8,13.1
			C953.2,65.7,947.1,59.3,947.3,51.6C947.3,51.6,947.3,51.6,947.3,51.6z"/>
	</g>
</g>
</svg>
