<svg id="Layer_1" data-name="Layer 1" xmlns="http://www.w3.org/2000/svg" xmlns:xlink="http://www.w3.org/1999/xlink" viewBox="0 0 240.16 83.94"><defs><style>.cls-1{fill:#352018;}.cls-2{fill:url(#linear-gradient);}.cls-3{fill:url(#linear-gradient-2);}.cls-4{fill:#503629;stroke:#503629;}.cls-20,.cls-21,.cls-4{stroke-miterlimit:10;stroke-width:0.25px;}.cls-5{fill:url(#linear-gradient-3);}.cls-6{fill:url(#linear-gradient-4);}.cls-7{fill:url(#linear-gradient-5);}.cls-8{fill:url(#linear-gradient-6);}.cls-9{fill:#fff;}.cls-10{fill:url(#linear-gradient-7);}.cls-11{fill:url(#linear-gradient-8);}.cls-12{fill:url(#linear-gradient-9);}.cls-13{fill:url(#linear-gradient-10);}.cls-14{fill:url(#linear-gradient-11);}.cls-15{fill:url(#linear-gradient-12);}.cls-16{fill:url(#linear-gradient-13);}.cls-17{fill:url(#linear-gradient-14);}.cls-18{fill:url(#linear-gradient-15);}.cls-19{fill:none;}.cls-20{fill:url(#linear-gradient-16);stroke:url(#linear-gradient-17);}.cls-21{fill:url(#linear-gradient-18);stroke:url(#linear-gradient-19);}</style><linearGradient id="linear-gradient" x1="202.12" y1="113.99" x2="220.71" y2="113.99" gradientUnits="userSpaceOnUse"><stop offset="0" stop-color="#89593a"/><stop offset="0.37" stop-color="#6c452a"/><stop offset="1" stop-color="#533629"/></linearGradient><linearGradient id="linear-gradient-2" x1="195.28" y1="154.67" x2="195.28" y2="166.15" xlink:href="#linear-gradient"/><linearGradient id="linear-gradient-3" x1="194.59" y1="120.22" x2="203.32" y2="130.47" gradientUnits="userSpaceOnUse"><stop offset="0" stop-color="#3a231b"/><stop offset="0.39" stop-color="#452c21"/><stop offset="1" stop-color="#533629"/></linearGradient><linearGradient id="linear-gradient-4" x1="176.39" y1="115.94" x2="176.39" y2="139.22" gradientUnits="userSpaceOnUse"><stop offset="0" stop-color="#996443"/><stop offset="1" stop-color="#6c452a"/></linearGradient><linearGradient id="linear-gradient-5" x1="117.71" y1="158.03" x2="161.42" y2="158.03" xlink:href="#linear-gradient"/><linearGradient id="linear-gradient-6" x1="97.14" y1="163.35" x2="97.14" y2="171.22" xlink:href="#linear-gradient"/><linearGradient id="linear-gradient-7" x1="47.8" y1="119.75" x2="47.8" y2="111.79" xlink:href="#linear-gradient"/><linearGradient id="linear-gradient-8" x1="34.28" y1="184.74" x2="34.28" y2="169.98" gradientUnits="userSpaceOnUse"><stop offset="0" stop-color="#3c241d"/><stop offset="0.41" stop-color="#4a2f25"/><stop offset="0.79" stop-color="#533629"/><stop offset="1" stop-color="#533629"/></linearGradient><linearGradient id="linear-gradient-9" x1="61.03" y1="178.82" x2="61.03" y2="142.72" xlink:href="#linear-gradient"/><linearGradient id="linear-gradient-10" x1="123.74" y1="124.31" x2="89.14" y2="113.13" xlink:href="#linear-gradient"/><linearGradient id="linear-gradient-11" x1="115.39" y1="150.29" x2="80.76" y2="139.1" xlink:href="#linear-gradient"/><linearGradient id="linear-gradient-12" x1="119.71" y1="135.88" x2="85.35" y2="124.78" xlink:href="#linear-gradient"/><linearGradient id="linear-gradient-13" x1="122.19" y1="129.1" x2="87.6" y2="117.92" xlink:href="#linear-gradient"/><linearGradient id="linear-gradient-14" x1="123.48" y1="124.98" x2="88.94" y2="113.82" xlink:href="#linear-gradient"/><linearGradient id="linear-gradient-15" x1="123.24" y1="125.82" x2="88.65" y2="114.65" xlink:href="#linear-gradient"/><linearGradient id="linear-gradient-16" x1="119.14" y1="138.55" x2="84.54" y2="127.38" xlink:href="#linear-gradient"/><linearGradient id="linear-gradient-17" x1="117.4" y1="137.94" x2="78.97" y2="125.53" xlink:href="#linear-gradient"/><linearGradient id="linear-gradient-18" x1="-524.54" y1="377.71" x2="-524.53" y2="400.48" gradientTransform="translate(-108.1 703.78) rotate(152.21)" xlink:href="#linear-gradient-4"/><linearGradient id="linear-gradient-19" x1="180.17" y1="125.66" x2="170.8" y2="107.88" xlink:href="#linear-gradient-4"/></defs><path class="cls-1" d="M260,116.42c-2.71-1.6-8.47-.35-10.4,2.29s-.62-3.09-6.7-3.09c-2.74,0-4.45.15-5.17.22-.65-5.27-3.49-12.71-14.41-12.82-15-.16-19.39,3.7-20.27,7.58s.88,7.23,3.88,8.29,4.41-6.35,11.81-6c3.51.17,5.08,2,5.76,3.89s-.76,3.48-2.88,3.51c-1.41,0-3.38.1-6,.29-7.41.53-9.35,3.42-9.35,3.42a4.75,4.75,0,0,0-1.57-4.85c-2.47-2.23-9.54-1.15-16.94-1.32-4.12-.1-6.27,1-7.37,1.89a23.29,23.29,0,0,0-1.58-6.87c-2.51-5.56-5.69-7.41-8.86-6.22-2.77,1-5.25,5.11-5.82,6.12-3.68-4.87-9.22-8.12-18.11-8.37a33,33,0,0,0-29.76,16.93s-7.14-5.69-14.81-6.35-13.64.83-17.85,4a23.82,23.82,0,0,0-8.86,14.68c-1.06,6.87-1.19,21.95,6.74,27.37a28.63,28.63,0,0,0,20.76,4.37c4-.8,5.75,5.35,9.5,2.41,3.26-2.56.16-4.93,3.33-8.5a25.8,25.8,0,0,0,2.41-3.12,2,2,0,0,1,3.48.37c1.51,4,4.24,8.9,8.52,9.36,7.28.8,6.09-1.45,11-1.32s7.27,4.76,11.11,2.91,7.54-7.14,11.11-11.11c2.85-3.17,8.67-7,9.39-15.76a2.24,2.24,0,0,0,.53.82c.73.66,2.23-1,2.37-3.13a.17.17,0,0,0,0-.07,5.06,5.06,0,0,0,1.05-.55,4,4,0,0,0,1.29-2.87,10,10,0,0,0,1.09-.79,4.58,4.58,0,0,0,1.24-2.19l.82,24.05a3.49,3.49,0,0,0,1.28,2.64,20.39,20.39,0,0,0,4.3,1.57c3,.81,7.35-.17,10.77.24,4,.48,5.11,1.88,6.87,1.28,5.65-1.94,6-15.08,6-15.08s2.21,1.1,7.82,1.29a10.06,10.06,0,0,0,8.07-3,.74.74,0,0,1,1.26.36,4.51,4.51,0,0,0,.9,1.95c1.24,1.41,3.88-.71,5.82.52,1.76,1.12,3.18,3.12,4.09,1.73,1.48,3.75,7.55,4.45,7.55,4.45s1.41.53,1.41,3.52,3,2.65,3-.18-1.77-24.33.52-27.32,6.88-5.29,7.59-1.94,3.26,1.49,3.88-.9C262.47,123.68,262.27,117.75,260,116.42Zm-69.87,9.92s4.89-.14,6.48.52,1.06,4.5-.4,6-6.34.8-6.34.8Zm8.33,22.48c-1.45,1.58-8.59.92-8.59.92v-7.67s7.14,0,8.86,1.32S199.94,147.23,198.48,148.82Zm18-11.51c-3-.92-3.44-3.7-2-5.95,1.14-1.75,6.6-2,9-2a1,1,0,0,1,1,1.09C223.94,135.45,219.51,138.23,216.47,137.31ZM63.86,138.5s2.92.13,6.75-4.76a21.28,21.28,0,0,0,4.36-16c-1.59-9-7.21-16.32-19.46-18.11-5.88-.86-14.42.19-21.25.82-5.45.5-9.49.8-10.18,1.19-2.11,1.19-2.53,1.82-1.87,12.79s2.51,28,2.51,36.77.07,21.24.79,22.48c2.49,4.28,8,1.57,6.62,5.15-1.84,4.77,3,5.6,3.28,2.83s-1.83-4.94.15-6.27c1-.69,3.09-.74,4.61-1.29A4.19,4.19,0,0,0,42.55,172c.75-1.66,1.33-12.87.55-19.1-.44-3.55-.67-5.61-.79-6.8a.63.63,0,0,1,1-.56c1.59,1.27,4.53,3.34,6.9,3.52,3.44.26,1.06,4.36,3,5.69s2.64-2.78,3.56.66S59.5,170.11,63.6,172c2.2,1,7.13.74,8.66,1.67,1.32.82-.76,2.86.88,3.27,2,.49,1-1.84,1.59-3.27.39-.95,2.36-1.22,3.15-1,2,.53,1.85,8.72,3.84,5.42s.26-9.39-4.63-19.31S66.38,140,63.86,138.5ZM54.52,129c-4.5,3.44-12.31,3.46-13.05,1.77-1.87-4.31-1.42-14.38-1.32-14.55l.09-1.94c0,.14.73,3.52,5,3.35,2.84-.11,7.76-4.59,10.93-1.06S56.9,127.21,54.52,129Z" transform="translate(-21.92 -99.3)"/><path class="cls-2" d="M203.83,110.16s-.52,6.3,2,7.36,3.44-.92,5.11-2.2,3.88-2.83,6.09-3.13,2.68-.44,3.61-.27S203.83,110.16,203.83,110.16Z" transform="translate(-21.92 -99.3)"/><path class="cls-3" d="M209,145.92s-1.16,12.42-5,14.14-4.16-.73-10.31-.53-10.78-.48-12.1-3.19c-.73-1.49,8.11-2.22,15.8-4.63A46.1,46.1,0,0,0,209,145.92Z" transform="translate(-21.92 -99.3)"/><path class="cls-4" d="M236.48,144.45a1.15,1.15,0,0,1-.43.94,2.92,2.92,0,0,1-1.35.49A18.08,18.08,0,0,1,232,146a18.46,18.46,0,0,1-2.8-.15,2.37,2.37,0,0,1-1.24-.49,1.24,1.24,0,0,1-.37-.94v-3a17.26,17.26,0,0,1-5.36,3.94,15.6,15.6,0,0,1-6.69,1.41A19,19,0,0,1,210,146a12.86,12.86,0,0,1-4.41-2.35,10.71,10.71,0,0,1-2.88-3.87,13.09,13.09,0,0,1-1-5.39,12.16,12.16,0,0,1,1.31-5.79,10.52,10.52,0,0,1,3.89-4.07,19.26,19.26,0,0,1,6.43-2.37,46.31,46.31,0,0,1,8.94-.77h3.72v-2.31a11.76,11.76,0,0,0-.37-3.14,5.19,5.19,0,0,0-1.19-2.24,4.83,4.83,0,0,0-2.23-1.33,11.63,11.63,0,0,0-3.44-.43,17.68,17.68,0,0,0-4.81.6,27.32,27.32,0,0,0-3.74,1.33c-1.08.48-2,.92-2.71,1.32a4,4,0,0,1-1.78.6,1.27,1.27,0,0,1-.83-.3,2.23,2.23,0,0,1-.6-.85,5.54,5.54,0,0,1-.36-1.37,11,11,0,0,1-.13-1.8,8.24,8.24,0,0,1,.21-2.09,3.23,3.23,0,0,1,.81-1.39,8,8,0,0,1,2.1-1.37,24.44,24.44,0,0,1,3.51-1.39,32,32,0,0,1,4.38-1,29,29,0,0,1,4.89-.41,29.5,29.5,0,0,1,7.68.88,12.85,12.85,0,0,1,5.23,2.7,10.47,10.47,0,0,1,3,4.68,21.75,21.75,0,0,1,.94,6.79Zm-10.56-16.33h-4.11a21.79,21.79,0,0,0-4.44.38,8.53,8.53,0,0,0-3,1.15,4.73,4.73,0,0,0-1.69,1.86,5.61,5.61,0,0,0-.54,2.51,4.82,4.82,0,0,0,1.52,3.76,6.06,6.06,0,0,0,4.21,1.36,7.89,7.89,0,0,0,4.17-1.15,17.06,17.06,0,0,0,3.87-3.38Z" transform="translate(-21.92 -99.3)"/><path class="cls-5" d="M183.38,119.26S199,117,203.13,119c2.11,1,3.8,2.67,3,6.2-.29,1.31.44,1.69.44,1.69Z" transform="translate(-21.92 -99.3)"/><path class="cls-4" d="M209,145.92a11.62,11.62,0,0,1-.56,3.69,10.06,10.06,0,0,1-1.55,2.92,9.81,9.81,0,0,1-2.36,2.18,13.4,13.4,0,0,1-3,1.51,18.6,18.6,0,0,1-3.53.88,29.45,29.45,0,0,1-4.18.27H183.63a2.43,2.43,0,0,1-1.64-.57,2.37,2.37,0,0,1-.66-1.88V121.61a2.37,2.37,0,0,1,.66-1.88,2.43,2.43,0,0,1,1.64-.57h9.6a25.37,25.37,0,0,1,6,.59,11.9,11.9,0,0,1,4.11,1.78,8,8,0,0,1,2.55,3,9.81,9.81,0,0,1,.89,4.31,9.27,9.27,0,0,1-.36,2.62,7.83,7.83,0,0,1-1,2.23,7.57,7.57,0,0,1-1.67,1.77,8.5,8.5,0,0,1-2.26,1.24,10.34,10.34,0,0,1,3,1,8.68,8.68,0,0,1,2.39,1.91,8.84,8.84,0,0,1,1.61,2.73A10,10,0,0,1,209,145.92Zm-10-16.1a5.62,5.62,0,0,0-.36-2.07,3.74,3.74,0,0,0-1.06-1.52,5,5,0,0,0-1.79-.93,10.14,10.14,0,0,0-2.87-.32h-3.94v9.92h4.35a7.49,7.49,0,0,0,2.68-.4,4.7,4.7,0,0,0,1.67-1.09,4.3,4.3,0,0,0,1-1.62A5.9,5.9,0,0,0,199,129.82Zm2,16.36a5.89,5.89,0,0,0-.45-2.37,4.55,4.55,0,0,0-1.29-1.76A6,6,0,0,0,197,141a13.09,13.09,0,0,0-3.46-.38h-4.61v10.87h5.62a9.32,9.32,0,0,0,2.73-.34,5.5,5.5,0,0,0,1.92-1,4.63,4.63,0,0,0,1.27-1.65A5.4,5.4,0,0,0,200.94,146.18Z" transform="translate(-21.92 -99.3)"/><path class="cls-4" d="M259.44,121.8c0,.84,0,1.52-.07,2.06a6,6,0,0,1-.21,1.26,1.25,1.25,0,0,1-.36.63.93.93,0,0,1-.58.18,1.73,1.73,0,0,1-.63-.13l-.79-.26c-.29-.09-.61-.18-1-.26a5.14,5.14,0,0,0-1.15-.12,4,4,0,0,0-1.47.29,6.16,6.16,0,0,0-1.52.93,11,11,0,0,0-1.65,1.68,26.67,26.67,0,0,0-1.83,2.59v19.44a.92.92,0,0,1-.22.62,1.49,1.49,0,0,1-.71.43,5.66,5.66,0,0,1-1.35.26,20.65,20.65,0,0,1-2.13.09,20.86,20.86,0,0,1-2.14-.09,5.67,5.67,0,0,1-1.34-.26,1.53,1.53,0,0,1-.72-.43,1,1,0,0,1-.21-.62v-31.2a1.14,1.14,0,0,1,.17-.61,1.36,1.36,0,0,1,.64-.44,5.41,5.41,0,0,1,1.17-.26,15.08,15.08,0,0,1,1.8-.08,16,16,0,0,1,1.85.08,4.61,4.61,0,0,1,1.14.26,1.37,1.37,0,0,1,.58.44,1.14,1.14,0,0,1,.17.61v3.89a25.53,25.53,0,0,1,2.31-2.89,12.77,12.77,0,0,1,2.06-1.8,6.83,6.83,0,0,1,2-.93,7.76,7.76,0,0,1,2-.26,8.71,8.71,0,0,1,1,.06,7.1,7.1,0,0,1,1.08.17,6.13,6.13,0,0,1,1,.28,1.85,1.85,0,0,1,.62.33,1.38,1.38,0,0,1,.28.38,3.4,3.4,0,0,1,.15.58,7.41,7.41,0,0,1,.11,1.11C259.43,120.29,259.44,121,259.44,121.8Z" transform="translate(-21.92 -99.3)"/><path class="cls-6" d="M178.36,116.48s-5.79,12.42-5.75,14.74c.07,4.62,1.91,6.82,3,6.09s.86-2.11.66-3.43,3.69-1,3.83-5A30.81,30.81,0,0,0,178.36,116.48Z" transform="translate(-21.92 -99.3)"/><path class="cls-7" d="M119.51,149.73s2.85,13.29,8.91,15.05c5,1.43,4.23-.89,9-.71s6.92,1.23,10,2,5.6-.4,8.64-4.37a26.45,26.45,0,0,1,5.95-5.82s-13.09,3.44-22,2.47S119.51,149.73,119.51,149.73Z" transform="translate(-21.92 -99.3)"/><path class="cls-8" d="M115.28,157.48s-4.27,3.45-3.43,6c1,2.91-.36,4.58-1.95,4.59-2.67,0-3-1.88-4.14-2.47-3.35-1.77-3-.27-7.41-.12-1.66.06-16.26-2-19.26-10.06C76.89,149.53,115.28,157.48,115.28,157.48Z" transform="translate(-21.92 -99.3)"/><path class="cls-4" d="M168.86,129.09a38.64,38.64,0,0,1,.62,11.76,24.63,24.63,0,0,1-3.24,9.89,22.78,22.78,0,0,1-7.26,7.44,32.1,32.1,0,0,1-11.41,4.37,32.85,32.85,0,0,1-11.73.45,20.83,20.83,0,0,1-9.07-3.68,22.21,22.21,0,0,1-6.42-7.58,40.56,40.56,0,0,1-3.83-11.23,37.86,37.86,0,0,1-.6-11.79,24.56,24.56,0,0,1,3.27-9.9,22.89,22.89,0,0,1,7.23-7.41A32.11,32.11,0,0,1,137.81,107a33.68,33.68,0,0,1,11.78-.48,20.31,20.31,0,0,1,9,3.66A22.23,22.23,0,0,1,165,117.8,40.65,40.65,0,0,1,168.86,129.09Z" transform="translate(-21.92 -99.3)"/><path class="cls-9" d="M148.59,153.5c-5.57,1.84-20.52-.77-20.62-17.34C127.85,114.9,149,113.61,153.33,119c4.94,6.22,7.71,15.44,4,24.19s-6,9.37-8.7,10.27Z" transform="translate(-21.92 -99.3)"/><path class="cls-4" d="M142.47,127.39a7,7,0,1,1-7-7.55,7.29,7.29,0,0,1,7,7.55" transform="translate(-21.92 -99.3)"/><path class="cls-10" d="M38.23,110.23s3.26,6.89,6,6.81,6.26-3.35,8.73-2.65,3.44,1.06,4.23,2.56-.88-8.3-8.63-8.13S38.23,110.23,38.23,110.23Z" transform="translate(-21.92 -99.3)"/><path class="cls-11" d="M27.2,171.67s-.44,1.68,5.57,3.18c1.85.47.26,4-.27,5.11s0,2.71,1.06,2.64A1.77,1.77,0,0,0,35,180.09c-.66-1.12-.79-4.64,0-5.43s2.18-.4,4.17-1.06,2.2-1.75,2.2-1.75Z" transform="translate(-21.92 -99.3)"/><path class="cls-12" d="M81.29,171.21c-1.14-2.64-2.82-6.7-3.79-6.7s-14.45-5.92-16.89-5c-1-1.79-1.94-3.42-2.37-4.4-1.32-3-4.58-9.79-8.29-11.19s-9.92-1.61-9.82-.25,1.71.69,3.12,1.13,3.79,3.26,5.2,3.44,3.44-.18,4.06,1.23-.27,4,.79,4.59,2.21-1.86,2.74-1.15a7.94,7.94,0,0,1,1.58,2.73c.8,1.94,2.56,11.55,3.88,13.31a7.65,7.65,0,0,0,5.29,3.35l2.29.27a1,1,0,0,0-.12-.14c1,.11,3.73.43,4,.89s-.43,2.51,0,3.13,1.14-.24,1.23-1-.79-2.18.4-2.67,3.51-.88,4.36-.31c2.48,1.68.89,5.87,1.86,5.69S82.44,173.86,81.29,171.21Z" transform="translate(-21.92 -99.3)"/><path class="cls-4" d="M80.08,168.75a2.24,2.24,0,0,1-.16,1,1.79,1.79,0,0,1-1,.74,10.38,10.38,0,0,1-2.4.53q-1.59.19-4.35.36c-1.54.09-2.77.12-3.69.1a8.13,8.13,0,0,1-2.2-.29,2.36,2.36,0,0,1-1.18-.71,4.1,4.1,0,0,1-.61-1.1l-7.3-15.55c-.87-1.75-1.72-3.31-2.53-4.66A15.32,15.32,0,0,0,52,145.85a9,9,0,0,0-3.23-1.94,10.8,10.8,0,0,0-4.12-.48l-4.52.25,1.55,27.16a1.54,1.54,0,0,1-.3,1,2.44,2.44,0,0,1-1.14.78,11,11,0,0,1-2.18.57,33.38,33.38,0,0,1-3.51.37,29.92,29.92,0,0,1-3.51,0,12,12,0,0,1-2.26-.31,2.35,2.35,0,0,1-1.2-.65,1.59,1.59,0,0,1-.38-1l-3.7-64.73a4.39,4.39,0,0,1,1-3.56,4.46,4.46,0,0,1,3-1.25L46,101.07c1.88-.1,3.42-.15,4.64-.15s2.32,0,3.32.09a30.14,30.14,0,0,1,7.86,1.65,18.54,18.54,0,0,1,6.06,3.55,16.28,16.28,0,0,1,4,5.46,20.77,20.77,0,0,1,1.7,7.45,21.72,21.72,0,0,1-.54,6.57,16.56,16.56,0,0,1-2.37,5.42,17.53,17.53,0,0,1-4.12,4.27,23.37,23.37,0,0,1-5.73,3.09,16.5,16.5,0,0,1,3.11,1.7,15.86,15.86,0,0,1,2.79,2.52,25.3,25.3,0,0,1,2.55,3.45,44.47,44.47,0,0,1,2.4,4.42l6.81,13.7c.63,1.36,1.06,2.36,1.28,3A6,6,0,0,1,80.08,168.75ZM58.65,121.46a10.64,10.64,0,0,0-1.94-5.86,8.72,8.72,0,0,0-5.43-3.11,19.33,19.33,0,0,0-2.53-.3,33.43,33.43,0,0,0-3.9.06l-6.49.37,1.15,20.21,7.38-.42a18,18,0,0,0,5.36-1A10.9,10.9,0,0,0,56,129.05a8.53,8.53,0,0,0,2.13-3.36A11.14,11.14,0,0,0,58.65,121.46Z" transform="translate(-21.92 -99.3)"/><path class="cls-9" d="M85.64,139.77c-2.77,13.21,9,17.68,13.7,17.11,2.33-.3,5-.44,9.37-6.81s2.82-14.18-.15-19.93C106,125.13,89.69,120.47,85.64,139.77Z" transform="translate(-21.92 -99.3)"/><path class="cls-13" d="M114.29,122a17.54,17.54,0,0,0-5.72-3.41,23.41,23.41,0,0,0-3-.84,22.45,22.45,0,0,1,3,.85A17.3,17.3,0,0,1,114.29,122Z" transform="translate(-21.92 -99.3)"/><path class="cls-14" d="M75.77,141.2v-.14a33.65,33.65,0,0,1,.74-7.05A33.55,33.55,0,0,0,75.77,141.2Z" transform="translate(-21.92 -99.3)"/><path class="cls-15" d="M81.51,123.76h0c.1-.13.23-.23.34-.35C81.74,123.54,81.61,123.64,81.51,123.76Z" transform="translate(-21.92 -99.3)"/><path class="cls-16" d="M95.17,117.31a24.42,24.42,0,0,0-6.48,1.53,22.63,22.63,0,0,0-3,1.52,21.44,21.44,0,0,1,3-1.51A24.33,24.33,0,0,1,95.17,117.31Z" transform="translate(-21.92 -99.3)"/><path class="cls-17" d="M98.78,117.1h0c.24,0,.45,0,.68,0C99.23,117.12,99,117.1,98.78,117.1Z" transform="translate(-21.92 -99.3)"/><path class="cls-18" d="M96,117.21c.35,0,.72,0,1.08,0C96.7,117.19,96.33,117.18,96,117.21Z" transform="translate(-21.92 -99.3)"/><path class="cls-19" d="M85.64,139.77c-2.77,13.21,9,17.68,13.7,17.11,2.33-.3,5-.44,9.37-6.81s2.82-14.18-.15-19.93C106,125.13,89.69,120.47,85.64,139.77Z" transform="translate(-21.92 -99.3)"/><path class="cls-4" d="M119.45,130.44c0,.41.42,7-11-5.44C99,114.7,85,120.51,79.89,128.44a28.63,28.63,0,0,0-4.12,12.62v.14a33.87,33.87,0,0,0,1.31,9.88,18.73,18.73,0,0,0,4,7.3A17.55,17.55,0,0,0,88,162.9a27.61,27.61,0,0,0,9.74,1.55,27.06,27.06,0,0,0,10.13-1.74,19.09,19.09,0,0,0,7.2-4.94,20.78,20.78,0,0,0,4.29-7.63,32.38,32.38,0,0,0,1.4-9.79A34.38,34.38,0,0,0,119.45,130.44Zm-10.74,19.63c-4.38,6.37-7,6.51-9.37,6.81-4.74.57-16.47-3.9-13.7-17.11,4-19.3,20.36-14.64,22.92-9.63C111.53,135.89,113.08,143.68,108.71,150.07Z" transform="translate(-21.92 -99.3)"/><path class="cls-20" d="M108.45,125c11.42,12.44,11,5.85,11,5.44v0a21.61,21.61,0,0,0-1.2-3,17.47,17.47,0,0,0-2.82-4.25,14.54,14.54,0,0,0-1.13-1.09,17.3,17.3,0,0,0-5.71-3.4,22.45,22.45,0,0,0-3-.85,31.77,31.77,0,0,0-6.11-.66c-.23,0-.44,0-.68,0-.59,0-1.15,0-1.72.07-.36,0-.73,0-1.08,0s-.53.07-.81.1a24.33,24.33,0,0,0-6.48,1.54,21.44,21.44,0,0,0-3,1.51,18.93,18.93,0,0,0-3.85,3.06c-.11.12-.24.22-.34.35a2.11,2.11,0,0,0-.19.23,20.48,20.48,0,0,0-3.07,4.75,23,23,0,0,0-1,2.64,26.43,26.43,0,0,0-.69,2.62,33.65,33.65,0,0,0-.74,7.05,28.63,28.63,0,0,1,4.12-12.62C85,120.51,99,114.7,108.45,125Z" transform="translate(-21.92 -99.3)"/><path class="cls-4" d="M178.78,119a17,17,0,0,0-.2-2.67,13.66,13.66,0,0,0-.58-2.39,13.38,13.38,0,0,0-1-2.3,25.92,25.92,0,0,0-1.58-2.41,7,7,0,0,0-1.52-1.63,2.4,2.4,0,0,0-1.52-.49,4.08,4.08,0,0,0-1.7.5,18.2,18.2,0,0,0-2,1.31,20.55,20.55,0,0,0-2,1.58,4.24,4.24,0,0,0-1.07,1.5,2.54,2.54,0,0,0-.06,1.64,6.29,6.29,0,0,0,1,2l3.71,5.12,2.56,11.92a2.25,2.25,0,0,0,.31.71.65.65,0,0,0,.58.25,2.34,2.34,0,0,0,1-.37,16.49,16.49,0,0,0,1.61-1.06,13.94,13.94,0,0,0,1.3-1,5.22,5.22,0,0,0,.83-.92,2.46,2.46,0,0,0,.4-.86,4.22,4.22,0,0,0,.09-.9Zm-1,7.22s-.78-3.61-1.88-7.79c-2.38-9.06-6.26-5.22-6.84-7.16a2.88,2.88,0,0,1,4-3.17c2.44,1,4,5,4.36,6.35C178.76,119,177.77,126.19,177.77,126.19Z" transform="translate(-21.92 -99.3)"/><path class="cls-21" d="M173.07,108.07a2.88,2.88,0,0,0-4,3.17c.58,1.94,4.46-1.9,6.84,7.16,1.1,4.18,1.88,7.79,1.88,7.79s1-7.23-.34-11.77C177.05,113.09,175.51,109,173.07,108.07Z" transform="translate(-21.92 -99.3)"/><path class="cls-4" d="M99.46,133a5.68,5.68,0,1,1-5.66-6.09A5.9,5.9,0,0,1,99.46,133" transform="translate(-21.92 -99.3)"/></svg>