<?xml version="1.0" encoding="UTF-8"?>
<svg width="31px" height="30px" viewBox="0 0 31 30" version="1.1" xmlns="http://www.w3.org/2000/svg" xmlns:xlink="http://www.w3.org/1999/xlink">
    <!-- Generator: Sketch 62 (91390) - https://sketch.com -->
    <title>Group</title>
    <desc>Created with Sketch.</desc>
    <defs>
        <linearGradient x1="0.0321199943%" y1="50.007283%" x2="171.651992%" y2="50.007283%" id="linearGradient-1">
            <stop stop-color="#DE4F57" offset="0%"></stop>
            <stop stop-color="#971057" offset="100%"></stop>
        </linearGradient>
        <linearGradient x1="54.5452265%" y1="16.7412379%" x2="41.1371965%" y2="98.5085757%" id="linearGradient-2">
            <stop stop-color="#DE4F57" offset="0%"></stop>
            <stop stop-color="#971057" offset="100%"></stop>
        </linearGradient>
        <linearGradient x1="74.8125276%" y1="54.6520713%" x2="14.5125717%" y2="30.448713%" id="linearGradient-3">
            <stop stop-color="#DE4F57" offset="0%"></stop>
            <stop stop-color="#971057" offset="100%"></stop>
        </linearGradient>
    </defs>
    <g id="Page-1" stroke="none" stroke-width="1" fill="none" fill-rule="evenodd">
        <g id="logo" transform="translate(-1.000000, 0.000000)" fill-rule="nonzero">
            <g id="Group">
                <path d="M7.17,19.3 C6.19075691,16.7013943 5.90471424,13.892662 6.34,11.15 L2.44,7.2 C0.674607425,11.0112233 0.519599476,15.3730749 2.01,19.3 C3.46796886,23.3732981 6.65850261,26.5894734 10.72,28.08 C13.3540383,29.0573468 16.1961763,29.336393 18.97,28.89 C17.9173541,28.7152628 16.8830014,28.4441218 15.88,28.08 C11.8185026,26.5894734 8.62796886,23.3732981 7.17,19.3 L7.17,19.3 Z" id="Path" fill="url(#linearGradient-1)"></path>
                <path d="M29,4.79 C28.2966096,3.79041656 27.4776013,2.87742365 26.56,2.07 L22.84,5.79 C25.8335223,8.1998112 27.2093655,12.093604 26.3943246,15.8491432 C25.5792837,19.6046823 22.7131443,22.5778645 18.99,23.53 C16.1814216,24.2696982 13.1905519,23.772062 10.7728087,22.1627815 C8.35506546,20.553501 6.74162446,17.9864498 6.34,15.11 C6.16346567,13.8355202 6.23134227,12.5390771 6.54,11.29 L6.34,11.15 C5.89196459,13.8892025 6.16421316,16.6978428 7.13,19.3 C8.58796886,23.3732981 11.7785026,26.5894734 15.84,28.08 C16.8430014,28.4441218 17.8773541,28.7152628 18.93,28.89 C24.1602207,28.0179305 28.5723748,24.5132206 30.6052716,19.615972 C32.6381685,14.7187235 32.0050735,9.11968013 28.93,4.8 L29,4.79 Z" id="Path" fill="url(#linearGradient-2)"></path>
                <path d="M24.92,0.82 C22.9460288,-0.465626114 20.3424396,-0.199018572 18.67,1.46 L16.67,3.46 L15.51,4.62 L12.8,7.38 C12.3030452,7.84860078 11.5269548,7.84860078 11.03,7.38 L9.71,6.02 L8.66,4.97 C7.92801682,4.22902813 6.89826772,3.86200526 5.86263916,3.97296546 C4.8270106,4.08392566 3.89839053,4.66077381 3.34,5.54 L3.02,6.11 L9.21,12.11 C9.86870571,12.8807335 10.8162096,13.3455621 11.82888,13.394776 C12.8415505,13.4439899 13.8296625,13.0732286 14.56,12.37 L21.9,5.14 L25.69,1.38 C25.57,1.32 25.04,0.9 24.92,0.82 Z" id="Path" fill="url(#linearGradient-3)"></path>
            </g>
        </g>
    </g>
</svg>