<?xml version="1.0" encoding="utf-8"?>
<!-- Generator: Adobe Illustrator 23.0.5, SVG Export Plug-In . SVG Version: 6.00 Build 0)  -->
<svg version="1.1" xmlns="http://www.w3.org/2000/svg" xmlns:xlink="http://www.w3.org/1999/xlink" x="0px" y="0px"
	 viewBox="0 0 1920 1080" style="enable-background:new 0 0 1920 1080;" xml:space="preserve">
<style type="text/css">
	.st0{opacity:0.94;fill:#F7F4DE;stroke:#00AEEF;stroke-width:0.25;stroke-miterlimit:10;}
	.st1{opacity:0.5;fill:none;stroke:#00AEEF;stroke-width:0.25;stroke-miterlimit:10;}
	.st2{fill:none;stroke:#00AEEF;stroke-width:0.25;stroke-miterlimit:10;}
	.st3{opacity:0.55;fill:none;stroke:#00AEEF;stroke-width:0.25;stroke-miterlimit:10;}
	.st4{opacity:0.44;fill:none;stroke:#00AEEF;stroke-width:0.25;stroke-miterlimit:10;}
	.st5{opacity:0.2;fill:none;stroke:#00AEEF;stroke-width:0.25;stroke-miterlimit:10;}
	.st6{opacity:0.17;fill:none;stroke:#00AEEF;stroke-width:0.25;stroke-miterlimit:10;}
	.st7{opacity:0.28;fill:none;stroke:#00AEEF;stroke-width:0.25;stroke-miterlimit:10;}
	.st8{opacity:0.14;fill:none;stroke:#00AEEF;stroke-width:0.25;stroke-miterlimit:10;}
	.st9{opacity:0.47;fill:none;stroke:#00AEEF;stroke-width:0.25;stroke-miterlimit:10;}
	.st10{opacity:0.39;fill:none;stroke:#00AEEF;stroke-width:0.25;stroke-miterlimit:10;}
	.st11{fill:#EDF0DA;stroke:#00AEEF;stroke-width:0.25;stroke-miterlimit:10;}
	.st12{fill:#F7F4DE;stroke:#00AEEF;stroke-width:0.25;stroke-miterlimit:10;}
</style>
<g id="Layer_4">
</g>
<g id="Layer_3">
</g>
<g id="Layer_1">
</g>
<g id="Layer_1_copy">
	<rect x="0.5" y="-0.5" class="st0" width="1919" height="1080"/>
	<polyline class="st1" points="254.5,228.5 413.5,418.5 379.5,169.5 	"/>
	<polyline class="st2" points="841.5,590.5 973.5,665.5 950.5,528.5 	"/>
	<polyline class="st3" points="1619.5,518.5 1756.5,796.5 1833.5,503.5 	"/>
	<polyline class="st1" points="1102.5,17.5 1011.5,269.5 1158.5,44.5 	"/>
	<path class="st4" d="M345.5,560.5c0,0,228,248,223,236s-28-378-28-378"/>
	<polyline class="st1" points="1756.5,-0.5 1734.5,135.5 1911.5,-0.5 	"/>
	<polyline class="st5" points="536,199 773,507 853,3 	"/>
	<polyline class="st6" points="1230,145 737,665 1421,931 	"/>
	<polyline class="st7" points="1431,17 1586,216 1518,481 1911,488 1857,189 1649,-5 	"/>
	<path class="st8" d="M244,3c0,0-106,111-103,118s79,156,79,156L81,379L1,277L103-1"/>
	<path class="st6" d="M54,492c0,0-64,473-53,470s381.08-361.82,381.08-361.82L345,364l-91-57"/>
	<polyline class="st9" points="457,-1 595,162 605,-1 	"/>
	<polyline class="st10" points="1227,330 1184,518 1517,481 	"/>
	<polyline class="st1" points="856,319 856,492 1061,255 	"/>
	<path class="st1" d="M645,149c5,3,33,118,33,118l-83-105"/>
	<g>
		<path class="st2" d="M1061.5,250.5l-205,246v-177l328.02,199l326.98-38c0,0-6.82-140.73-11.41-141.36s-76.92-183.12-76.92-183.12
			L1550.5,345.5l-8-266l229-80l101.41,55.66"/>
		<path class="st2" d="M568.5,793.5l79.17,195.32l541.42-361.01l-71.73,245.27l-95.95-311.47l-48.39,103.11L677.6,964.18
			l444.9-83.68l242,157l-680-79l172-455L623.2,819.56l67.22-239.95L602.7,539.2l170.78-117.02l32.38,82.85L856.5,319.5
			l-126.04,64.15L676.54,269.5L605.5-0.5l-10.28,167.41L1002.5-0.5L756.23,370.02L856.5,319.5l146-320l228,147l147,165l-310-60
			l444,229l-280.08,159.38l133.08,397.62l186-692l137,346L1911.76,481L1771.5-0.5l42,379l106-379l-226,270c20,127-6,422-6,422
			s-271.17,351.98-263.58,352.99c7.58,1.01,408.59-114.44,408.59-114.44"/>
		<polygon class="st2" points="328.5,-0.5 0.5,269.5 553.5,657.5 		"/>
		<polyline class="st2" points="271.5,328.5 228.94,81.46 0.5,-0.5 271.5,323.5 180.66,395.9 0.5,539.5 		"/>
		<polyline class="st2" points="490.42,461.51 649.6,269.5 428.5,280.5 401.5,-0.5 374.99,532.25 271.5,328.5 386.73,169.8 
			130.22,154.59 180.5,395.5 0.5,640.5 856.5,496.5 462.5,-0.5 424.68,280.78 597.5,160.5 488.41,467.16 684.5,342.5 553.5,657.5 		
			"/>
		<polygon class="st2" points="1550.5,350.5 1919.5,488.5 1693.5,269.5 		"/>
		<path class="st2" d="M374.5,532.5l143.42,20.96L382.62,379L271.5,328.5l-15.1,268.95L180.5,395.5l-180,575l416.76-400.11
			L684.5,963.5l-133.74-314l305.74-153l266,384l119-232l-385-329l211-68l90-252l72.96,147.13L1294.5-0.5l100.43,41.27L1377.5,311.5
			l134,173l39-134l45.17-198.4L1771.5-0.5c-4,4-78,270-78,270l-225-270l82,351l-173-39l94-320l-404,260l174,397l-385-152l-172-154
			l-87-182"/>
		<path class="st2" d="M173.8,391.09L0.5,467.5l130.39-106.52L0.5,328.5l135-174l-135-75l51,135c6,8,6,8,6,8"/>
		<polyline class="st2" points="114.5,1079.5 0.5,970.5 167.1,612.47 271.5,1079.5 417.5,570.5 537.5,1079.5 684.5,958.5 
			801.5,1079.5 896.91,983.18 856.5,1079.5 		"/>
		<path class="st2" d="M1919.5,145.5l-46.59,20.58c0,0,38.59,315.42,38.59,314.42l8,217l-122.89-108.42
			c0,0,117.89,491.42,122.89,490.42s-232-388-232-388l-323,346l357,42"/>
		<polyline class="st2" points="756.5,370.5 827.72,71.34 595.5,-0.5 856.5,219.16 643.92,145.5 		"/>
		<polyline class="st2" points="537.5,1079.5 568.76,793.24 271.5,1079.5 0.5,970.5 229.59,892.02 414.02,582.64 188.17,706.7 
			256.5,597.5 		"/>
		<polyline class="st2" points="896.91,983.18 1065.5,1079.5 1242.87,1023.37 1522.5,1079.5 		"/>
		<polyline class="st2" points="1899.45,481 1698.27,456.31 1777.5,345.5 1550.5,345.5 1698.27,522 		"/>
		<path class="st2" d="M1230.5,145.5v494l153.01-225.01L1184.5,518.5c-4-10,40.03-186.01,40.03-186.01l158.97-20.99l37.36,122.25"/>
		<polyline class="st2" points="1832.51,930.05 1522.5,907.75 1711.85,731.33 1856.5,1079.5 1672.59,975.84 		"/>
		<polyline class="st2" points="1364.5,1037.5 1619,518.5 1427.08,804.67 1689.5,691.5 		"/>
		<line class="st2" x1="1498.36" y1="539.5" x2="1619.5" y2="518.5"/>
		<polyline class="st2" points="1237.56,639.5 1463.61,668.77 1371.44,560.2 1412.06,860.57 1243.5,648.5 		"/>
		<line class="st11" x1="856.5" y1="319.5" x2="1126.58" y2="79.5"/>
		<line class="st12" x1="856.5" y1="503.5" x2="826.11" y2="813.64"/>
	</g>
	<g>
		<path class="st2" d="M1028.5,254.5l-205,246v-177l328.02,199l326.98-38c0,0-6.82-140.73-11.41-141.36s-76.92-183.12-76.92-183.12
			L1517.5,349.5l-8-266l229-80l101.41,55.66"/>
		<path class="st2" d="M535.5,797.5l79.17,195.32l541.42-361.01l-71.73,245.27l-95.95-311.47l-48.39,103.11L644.6,968.18
			l444.9-83.68l242,157l-680-79l172-455L590.2,823.56l67.22-239.95L569.7,543.2l170.78-117.02l32.38,82.85L823.5,323.5
			l-126.04,64.15L643.54,273.5L572.5,3.5l-10.28,167.41L969.5,3.5L723.23,374.02L823.5,323.5l146-320l228,147l147,165l-310-60
			l444,229l-280.08,159.38l133.08,397.62l186-692l137,346L1878.76,485L1738.5,3.5l42,379l106-379l-226,270c20,127-6,422-6,422
			s-271.17,351.98-263.58,352.99c7.58,1.01,408.59-114.44,408.59-114.44"/>
		<polygon class="st2" points="295.5,3.5 -32.5,273.5 520.5,661.5 		"/>
		<polyline class="st2" points="238.5,332.5 195.94,85.46 -32.5,3.5 238.5,327.5 147.66,399.9 -32.5,543.5 		"/>
		<polyline class="st2" points="457.42,465.51 616.6,273.5 395.5,284.5 368.5,3.5 341.99,536.25 238.5,332.5 353.73,173.8 
			97.22,158.59 147.5,399.5 -32.5,644.5 823.5,500.5 429.5,3.5 391.68,284.78 564.5,164.5 455.41,471.16 651.5,346.5 520.5,661.5 		
			"/>
		<polygon class="st2" points="1517.5,354.5 1886.5,492.5 1660.5,273.5 		"/>
		<path class="st2" d="M341.5,536.5l143.42,20.96L349.62,383L238.5,332.5l-15.1,268.95L147.5,399.5l-180,575l416.76-400.11
			L651.5,967.5l-133.74-314l305.74-153l266,384l119-232l-385-329l211-68l90-252l72.96,147.13L1261.5,3.5l100.43,41.27L1344.5,315.5
			l134,173l39-134l45.17-198.4L1738.5,3.5c-4,4-78,270-78,270l-225-270l82,351l-173-39l94-320l-404,260l174,397l-385-152l-172-154
			l-87-182"/>
		<path class="st2" d="M140.8,395.09L-32.5,471.5L97.89,364.98L-32.5,332.5l135-174l-135-75l51,135c6,8,6,8,6,8"/>
		<polyline class="st2" points="81.5,1083.5 -32.5,974.5 134.1,616.47 238.5,1083.5 384.5,574.5 504.5,1083.5 651.5,962.5 
			768.5,1083.5 863.91,987.18 823.5,1083.5 		"/>
		<path class="st2" d="M1886.5,149.5l-46.59,20.58c0,0,38.59,315.42,38.59,314.42l8,217l-122.89-108.42
			c0,0,117.89,491.42,122.89,490.42s-232-388-232-388l-323,346l357,42"/>
		<polyline class="st2" points="723.5,374.5 794.72,75.34 562.5,3.5 823.5,223.16 610.92,149.5 		"/>
		<polyline class="st2" points="504.5,1083.5 535.76,797.24 238.5,1083.5 -32.5,974.5 196.59,896.02 381.02,586.64 155.17,710.7 
			223.5,601.5 		"/>
		<polyline class="st2" points="863.91,987.18 1032.5,1083.5 1209.87,1027.37 1489.5,1083.5 		"/>
		<polyline class="st2" points="1866.45,485 1665.27,460.31 1744.5,349.5 1517.5,349.5 1665.27,526 		"/>
		<path class="st2" d="M1197.5,149.5v494l153.01-225.01L1151.5,522.5c-4-10,40.03-186.01,40.03-186.01l158.97-20.99l37.36,122.25"/>
		<polyline class="st2" points="1799.51,934.05 1489.5,911.75 1678.85,735.33 1823.5,1083.5 1639.59,979.84 		"/>
		<polyline class="st2" points="1331.5,1041.5 1586,522.5 1394.08,808.67 1656.5,695.5 		"/>
		<line class="st2" x1="1465.36" y1="543.5" x2="1586.5" y2="522.5"/>
		<polyline class="st2" points="1204.56,643.5 1430.61,672.77 1338.44,564.2 1379.06,864.57 1210.5,652.5 		"/>
		<line class="st11" x1="823.5" y1="323.5" x2="1093.58" y2="83.5"/>
		<line class="st12" x1="823.5" y1="507.5" x2="793.11" y2="817.64"/>
	</g>
</g>
</svg>
